G04 Layer_Color=8388736*
%FSLAX23Y23*%
%MOIN*%
G70*
G01*
G75*
%ADD33C,0.061*%
%ADD34O,0.065X0.124*%
%ADD35P,0.058X8X292.5*%
%ADD36P,0.058X8X202.5*%
%ADD37C,0.089*%
%ADD38O,0.266X0.136*%
%ADD39C,0.059*%
%ADD40C,0.136*%
%ADD41C,0.146*%
%ADD42C,0.071*%
D33*
X5060Y3430D02*
D03*
Y3830D02*
D03*
D34*
X4780Y2250D02*
D03*
X4680D02*
D03*
X5080D02*
D03*
X4980D02*
D03*
X3280D02*
D03*
X3180D02*
D03*
X3580D02*
D03*
X3480D02*
D03*
X3880D02*
D03*
X3780D02*
D03*
X4180D02*
D03*
X4080D02*
D03*
X4480D02*
D03*
X4380D02*
D03*
D35*
X4930Y2580D02*
D03*
Y2780D02*
D03*
X4660Y2580D02*
D03*
Y2780D02*
D03*
X4420Y2580D02*
D03*
Y2780D02*
D03*
D36*
X2790Y2450D02*
D03*
X2990D02*
D03*
X4600Y3780D02*
D03*
X4800D02*
D03*
X2790Y2800D02*
D03*
X2990D02*
D03*
X4600Y3430D02*
D03*
X4800D02*
D03*
X4310Y3750D02*
D03*
X4410D02*
D03*
D37*
X3308Y2640D02*
D03*
X3710D02*
D03*
X4112D02*
D03*
X3612Y3440D02*
D03*
X3812D02*
D03*
X4112D02*
D03*
D38*
X2890Y3575D02*
D03*
Y3390D02*
D03*
D39*
X3442Y3740D02*
D03*
X3541D02*
D03*
X3639D02*
D03*
X3738D02*
D03*
D40*
X5300Y2200D02*
D03*
X2700Y3800D02*
D03*
X5300D02*
D03*
X2700Y2200D02*
D03*
D41*
X5300Y2705D02*
D03*
Y3295D02*
D03*
D42*
X4780Y2980D02*
D03*
X4880D02*
D03*
X4680D02*
D03*
M02*
