M48
;Layer_Color=9474304
;FILE_FORMAT=2:3
INCH,LZ
;TYPE=PLATED
T1F00S00C0.032
T2F00S00C0.033
T3F00S00C0.035
T4F00S00C0.039
T5F00S00C0.055
T6F00S00C0.060
T7F00S00C0.087
T8F00S00C0.130
T9F00S00C0.130
%
T01
X0493Y0258
Y0278
X0466
Y0258
X0442
Y0278
X0299Y028
X0279
Y0245
X0299
X046Y0343
Y0378
X0441Y0375
X0431
X048Y0378
Y0343
T02
X0506Y0343
Y0383
T03
X03442Y0374
X03541
X03639
X03738
T04
X0478Y0225
X0498
X0508
X0468
X0448
X0438
X0418
X0408
X0388
X0378
X0358
X0348
X0328
X0318
T05
X03308Y0264
X0371
X04112
Y0344
X03812
X03612
T06
X0478Y0298
X0488
X0468
T07
X0289Y0339
Y03575
T08
X053Y03295
T09
X053Y022
Y02705
X027Y022
Y038
X053
M30
