G04 Layer_Physical_Order=1*
G04 Layer_Color=9306309*
%FSLAX23Y23*%
%MOIN*%
G70*
G01*
G75*
%ADD10C,0.005*%
%ADD11C,0.010*%
%ADD12C,0.140*%
%ADD13C,0.150*%
%ADD14C,0.100*%
%ADD15C,0.050*%
%ADD16C,0.055*%
%ADD17O,0.059X0.118*%
%ADD18P,0.052X8X292.5*%
%ADD19P,0.052X8X202.5*%
%ADD20C,0.083*%
%ADD21O,0.260X0.130*%
%ADD22C,0.053*%
%ADD23C,0.130*%
%ADD24C,0.140*%
%ADD25C,0.065*%
G36*
X3360Y2700D02*
X3550Y2480D01*
X4380D01*
X4430Y2430D01*
Y2327D01*
X4422Y2318D01*
X4416Y2306D01*
X4412Y2293D01*
X4411Y2280D01*
Y2220D01*
X4412Y2207D01*
X4416Y2194D01*
X4422Y2182D01*
X4420Y2180D01*
X4370D01*
X4330Y2220D01*
Y2360D01*
X4120D01*
Y2313D01*
X4116Y2306D01*
X4112Y2293D01*
X4111Y2280D01*
Y2220D01*
X4112Y2207D01*
X4116Y2194D01*
X4120Y2187D01*
Y2180D01*
X4060D01*
X4030Y2210D01*
Y2350D01*
X4020Y2360D01*
X3820D01*
Y2313D01*
X3816Y2306D01*
X3812Y2293D01*
X3811Y2280D01*
Y2220D01*
X3812Y2207D01*
X3816Y2194D01*
X3819Y2189D01*
X3810Y2180D01*
X3760D01*
X3730Y2210D01*
Y2360D01*
X3540D01*
X3520Y2340D01*
Y2313D01*
X3516Y2306D01*
X3512Y2293D01*
X3511Y2280D01*
Y2220D01*
X3512Y2207D01*
X3516Y2194D01*
X3520Y2187D01*
Y2180D01*
X3450D01*
X3420Y2210D01*
Y2360D01*
X3230D01*
X3220Y2350D01*
Y2313D01*
X3216Y2306D01*
X3212Y2293D01*
X3211Y2280D01*
Y2220D01*
X3212Y2207D01*
X3216Y2194D01*
X3220Y2187D01*
Y2170D01*
X3130D01*
X2940Y2360D01*
Y2820D01*
X2970Y2850D01*
X3210D01*
X3360Y2700D01*
D02*
G37*
D10*
X2500Y2000D02*
Y4000D01*
Y2000D02*
X5500D01*
Y4000D01*
X2500D02*
X5500D01*
D11*
X4420Y2780D02*
Y3030D01*
X4550Y3160D01*
X4820D01*
X4930Y3270D01*
Y3810D01*
X4890Y3850D02*
X4930Y3810D01*
X4730Y3850D02*
X4890D01*
X4700Y3820D02*
X4730Y3850D01*
X4700Y3620D02*
Y3820D01*
X4630Y3550D02*
X4700Y3620D01*
X4310Y3550D02*
X4630D01*
X4310D02*
Y3750D01*
D12*
X3055Y3740D02*
X3442D01*
X2890Y3575D02*
X3055Y3740D01*
X3562Y3390D02*
X3612Y3440D01*
D13*
X2890Y3390D02*
X3562D01*
D14*
X3950Y2450D02*
Y2750D01*
X4390D01*
X4420Y2780D01*
D15*
X4660D02*
X4930D01*
X4900Y2410D02*
X4980Y2330D01*
X4750Y2410D02*
X4900D01*
X4680Y2340D02*
X4750Y2410D01*
X4680Y2250D02*
Y2340D01*
X4930Y2780D02*
X4990D01*
X5060Y2710D01*
Y2410D02*
Y2710D01*
X4980Y2330D02*
X5060Y2410D01*
X4980Y2250D02*
Y2330D01*
X3612Y3440D02*
X3802Y3250D01*
X4770D01*
X4800Y3280D01*
Y3430D01*
Y3780D01*
D16*
X5060Y3430D02*
D03*
Y3830D02*
D03*
D17*
X4780Y2250D02*
D03*
X4680D02*
D03*
X5080D02*
D03*
X4980D02*
D03*
X3280D02*
D03*
X3180D02*
D03*
X3580D02*
D03*
X3480D02*
D03*
X3880D02*
D03*
X3780D02*
D03*
X4180D02*
D03*
X4080D02*
D03*
X4480D02*
D03*
X4380D02*
D03*
D18*
X4930Y2580D02*
D03*
Y2780D02*
D03*
X4660Y2580D02*
D03*
Y2780D02*
D03*
X4420Y2580D02*
D03*
Y2780D02*
D03*
D19*
X2790Y2450D02*
D03*
X2990D02*
D03*
X4600Y3780D02*
D03*
X4800D02*
D03*
X2790Y2800D02*
D03*
X2990D02*
D03*
X4600Y3430D02*
D03*
X4800D02*
D03*
X4310Y3750D02*
D03*
X4410D02*
D03*
D20*
X3308Y2640D02*
D03*
X3710D02*
D03*
X4112D02*
D03*
X3612Y3440D02*
D03*
X3812D02*
D03*
X4112D02*
D03*
D21*
X2890Y3575D02*
D03*
Y3390D02*
D03*
D22*
X3442Y3740D02*
D03*
X3541D02*
D03*
X3639D02*
D03*
X3738D02*
D03*
D23*
X5300Y2200D02*
D03*
X2700Y3800D02*
D03*
X5300D02*
D03*
X2700Y2200D02*
D03*
D24*
X5300Y2705D02*
D03*
Y3295D02*
D03*
D25*
X4780Y2980D02*
D03*
X4880D02*
D03*
X4680D02*
D03*
M02*
