M48
;Layer_Color=9474304
;FILE_FORMAT=2:5
INCH,TZ
;TYPE=PLATED
T1F00S00C0.03200
T2F00S00C0.03346
T3F00S00C0.03543
T4F00S00C0.03937
T5F00S00C0.05512
T6F00S00C0.06000
T7F00S00C0.08661
T8F00S00C0.12992
T9F00S00C0.13000
T10F00S00C0.13000
%
T01
X493000Y258000
Y278000
X466000
Y258000
X442000
Y278000
X299000Y280000
X279000
Y245000
X299000
X431000Y345000
X451000
Y374000
X431000
X470000Y347000
X480000
T02
X499000Y322000
Y362000
T03
X344236Y374000
X354079
X363921
X373764
T04
X478000Y225000
X498000
X508000
X468000
X448000
X438000
X418000
X408000
X388000
X378000
X358000
X348000
X328000
X318000
T05
X330842Y264000
X371000
X411157
Y344000
X381236
X361157
T06
X478000Y298000
X488000
X468000
T07
X289000Y339000
Y357504
T08
X530000Y220000
X270000
Y380000
X530000
T09
X530000Y329500
T10
X530000Y270500
M30
