G04*
G04 #@! TF.GenerationSoftware,Altium Limited,Altium Designer,18.1.11 (251)*
G04*
G04 Layer_Color=255*
%FSLAX25Y25*%
%MOIN*%
G70*
G01*
G75*
%ADD35C,0.12992*%
%ADD36C,0.05512*%
%ADD37O,0.05906X0.11811*%
%ADD38P,0.05196X8X292.5*%
%ADD39P,0.05196X8X202.5*%
%ADD40C,0.08268*%
%ADD41O,0.25983X0.12992*%
%ADD42C,0.05315*%
%ADD43C,0.14000*%
%ADD44C,0.06500*%
D35*
X270000Y380000D02*
D03*
X530000Y220000D02*
D03*
Y380000D02*
D03*
X270000Y220000D02*
D03*
D36*
X499000Y362000D02*
D03*
Y322000D02*
D03*
D37*
X478000Y225000D02*
D03*
X468000D02*
D03*
X508000D02*
D03*
X498000D02*
D03*
X328000D02*
D03*
X318000D02*
D03*
X358000D02*
D03*
X348000D02*
D03*
X388000D02*
D03*
X378000D02*
D03*
X418000D02*
D03*
X408000D02*
D03*
X448000D02*
D03*
X438000D02*
D03*
D38*
X493000Y258000D02*
D03*
Y278000D02*
D03*
X466000Y258000D02*
D03*
Y278000D02*
D03*
X442000Y258000D02*
D03*
Y278000D02*
D03*
D39*
X279000Y245000D02*
D03*
X299000D02*
D03*
X431000Y374000D02*
D03*
X451000D02*
D03*
X279000Y280000D02*
D03*
X299000D02*
D03*
X431000Y345000D02*
D03*
X451000D02*
D03*
X470000Y347000D02*
D03*
X480000D02*
D03*
D40*
X330842Y264000D02*
D03*
X371000D02*
D03*
X411157D02*
D03*
X361157Y344000D02*
D03*
X381236D02*
D03*
X411157D02*
D03*
D41*
X289000Y357504D02*
D03*
Y339000D02*
D03*
D42*
X344236Y374000D02*
D03*
X354079D02*
D03*
X363921D02*
D03*
X373764D02*
D03*
D43*
X530000Y270500D02*
D03*
Y329500D02*
D03*
D44*
X478000Y298000D02*
D03*
X488000D02*
D03*
X468000D02*
D03*
M02*
