G04*
G04 #@! TF.GenerationSoftware,Altium Limited,Altium Designer,18.1.11 (251)*
G04*
G04 Layer_Physical_Order=1*
G04 Layer_Color=255*
%FSLAX25Y25*%
%MOIN*%
G70*
G01*
G75*
%ADD12C,0.01000*%
%ADD29C,0.05906*%
%ADD30C,0.07874*%
%ADD31C,0.05000*%
%ADD32C,0.03937*%
%ADD33C,0.09843*%
%ADD34C,0.11811*%
%ADD35C,0.12992*%
%ADD36C,0.05512*%
%ADD37O,0.05906X0.11811*%
%ADD38P,0.05196X8X292.5*%
%ADD39P,0.05196X8X202.5*%
%ADD40C,0.08268*%
%ADD41O,0.25983X0.12992*%
%ADD42C,0.05315*%
%ADD43C,0.14000*%
%ADD44C,0.06500*%
D12*
X330000Y242000D02*
X330842Y242842D01*
X347000Y242000D02*
X348000Y241000D01*
X378000Y242000D02*
X378000Y242000D01*
X408000Y242000D02*
X408000Y242000D01*
X468000Y345000D02*
X470000Y347000D01*
D29*
X299000Y245000D02*
X302000Y242000D01*
X318000D01*
X438000Y225000D02*
Y242000D01*
X348000Y225000D02*
Y241000D01*
X318000Y225000D02*
Y242000D01*
X378000Y225000D02*
Y242000D01*
X408000Y225000D02*
Y242000D01*
D30*
X330000Y242000D02*
X347000D01*
X318000D02*
X330000D01*
X330842Y242842D02*
Y264000D01*
X299000Y245000D02*
Y280000D01*
X347000Y242000D02*
X369000D01*
X378000D02*
X408000D01*
X369000D02*
X378000D01*
X408000D02*
X438000D01*
X369000D02*
X405000Y278000D01*
X442000D01*
X448000D02*
X468000Y298000D01*
X442000Y278000D02*
X448000D01*
X451000Y325000D02*
Y345000D01*
X356157Y339000D02*
X370157Y325000D01*
X451000D01*
Y345000D02*
Y374000D01*
X356157Y339000D02*
X361157Y344000D01*
X289000Y339000D02*
X356157D01*
D31*
X498000Y241000D02*
X506000D01*
X475000D02*
X498000D01*
X506000D02*
X506000Y241000D01*
X466000Y278000D02*
X493000D01*
X468000Y234000D02*
X475000Y241000D01*
X468000Y225000D02*
Y234000D01*
X493000Y278000D02*
X499000D01*
X506000Y271000D01*
Y241000D02*
Y271000D01*
X498000Y225000D02*
Y241000D01*
D32*
X480000Y347000D02*
X484000D01*
X499000Y362000D01*
X468000Y298000D02*
Y345000D01*
D33*
X331000Y374000D02*
X344236D01*
D34*
X305496D02*
X331000D01*
X289000Y357504D02*
X305496Y374000D01*
D35*
X270000Y380000D02*
D03*
X530000Y220000D02*
D03*
Y380000D02*
D03*
X270000Y220000D02*
D03*
D36*
X499000Y362000D02*
D03*
Y322000D02*
D03*
D37*
X478000Y225000D02*
D03*
X468000D02*
D03*
X508000D02*
D03*
X498000D02*
D03*
X328000D02*
D03*
X318000D02*
D03*
X358000D02*
D03*
X348000D02*
D03*
X388000D02*
D03*
X378000D02*
D03*
X418000D02*
D03*
X408000D02*
D03*
X448000D02*
D03*
X438000D02*
D03*
D38*
X493000Y258000D02*
D03*
Y278000D02*
D03*
X466000Y258000D02*
D03*
Y278000D02*
D03*
X442000Y258000D02*
D03*
Y278000D02*
D03*
D39*
X279000Y245000D02*
D03*
X299000D02*
D03*
X431000Y374000D02*
D03*
X451000D02*
D03*
X279000Y280000D02*
D03*
X299000D02*
D03*
X431000Y345000D02*
D03*
X451000D02*
D03*
X470000Y347000D02*
D03*
X480000D02*
D03*
D40*
X330842Y264000D02*
D03*
X371000D02*
D03*
X411157D02*
D03*
X361157Y344000D02*
D03*
X381236D02*
D03*
X411157D02*
D03*
D41*
X289000Y357504D02*
D03*
Y339000D02*
D03*
D42*
X344236Y374000D02*
D03*
X354079D02*
D03*
X363921D02*
D03*
X373764D02*
D03*
D43*
X530000Y270500D02*
D03*
Y329500D02*
D03*
D44*
X478000Y298000D02*
D03*
X488000D02*
D03*
X468000D02*
D03*
M02*
