G04*
G04 #@! TF.GenerationSoftware,Altium Limited,Altium Designer,18.1.11 (251)*
G04*
G04 Layer_Color=8388736*
%FSLAX25Y25*%
%MOIN*%
G70*
G01*
G75*
%ADD19C,0.13592*%
%ADD20C,0.06112*%
%ADD21O,0.06506X0.12411*%
%ADD22P,0.05845X8X292.5*%
%ADD23P,0.05845X8X202.5*%
%ADD24C,0.08868*%
%ADD25O,0.26583X0.13591*%
%ADD26C,0.05915*%
%ADD27C,0.14600*%
%ADD28C,0.07100*%
D19*
X270000Y380000D02*
D03*
X530000Y220000D02*
D03*
Y380000D02*
D03*
X270000Y220000D02*
D03*
D20*
X499000Y362000D02*
D03*
Y322000D02*
D03*
D21*
X478000Y225000D02*
D03*
X468000D02*
D03*
X508000D02*
D03*
X498000D02*
D03*
X328000D02*
D03*
X318000D02*
D03*
X358000D02*
D03*
X348000D02*
D03*
X388000D02*
D03*
X378000D02*
D03*
X418000D02*
D03*
X408000D02*
D03*
X448000D02*
D03*
X438000D02*
D03*
D22*
X493000Y258000D02*
D03*
Y278000D02*
D03*
X466000Y258000D02*
D03*
Y278000D02*
D03*
X442000Y258000D02*
D03*
Y278000D02*
D03*
D23*
X279000Y245000D02*
D03*
X299000D02*
D03*
X431000Y374000D02*
D03*
X451000D02*
D03*
X279000Y280000D02*
D03*
X299000D02*
D03*
X431000Y345000D02*
D03*
X451000D02*
D03*
X470000Y347000D02*
D03*
X480000D02*
D03*
D24*
X330842Y264000D02*
D03*
X371000D02*
D03*
X411157D02*
D03*
X361157Y344000D02*
D03*
X381236D02*
D03*
X411157D02*
D03*
D25*
X289000Y357504D02*
D03*
Y339000D02*
D03*
D26*
X344236Y374000D02*
D03*
X354079D02*
D03*
X363921D02*
D03*
X373764D02*
D03*
D27*
X530000Y270500D02*
D03*
Y329500D02*
D03*
D28*
X478000Y298000D02*
D03*
X488000D02*
D03*
X468000D02*
D03*
M02*
