G04 Layer_Color=65535*
%FSLAX23Y23*%
%MOIN*%
G70*
G01*
G75*
%ADD10C,0.005*%
%ADD11C,0.010*%
%ADD26C,0.006*%
%ADD27C,0.008*%
%ADD28C,0.008*%
%ADD29C,0.012*%
%ADD30C,0.003*%
%ADD31C,0.003*%
%ADD32C,0.004*%
G36*
X3321Y2070D02*
X3316D01*
X3300Y2095D01*
Y2070D01*
X3296D01*
Y2102D01*
X3300D01*
X3317Y2077D01*
Y2102D01*
X3321D01*
Y2070D01*
D02*
G37*
G36*
X3341Y2102D02*
X3342Y2102D01*
X3343Y2102D01*
X3343Y2101D01*
X3344Y2101D01*
X3344D01*
X3344Y2101D01*
X3345D01*
X3345Y2101D01*
X3345Y2101D01*
X3346Y2101D01*
X3347Y2100D01*
X3347Y2100D01*
X3348Y2100D01*
X3349Y2099D01*
X3349Y2099D01*
X3349Y2099D01*
X3349Y2099D01*
X3349Y2099D01*
X3350Y2098D01*
X3350Y2098D01*
X3351Y2097D01*
X3352Y2096D01*
X3352Y2095D01*
X3353Y2094D01*
Y2094D01*
X3353Y2093D01*
X3353Y2093D01*
X3353Y2093D01*
X3353Y2093D01*
X3353Y2092D01*
X3353Y2092D01*
X3353Y2091D01*
X3353Y2091D01*
X3353Y2090D01*
X3354Y2089D01*
X3354Y2088D01*
X3354Y2086D01*
Y2086D01*
Y2086D01*
Y2086D01*
Y2085D01*
X3354Y2085D01*
Y2085D01*
X3354Y2084D01*
X3354Y2083D01*
X3354Y2082D01*
X3353Y2081D01*
X3353Y2080D01*
Y2080D01*
X3353Y2079D01*
X3353Y2079D01*
X3353Y2079D01*
X3353Y2079D01*
X3352Y2078D01*
X3352Y2077D01*
X3352Y2077D01*
X3351Y2076D01*
X3351Y2075D01*
X3351Y2075D01*
X3351Y2075D01*
X3350Y2074D01*
X3350Y2074D01*
X3350Y2073D01*
X3349Y2073D01*
X3349Y2073D01*
X3348Y2072D01*
X3348Y2072D01*
X3348Y2072D01*
X3347Y2072D01*
X3347Y2072D01*
X3346Y2071D01*
X3346Y2071D01*
X3345Y2071D01*
X3344Y2071D01*
X3344D01*
X3344Y2070D01*
X3344Y2070D01*
X3343Y2070D01*
X3343Y2070D01*
X3342Y2070D01*
X3341Y2070D01*
X3340Y2070D01*
X3339Y2070D01*
X3328D01*
Y2102D01*
X3340D01*
X3341Y2102D01*
D02*
G37*
G36*
X3277Y2102D02*
X3277D01*
X3278Y2102D01*
X3279Y2102D01*
X3280Y2102D01*
X3281Y2102D01*
X3282Y2101D01*
X3282D01*
X3282Y2101D01*
X3282Y2101D01*
X3283Y2101D01*
X3283Y2101D01*
X3284Y2100D01*
X3284Y2100D01*
X3285Y2099D01*
X3286Y2099D01*
X3286Y2098D01*
X3287Y2098D01*
X3287Y2098D01*
X3287Y2097D01*
X3287Y2097D01*
X3288Y2096D01*
X3288Y2095D01*
X3289Y2094D01*
X3289Y2093D01*
X3285Y2092D01*
Y2092D01*
X3285Y2092D01*
X3285Y2092D01*
X3285Y2092D01*
X3285Y2093D01*
X3285Y2093D01*
X3284Y2094D01*
X3284Y2094D01*
X3284Y2095D01*
X3283Y2096D01*
X3283Y2096D01*
X3283Y2096D01*
X3283Y2096D01*
X3283Y2096D01*
X3282Y2097D01*
X3282Y2097D01*
X3281Y2098D01*
X3280Y2098D01*
X3280Y2098D01*
X3280Y2098D01*
X3280Y2098D01*
X3279Y2098D01*
X3278Y2098D01*
X3278Y2099D01*
X3277Y2099D01*
X3276Y2099D01*
X3275D01*
X3275Y2099D01*
X3275D01*
X3274Y2099D01*
X3273Y2099D01*
X3273Y2098D01*
X3272Y2098D01*
X3271Y2098D01*
X3271Y2098D01*
X3271Y2098D01*
X3270Y2097D01*
X3270Y2097D01*
X3269Y2097D01*
X3269Y2096D01*
X3268Y2096D01*
X3268Y2096D01*
X3267Y2095D01*
X3267Y2095D01*
X3267Y2095D01*
X3267Y2095D01*
X3266Y2094D01*
X3266Y2094D01*
X3266Y2093D01*
X3266Y2092D01*
Y2092D01*
X3265Y2092D01*
X3265Y2092D01*
X3265Y2092D01*
X3265Y2092D01*
X3265Y2091D01*
X3265Y2091D01*
X3265Y2090D01*
X3265Y2090D01*
X3264Y2088D01*
X3264Y2087D01*
X3264Y2086D01*
Y2086D01*
Y2086D01*
Y2086D01*
X3264Y2085D01*
Y2085D01*
X3264Y2084D01*
X3264Y2084D01*
X3264Y2083D01*
X3265Y2082D01*
X3265Y2081D01*
X3265Y2080D01*
X3266Y2079D01*
Y2079D01*
X3266Y2079D01*
X3266Y2079D01*
X3266Y2078D01*
X3266Y2078D01*
X3267Y2077D01*
X3267Y2077D01*
X3268Y2076D01*
X3269Y2075D01*
X3270Y2075D01*
X3270D01*
X3270Y2075D01*
X3270Y2074D01*
X3271Y2074D01*
X3271Y2074D01*
X3271Y2074D01*
X3272Y2074D01*
X3273Y2074D01*
X3274Y2073D01*
X3275Y2073D01*
X3276Y2073D01*
X3276D01*
X3277Y2073D01*
X3277D01*
X3278Y2073D01*
X3278Y2073D01*
X3279Y2074D01*
X3280Y2074D01*
X3281Y2074D01*
X3281D01*
X3281Y2074D01*
X3282Y2074D01*
X3282Y2074D01*
X3282Y2075D01*
X3283Y2075D01*
X3283Y2075D01*
X3284Y2076D01*
X3285Y2076D01*
X3285Y2076D01*
Y2082D01*
X3276D01*
Y2086D01*
X3289D01*
Y2074D01*
X3289Y2074D01*
X3289Y2074D01*
X3289Y2074D01*
X3289Y2074D01*
X3289Y2074D01*
X3288Y2074D01*
X3288Y2073D01*
X3287Y2073D01*
X3286Y2072D01*
X3285Y2072D01*
X3284Y2071D01*
X3283Y2071D01*
X3283D01*
X3283Y2071D01*
X3283Y2071D01*
X3282Y2071D01*
X3282Y2070D01*
X3282Y2070D01*
X3281Y2070D01*
X3281Y2070D01*
X3280Y2070D01*
X3279Y2070D01*
X3278Y2069D01*
X3276Y2069D01*
X3276D01*
X3275Y2069D01*
X3275D01*
X3275Y2070D01*
X3274Y2070D01*
X3273Y2070D01*
X3272Y2070D01*
X3271Y2070D01*
X3269Y2071D01*
X3268Y2071D01*
X3268Y2071D01*
X3268Y2071D01*
X3268Y2072D01*
X3267Y2072D01*
X3267Y2072D01*
X3267Y2072D01*
X3266Y2072D01*
X3266Y2073D01*
X3265Y2074D01*
X3264Y2075D01*
X3263Y2076D01*
X3262Y2077D01*
Y2077D01*
X3262Y2077D01*
X3262Y2078D01*
X3262Y2078D01*
X3261Y2078D01*
X3261Y2079D01*
X3261Y2079D01*
X3261Y2080D01*
X3261Y2080D01*
X3261Y2081D01*
X3260Y2082D01*
X3260Y2082D01*
X3260Y2084D01*
X3260Y2086D01*
Y2086D01*
Y2086D01*
Y2086D01*
X3260Y2086D01*
Y2087D01*
X3260Y2087D01*
X3260Y2088D01*
X3260Y2088D01*
X3260Y2089D01*
X3260Y2090D01*
X3261Y2091D01*
X3261Y2093D01*
X3262Y2094D01*
X3262Y2094D01*
X3262Y2095D01*
X3262Y2095D01*
X3262Y2095D01*
X3262Y2095D01*
X3263Y2096D01*
X3263Y2097D01*
X3264Y2098D01*
X3265Y2099D01*
X3266Y2100D01*
X3267Y2100D01*
X3267Y2100D01*
X3268Y2100D01*
X3268Y2100D01*
X3268Y2101D01*
X3268Y2101D01*
X3268Y2101D01*
X3269Y2101D01*
X3269Y2101D01*
X3270Y2101D01*
X3271Y2102D01*
X3271Y2102D01*
X3272Y2102D01*
X3273Y2102D01*
X3274Y2102D01*
X3275Y2102D01*
X3276D01*
X3277Y2102D01*
D02*
G37*
G36*
X3890Y3676D02*
X3865Y3660D01*
X3890D01*
Y3656D01*
X3858D01*
Y3660D01*
X3883Y3677D01*
X3858D01*
Y3681D01*
X3890D01*
Y3676D01*
D02*
G37*
G36*
X3886Y3649D02*
X3886Y3649D01*
X3886Y3649D01*
X3886Y3649D01*
X3886Y3649D01*
X3886Y3648D01*
X3887Y3648D01*
X3887Y3647D01*
X3888Y3646D01*
X3888Y3645D01*
X3889Y3644D01*
X3889Y3643D01*
Y3643D01*
X3889Y3643D01*
X3889Y3643D01*
X3889Y3642D01*
X3890Y3642D01*
X3890Y3642D01*
X3890Y3641D01*
X3890Y3641D01*
X3890Y3640D01*
X3890Y3639D01*
X3891Y3638D01*
X3891Y3636D01*
Y3636D01*
Y3636D01*
Y3636D01*
X3891Y3635D01*
Y3635D01*
X3890Y3635D01*
X3890Y3634D01*
X3890Y3633D01*
X3890Y3632D01*
X3890Y3631D01*
X3889Y3629D01*
X3889Y3628D01*
X3889Y3628D01*
X3889Y3628D01*
X3888Y3628D01*
X3888Y3627D01*
X3888Y3627D01*
X3888Y3627D01*
X3888Y3626D01*
X3887Y3626D01*
X3886Y3625D01*
X3885Y3624D01*
X3884Y3623D01*
X3883Y3622D01*
X3883D01*
X3883Y3622D01*
X3882Y3622D01*
X3882Y3622D01*
X3882Y3621D01*
X3881Y3621D01*
X3881Y3621D01*
X3880Y3621D01*
X3880Y3621D01*
X3879Y3621D01*
X3878Y3620D01*
X3878Y3620D01*
X3876Y3620D01*
X3874Y3620D01*
X3874D01*
X3874Y3620D01*
X3873D01*
X3873Y3620D01*
X3872Y3620D01*
X3872Y3620D01*
X3871Y3620D01*
X3870Y3620D01*
X3869Y3621D01*
X3867Y3621D01*
X3866Y3622D01*
X3866Y3622D01*
X3865Y3622D01*
X3865Y3622D01*
X3865Y3622D01*
X3865Y3622D01*
X3864Y3623D01*
X3863Y3623D01*
X3862Y3624D01*
X3861Y3625D01*
X3860Y3626D01*
X3860Y3627D01*
X3860Y3627D01*
X3860Y3628D01*
X3860Y3628D01*
X3859Y3628D01*
X3859Y3628D01*
X3859Y3628D01*
X3859Y3629D01*
X3859Y3629D01*
X3859Y3630D01*
X3858Y3631D01*
X3858Y3631D01*
X3858Y3632D01*
X3858Y3633D01*
X3858Y3634D01*
X3858Y3635D01*
Y3636D01*
Y3636D01*
Y3636D01*
Y3636D01*
Y3636D01*
X3858Y3637D01*
Y3637D01*
X3858Y3638D01*
X3858Y3639D01*
X3858Y3640D01*
X3858Y3641D01*
X3859Y3642D01*
Y3642D01*
X3859Y3642D01*
X3859Y3642D01*
X3859Y3643D01*
X3859Y3643D01*
X3860Y3644D01*
X3860Y3644D01*
X3861Y3645D01*
X3861Y3646D01*
X3862Y3646D01*
X3862Y3647D01*
X3862Y3647D01*
X3863Y3647D01*
X3863Y3647D01*
X3864Y3648D01*
X3865Y3648D01*
X3866Y3649D01*
X3867Y3649D01*
X3868Y3645D01*
X3868D01*
X3868Y3645D01*
X3868Y3645D01*
X3868Y3645D01*
X3867Y3645D01*
X3867Y3645D01*
X3866Y3644D01*
X3866Y3644D01*
X3865Y3644D01*
X3864Y3643D01*
X3864Y3643D01*
X3864Y3643D01*
X3864Y3643D01*
X3864Y3643D01*
X3863Y3642D01*
X3863Y3642D01*
X3862Y3641D01*
X3862Y3640D01*
X3862Y3640D01*
X3862Y3640D01*
X3862Y3640D01*
X3862Y3639D01*
X3862Y3638D01*
X3861Y3638D01*
X3861Y3637D01*
X3861Y3636D01*
Y3636D01*
Y3636D01*
Y3636D01*
Y3635D01*
X3861Y3635D01*
Y3635D01*
X3861Y3634D01*
X3861Y3633D01*
X3862Y3633D01*
X3862Y3632D01*
X3862Y3631D01*
X3862Y3631D01*
X3862Y3631D01*
X3863Y3630D01*
X3863Y3630D01*
X3863Y3629D01*
X3864Y3629D01*
X3864Y3628D01*
X3864Y3628D01*
X3865Y3627D01*
X3865Y3627D01*
X3865Y3627D01*
X3865Y3627D01*
X3866Y3626D01*
X3866Y3626D01*
X3867Y3626D01*
X3868Y3626D01*
X3868D01*
X3868Y3625D01*
X3868Y3625D01*
X3868Y3625D01*
X3868Y3625D01*
X3869Y3625D01*
X3869Y3625D01*
X3870Y3625D01*
X3870Y3625D01*
X3872Y3624D01*
X3873Y3624D01*
X3874Y3624D01*
X3874D01*
X3875Y3624D01*
X3875D01*
X3876Y3624D01*
X3876Y3624D01*
X3877Y3624D01*
X3878Y3625D01*
X3879Y3625D01*
X3880Y3625D01*
X3881Y3626D01*
X3881D01*
X3881Y3626D01*
X3881Y3626D01*
X3882Y3626D01*
X3882Y3626D01*
X3883Y3627D01*
X3883Y3627D01*
X3884Y3628D01*
X3885Y3629D01*
X3885Y3630D01*
Y3630D01*
X3885Y3630D01*
X3886Y3630D01*
X3886Y3631D01*
X3886Y3631D01*
X3886Y3631D01*
X3886Y3632D01*
X3886Y3633D01*
X3887Y3634D01*
X3887Y3635D01*
X3887Y3636D01*
Y3636D01*
Y3636D01*
Y3636D01*
Y3636D01*
X3887Y3637D01*
Y3637D01*
X3887Y3638D01*
X3887Y3638D01*
X3886Y3639D01*
X3886Y3640D01*
X3886Y3641D01*
Y3641D01*
X3886Y3641D01*
X3886Y3642D01*
X3886Y3642D01*
X3885Y3642D01*
X3885Y3643D01*
X3885Y3643D01*
X3884Y3644D01*
X3884Y3645D01*
X3884Y3645D01*
X3878D01*
Y3636D01*
X3874D01*
Y3649D01*
X3886D01*
X3886Y3649D01*
D02*
G37*
G36*
X3484Y2070D02*
X3479D01*
X3467Y2102D01*
X3472D01*
X3480Y2079D01*
Y2079D01*
X3480Y2079D01*
X3480Y2078D01*
X3480Y2078D01*
X3480Y2078D01*
X3480Y2078D01*
X3480Y2077D01*
X3481Y2076D01*
X3481Y2075D01*
X3482Y2073D01*
Y2074D01*
X3482Y2074D01*
X3482Y2074D01*
X3482Y2074D01*
X3482Y2074D01*
X3482Y2075D01*
X3482Y2076D01*
X3483Y2077D01*
X3483Y2078D01*
X3483Y2079D01*
X3492Y2102D01*
X3496D01*
X3484Y2070D01*
D02*
G37*
G36*
X3443Y2102D02*
X3443Y2102D01*
X3444Y2102D01*
X3444Y2102D01*
X3445Y2102D01*
X3446Y2101D01*
X3447Y2101D01*
X3448Y2101D01*
X3448Y2100D01*
X3449Y2100D01*
X3449Y2099D01*
X3450Y2099D01*
X3450Y2099D01*
X3450Y2099D01*
X3450Y2099D01*
X3450Y2099D01*
X3450Y2098D01*
X3451Y2098D01*
X3451Y2098D01*
X3451Y2097D01*
X3452Y2096D01*
X3452Y2095D01*
X3452Y2094D01*
X3452Y2094D01*
X3452Y2093D01*
Y2093D01*
Y2093D01*
X3452Y2092D01*
X3452Y2092D01*
X3452Y2091D01*
X3452Y2091D01*
X3452Y2090D01*
X3451Y2089D01*
X3451Y2089D01*
X3451Y2089D01*
X3451Y2089D01*
X3451Y2088D01*
X3450Y2088D01*
X3450Y2087D01*
X3449Y2086D01*
X3449Y2085D01*
X3449Y2085D01*
X3448Y2085D01*
X3448Y2085D01*
X3448Y2085D01*
X3448Y2084D01*
X3447Y2084D01*
X3447Y2084D01*
X3446Y2083D01*
X3446Y2083D01*
X3445Y2082D01*
X3445Y2082D01*
X3444Y2081D01*
X3444Y2081D01*
X3443Y2080D01*
X3443Y2080D01*
X3443Y2080D01*
X3442Y2080D01*
X3442Y2079D01*
X3442Y2079D01*
X3442Y2079D01*
X3441Y2078D01*
X3440Y2078D01*
X3439Y2077D01*
X3439Y2076D01*
X3438Y2076D01*
X3438Y2076D01*
X3438Y2076D01*
X3438Y2076D01*
X3438Y2075D01*
X3438Y2075D01*
X3437Y2075D01*
X3437Y2075D01*
X3437Y2074D01*
X3452D01*
Y2070D01*
X3431D01*
Y2070D01*
Y2070D01*
Y2071D01*
X3431Y2071D01*
X3431Y2071D01*
X3431Y2072D01*
X3431Y2072D01*
X3432Y2073D01*
Y2073D01*
X3432Y2073D01*
X3432Y2073D01*
X3432Y2073D01*
X3432Y2074D01*
X3433Y2075D01*
X3433Y2075D01*
X3434Y2076D01*
X3434Y2077D01*
Y2077D01*
X3434Y2077D01*
X3435Y2077D01*
X3435Y2078D01*
X3436Y2078D01*
X3436Y2079D01*
X3437Y2080D01*
X3438Y2081D01*
X3439Y2082D01*
X3439Y2082D01*
X3440Y2082D01*
X3440Y2082D01*
X3440Y2082D01*
X3441Y2083D01*
X3441Y2083D01*
X3442Y2084D01*
X3442Y2084D01*
X3443Y2085D01*
X3444Y2086D01*
X3445Y2087D01*
X3445Y2087D01*
X3446Y2088D01*
X3446Y2088D01*
Y2088D01*
X3446Y2089D01*
X3446Y2089D01*
X3447Y2089D01*
X3447Y2089D01*
X3447Y2090D01*
X3448Y2091D01*
X3448Y2091D01*
X3448Y2092D01*
X3448Y2093D01*
Y2093D01*
Y2093D01*
X3448Y2094D01*
X3448Y2094D01*
X3448Y2095D01*
X3448Y2095D01*
X3447Y2096D01*
X3447Y2096D01*
X3446Y2097D01*
X3446Y2097D01*
X3446Y2097D01*
X3446Y2098D01*
X3445Y2098D01*
X3445Y2098D01*
X3444Y2098D01*
X3443Y2099D01*
X3442Y2099D01*
X3442D01*
X3442Y2099D01*
X3441Y2099D01*
X3440Y2098D01*
X3440Y2098D01*
X3439Y2098D01*
X3438Y2098D01*
X3438Y2097D01*
X3437Y2097D01*
X3437Y2097D01*
X3437Y2096D01*
X3437Y2096D01*
X3436Y2095D01*
X3436Y2094D01*
X3436Y2093D01*
X3436Y2092D01*
X3432Y2093D01*
Y2093D01*
X3432Y2093D01*
Y2093D01*
X3432Y2093D01*
X3432Y2094D01*
X3432Y2094D01*
X3432Y2095D01*
X3432Y2095D01*
X3433Y2096D01*
X3433Y2097D01*
X3434Y2098D01*
X3434Y2099D01*
X3435Y2099D01*
X3435Y2100D01*
X3435Y2100D01*
X3435Y2100D01*
X3435Y2100D01*
X3435Y2100D01*
X3436Y2100D01*
X3436Y2100D01*
X3436Y2100D01*
X3437Y2101D01*
X3437Y2101D01*
X3438Y2101D01*
X3439Y2101D01*
X3439Y2102D01*
X3440Y2102D01*
X3441Y2102D01*
X3441Y2102D01*
X3442Y2102D01*
X3443D01*
X3443Y2102D01*
D02*
G37*
G36*
X3122Y2070D02*
X3118D01*
Y2095D01*
X3118Y2095D01*
X3118Y2095D01*
X3117Y2094D01*
X3117Y2094D01*
X3116Y2094D01*
X3116Y2093D01*
X3115Y2093D01*
X3114Y2092D01*
X3114D01*
X3114Y2092D01*
X3114Y2092D01*
X3113Y2092D01*
X3113Y2091D01*
X3112Y2091D01*
X3111Y2091D01*
X3111Y2090D01*
X3110Y2090D01*
Y2094D01*
X3110D01*
X3110Y2094D01*
X3110Y2094D01*
X3111Y2094D01*
X3111Y2094D01*
X3111Y2095D01*
X3112Y2095D01*
X3113Y2095D01*
X3114Y2096D01*
X3115Y2097D01*
X3116Y2098D01*
X3116Y2098D01*
X3116Y2098D01*
X3116Y2098D01*
X3116Y2098D01*
X3117Y2098D01*
X3117Y2099D01*
X3118Y2100D01*
X3118Y2100D01*
X3119Y2101D01*
X3119Y2102D01*
X3122D01*
Y2070D01*
D02*
G37*
G36*
X3184D02*
X3179D01*
X3167Y2102D01*
X3172D01*
X3180Y2079D01*
Y2079D01*
X3180Y2079D01*
X3180Y2078D01*
X3180Y2078D01*
X3180Y2078D01*
X3180Y2078D01*
X3180Y2077D01*
X3181Y2076D01*
X3181Y2075D01*
X3182Y2073D01*
Y2074D01*
X3182Y2074D01*
X3182Y2074D01*
X3182Y2074D01*
X3182Y2074D01*
X3182Y2075D01*
X3182Y2076D01*
X3183Y2077D01*
X3183Y2078D01*
X3183Y2079D01*
X3192Y2102D01*
X3196D01*
X3184Y2070D01*
D02*
G37*
G36*
X3143Y2102D02*
X3143Y2102D01*
X3144Y2102D01*
X3144Y2102D01*
X3145Y2102D01*
X3146Y2101D01*
X3147Y2101D01*
X3148Y2101D01*
X3148Y2100D01*
X3149Y2100D01*
X3149Y2099D01*
X3150Y2099D01*
X3150Y2099D01*
X3150Y2099D01*
X3150Y2099D01*
X3150Y2099D01*
X3150Y2098D01*
X3151Y2098D01*
X3151Y2098D01*
X3151Y2097D01*
X3152Y2096D01*
X3152Y2095D01*
X3152Y2094D01*
X3152Y2094D01*
X3152Y2093D01*
Y2093D01*
Y2093D01*
X3152Y2092D01*
X3152Y2092D01*
X3152Y2091D01*
X3152Y2091D01*
X3152Y2090D01*
X3151Y2089D01*
X3151Y2089D01*
X3151Y2089D01*
X3151Y2089D01*
X3151Y2088D01*
X3150Y2088D01*
X3150Y2087D01*
X3149Y2086D01*
X3149Y2085D01*
X3149Y2085D01*
X3148Y2085D01*
X3148Y2085D01*
X3148Y2085D01*
X3148Y2084D01*
X3147Y2084D01*
X3147Y2084D01*
X3146Y2083D01*
X3146Y2083D01*
X3145Y2082D01*
X3145Y2082D01*
X3144Y2081D01*
X3144Y2081D01*
X3143Y2080D01*
X3143Y2080D01*
X3143Y2080D01*
X3142Y2080D01*
X3142Y2079D01*
X3142Y2079D01*
X3142Y2079D01*
X3141Y2078D01*
X3140Y2078D01*
X3139Y2077D01*
X3139Y2076D01*
X3138Y2076D01*
X3138Y2076D01*
X3138Y2076D01*
X3138Y2076D01*
X3138Y2075D01*
X3138Y2075D01*
X3137Y2075D01*
X3137Y2075D01*
X3137Y2074D01*
X3152D01*
Y2070D01*
X3131D01*
Y2070D01*
Y2070D01*
Y2071D01*
X3131Y2071D01*
X3131Y2071D01*
X3131Y2072D01*
X3131Y2072D01*
X3132Y2073D01*
Y2073D01*
X3132Y2073D01*
X3132Y2073D01*
X3132Y2073D01*
X3132Y2074D01*
X3133Y2075D01*
X3133Y2075D01*
X3134Y2076D01*
X3134Y2077D01*
Y2077D01*
X3134Y2077D01*
X3135Y2077D01*
X3135Y2078D01*
X3136Y2078D01*
X3136Y2079D01*
X3137Y2080D01*
X3138Y2081D01*
X3139Y2082D01*
X3139Y2082D01*
X3140Y2082D01*
X3140Y2082D01*
X3140Y2082D01*
X3141Y2083D01*
X3141Y2083D01*
X3142Y2084D01*
X3142Y2084D01*
X3143Y2085D01*
X3144Y2086D01*
X3145Y2087D01*
X3145Y2087D01*
X3146Y2088D01*
X3146Y2088D01*
Y2088D01*
X3146Y2089D01*
X3146Y2089D01*
X3147Y2089D01*
X3147Y2089D01*
X3147Y2090D01*
X3148Y2091D01*
X3148Y2091D01*
X3148Y2092D01*
X3148Y2093D01*
Y2093D01*
Y2093D01*
X3148Y2094D01*
X3148Y2094D01*
X3148Y2095D01*
X3148Y2095D01*
X3147Y2096D01*
X3147Y2096D01*
X3146Y2097D01*
X3146Y2097D01*
X3146Y2097D01*
X3146Y2098D01*
X3145Y2098D01*
X3145Y2098D01*
X3144Y2098D01*
X3143Y2099D01*
X3142Y2099D01*
X3142D01*
X3142Y2099D01*
X3141Y2099D01*
X3140Y2098D01*
X3140Y2098D01*
X3139Y2098D01*
X3138Y2098D01*
X3138Y2097D01*
X3137Y2097D01*
X3137Y2097D01*
X3137Y2096D01*
X3137Y2096D01*
X3136Y2095D01*
X3136Y2094D01*
X3136Y2093D01*
X3136Y2092D01*
X3132Y2093D01*
Y2093D01*
X3132Y2093D01*
Y2093D01*
X3132Y2093D01*
X3132Y2094D01*
X3132Y2094D01*
X3132Y2095D01*
X3132Y2095D01*
X3133Y2096D01*
X3133Y2097D01*
X3134Y2098D01*
X3134Y2099D01*
X3135Y2099D01*
X3135Y2100D01*
X3135Y2100D01*
X3135Y2100D01*
X3135Y2100D01*
X3135Y2100D01*
X3136Y2100D01*
X3136Y2100D01*
X3136Y2100D01*
X3137Y2101D01*
X3137Y2101D01*
X3138Y2101D01*
X3139Y2101D01*
X3139Y2102D01*
X3140Y2102D01*
X3141Y2102D01*
X3141Y2102D01*
X3142Y2102D01*
X3143D01*
X3143Y2102D01*
D02*
G37*
G36*
X3875Y3714D02*
X3875D01*
X3876Y3714D01*
X3877Y3714D01*
X3878Y3714D01*
X3879Y3713D01*
X3880Y3713D01*
X3880D01*
X3881Y3713D01*
X3881Y3713D01*
X3881Y3713D01*
X3881Y3713D01*
X3882Y3712D01*
X3883Y3712D01*
X3883Y3712D01*
X3884Y3711D01*
X3885Y3711D01*
X3885Y3711D01*
X3885Y3711D01*
X3886Y3710D01*
X3886Y3710D01*
X3887Y3710D01*
X3887Y3709D01*
X3887Y3709D01*
X3888Y3708D01*
X3888Y3708D01*
X3888Y3708D01*
X3888Y3707D01*
X3888Y3707D01*
X3889Y3706D01*
X3889Y3706D01*
X3889Y3705D01*
X3889Y3704D01*
Y3704D01*
Y3704D01*
X3890Y3704D01*
X3890Y3704D01*
X3890Y3703D01*
X3890Y3703D01*
X3890Y3702D01*
X3890Y3701D01*
X3890Y3700D01*
X3890Y3699D01*
Y3688D01*
X3858D01*
Y3699D01*
Y3699D01*
Y3699D01*
Y3699D01*
Y3699D01*
Y3699D01*
Y3700D01*
X3858Y3701D01*
X3858Y3702D01*
X3858Y3703D01*
X3859Y3703D01*
X3859Y3704D01*
Y3704D01*
X3859Y3704D01*
Y3705D01*
X3859Y3705D01*
X3859Y3705D01*
X3859Y3706D01*
X3860Y3707D01*
X3860Y3707D01*
X3860Y3708D01*
X3861Y3709D01*
X3861Y3709D01*
X3861Y3709D01*
X3861Y3709D01*
X3861Y3709D01*
X3862Y3710D01*
X3862Y3710D01*
X3863Y3711D01*
X3864Y3712D01*
X3865Y3712D01*
X3866Y3713D01*
X3866D01*
X3867Y3713D01*
X3867Y3713D01*
X3867Y3713D01*
X3867Y3713D01*
X3868Y3713D01*
X3868Y3713D01*
X3869Y3713D01*
X3869Y3713D01*
X3870Y3713D01*
X3871Y3714D01*
X3872Y3714D01*
X3874Y3714D01*
X3875D01*
X3875Y3714D01*
D02*
G37*
G36*
X3862Y3843D02*
X3890D01*
Y3839D01*
X3862D01*
Y3828D01*
X3858D01*
Y3853D01*
X3862D01*
Y3843D01*
D02*
G37*
G36*
Y3816D02*
X3890D01*
Y3812D01*
X3862D01*
Y3801D01*
X3858D01*
Y3826D01*
X3862D01*
Y3816D01*
D02*
G37*
G36*
X2866Y3153D02*
X2866D01*
X2867Y3153D01*
X2868Y3153D01*
X2869Y3153D01*
X2871Y3152D01*
X2873Y3152D01*
X2875Y3151D01*
X2876Y3150D01*
X2877Y3150D01*
X2877Y3150D01*
X2877Y3150D01*
X2877Y3149D01*
X2878Y3149D01*
X2878Y3149D01*
X2879Y3148D01*
X2880Y3147D01*
X2881Y3146D01*
X2883Y3145D01*
X2884Y3143D01*
X2885Y3141D01*
Y3141D01*
X2885Y3140D01*
X2886Y3140D01*
X2886Y3140D01*
X2886Y3139D01*
X2886Y3138D01*
X2887Y3138D01*
X2887Y3137D01*
X2887Y3136D01*
X2887Y3135D01*
X2888Y3134D01*
X2888Y3132D01*
X2888Y3130D01*
X2888Y3127D01*
Y3127D01*
Y3127D01*
Y3127D01*
X2888Y3126D01*
Y3125D01*
X2888Y3125D01*
X2888Y3124D01*
X2888Y3123D01*
X2888Y3121D01*
X2887Y3118D01*
X2886Y3116D01*
X2886Y3115D01*
X2885Y3114D01*
Y3114D01*
X2885Y3113D01*
X2885Y3113D01*
X2885Y3113D01*
X2884Y3112D01*
X2884Y3112D01*
X2883Y3110D01*
X2882Y3109D01*
X2880Y3107D01*
X2879Y3106D01*
X2877Y3105D01*
X2876D01*
X2876Y3105D01*
X2876Y3104D01*
X2876Y3104D01*
X2875Y3104D01*
X2874Y3104D01*
X2874Y3104D01*
X2873Y3103D01*
X2872Y3103D01*
X2871Y3103D01*
X2869Y3102D01*
X2867Y3102D01*
X2865Y3102D01*
X2864D01*
X2863Y3102D01*
X2863D01*
X2862Y3102D01*
X2861Y3102D01*
X2860Y3102D01*
X2858Y3103D01*
X2856Y3103D01*
X2854Y3104D01*
X2853Y3105D01*
X2852Y3105D01*
X2852Y3105D01*
X2852Y3105D01*
X2851Y3105D01*
X2851Y3106D01*
X2851Y3106D01*
X2850Y3106D01*
X2849Y3108D01*
X2848Y3109D01*
X2846Y3110D01*
X2845Y3112D01*
X2844Y3114D01*
Y3114D01*
X2843Y3115D01*
X2843Y3115D01*
X2843Y3115D01*
X2843Y3116D01*
X2843Y3116D01*
X2842Y3117D01*
X2842Y3118D01*
X2842Y3119D01*
X2842Y3120D01*
X2841Y3122D01*
X2841Y3124D01*
X2841Y3127D01*
Y3127D01*
Y3127D01*
Y3127D01*
X2841Y3128D01*
Y3129D01*
X2841Y3130D01*
X2841Y3131D01*
X2841Y3132D01*
X2842Y3134D01*
X2842Y3135D01*
X2842Y3137D01*
X2843Y3138D01*
X2844Y3140D01*
X2844Y3142D01*
X2845Y3143D01*
X2846Y3145D01*
X2847Y3146D01*
X2847Y3146D01*
X2848Y3146D01*
X2848Y3147D01*
X2849Y3147D01*
X2849Y3148D01*
X2850Y3148D01*
X2851Y3149D01*
X2852Y3150D01*
X2853Y3150D01*
X2854Y3151D01*
X2856Y3151D01*
X2857Y3152D01*
X2859Y3152D01*
X2861Y3153D01*
X2863Y3153D01*
X2865Y3153D01*
X2865D01*
X2866Y3153D01*
D02*
G37*
G36*
X2936Y3103D02*
X2929D01*
X2903Y3142D01*
Y3103D01*
X2897D01*
Y3152D01*
X2903D01*
X2929Y3113D01*
Y3152D01*
X2936D01*
Y3103D01*
D02*
G37*
G36*
X4621Y2102D02*
X4621Y2102D01*
X4622Y2102D01*
X4622Y2102D01*
X4623Y2102D01*
X4624Y2101D01*
X4625Y2101D01*
X4626Y2101D01*
X4626Y2100D01*
X4627Y2100D01*
X4627Y2099D01*
X4627Y2099D01*
X4627Y2099D01*
X4627Y2099D01*
X4627Y2099D01*
X4628Y2099D01*
X4628Y2099D01*
X4628Y2098D01*
X4629Y2097D01*
X4629Y2096D01*
X4630Y2095D01*
X4630Y2094D01*
X4630Y2094D01*
Y2094D01*
Y2093D01*
Y2093D01*
X4630Y2093D01*
X4630Y2092D01*
X4629Y2092D01*
X4629Y2091D01*
X4629Y2090D01*
X4628Y2090D01*
X4628Y2090D01*
X4628Y2089D01*
X4628Y2089D01*
X4628Y2089D01*
X4627Y2088D01*
X4626Y2088D01*
X4626Y2088D01*
X4625Y2087D01*
X4625D01*
X4625Y2087D01*
X4625Y2087D01*
X4625Y2087D01*
X4626Y2087D01*
X4627Y2086D01*
X4627Y2086D01*
X4628Y2085D01*
X4629Y2085D01*
X4629Y2084D01*
Y2084D01*
X4629Y2084D01*
X4630Y2084D01*
X4630Y2083D01*
X4630Y2083D01*
X4630Y2082D01*
X4631Y2081D01*
X4631Y2080D01*
X4631Y2079D01*
Y2079D01*
Y2079D01*
Y2079D01*
X4631Y2078D01*
X4631Y2078D01*
X4631Y2078D01*
X4631Y2077D01*
X4631Y2077D01*
X4630Y2076D01*
X4630Y2075D01*
X4630Y2074D01*
X4629Y2074D01*
X4629Y2073D01*
X4629Y2073D01*
X4628Y2072D01*
X4628Y2072D01*
X4628Y2072D01*
X4628Y2072D01*
X4628Y2072D01*
X4627Y2072D01*
X4627Y2071D01*
X4626Y2071D01*
X4626Y2071D01*
X4626Y2071D01*
X4625Y2070D01*
X4624Y2070D01*
X4624Y2070D01*
X4623Y2070D01*
X4622Y2070D01*
X4621Y2069D01*
X4620Y2069D01*
X4620D01*
X4620Y2069D01*
X4619Y2070D01*
X4619Y2070D01*
X4618Y2070D01*
X4618Y2070D01*
X4617Y2070D01*
X4616Y2070D01*
X4615Y2071D01*
X4615Y2071D01*
X4614Y2071D01*
X4613Y2072D01*
X4613Y2072D01*
X4613Y2072D01*
X4613Y2072D01*
X4613Y2072D01*
X4612Y2073D01*
X4612Y2073D01*
X4612Y2073D01*
X4612Y2074D01*
X4611Y2074D01*
X4611Y2075D01*
X4611Y2075D01*
X4610Y2076D01*
X4610Y2077D01*
X4610Y2078D01*
X4610Y2078D01*
X4610Y2079D01*
Y2079D01*
Y2079D01*
Y2079D01*
X4610Y2080D01*
Y2080D01*
X4610Y2080D01*
X4610Y2081D01*
X4610Y2082D01*
X4611Y2083D01*
X4611Y2083D01*
X4612Y2084D01*
Y2084D01*
X4612Y2084D01*
X4612Y2085D01*
X4612Y2085D01*
X4613Y2085D01*
X4613Y2086D01*
X4614Y2086D01*
X4615Y2087D01*
X4616Y2087D01*
X4616D01*
X4616Y2087D01*
X4616Y2087D01*
X4616Y2087D01*
X4615Y2088D01*
X4615Y2088D01*
X4614Y2088D01*
X4613Y2089D01*
X4613Y2089D01*
X4612Y2090D01*
X4612Y2090D01*
X4612Y2090D01*
X4612Y2090D01*
X4612Y2091D01*
X4612Y2091D01*
X4611Y2092D01*
X4611Y2093D01*
X4611Y2094D01*
Y2094D01*
Y2094D01*
Y2094D01*
X4611Y2094D01*
X4611Y2095D01*
X4611Y2095D01*
X4612Y2096D01*
X4612Y2097D01*
X4612Y2098D01*
X4613Y2098D01*
X4613Y2099D01*
X4613Y2099D01*
X4614Y2100D01*
X4614Y2100D01*
X4614Y2100D01*
X4614Y2100D01*
X4614Y2100D01*
X4614Y2100D01*
X4615Y2100D01*
X4615Y2100D01*
X4616Y2101D01*
X4616Y2101D01*
X4616Y2101D01*
X4617Y2101D01*
X4618Y2102D01*
X4619Y2102D01*
X4620Y2102D01*
X4620Y2102D01*
X4621D01*
X4621Y2102D01*
D02*
G37*
G36*
X3899Y3716D02*
X3896D01*
Y3741D01*
X3899D01*
Y3716D01*
D02*
G37*
G36*
X4541Y2102D02*
X4542Y2102D01*
X4543Y2102D01*
X4543Y2101D01*
X4544Y2101D01*
X4544D01*
X4544Y2101D01*
X4545D01*
X4545Y2101D01*
X4545Y2101D01*
X4546Y2101D01*
X4547Y2100D01*
X4547Y2100D01*
X4548Y2100D01*
X4549Y2099D01*
X4549Y2099D01*
X4549Y2099D01*
X4549Y2099D01*
X4549Y2099D01*
X4550Y2098D01*
X4550Y2098D01*
X4551Y2097D01*
X4552Y2096D01*
X4552Y2095D01*
X4553Y2094D01*
Y2094D01*
X4553Y2093D01*
X4553Y2093D01*
X4553Y2093D01*
X4553Y2093D01*
X4553Y2092D01*
X4553Y2092D01*
X4553Y2091D01*
X4553Y2091D01*
X4553Y2090D01*
X4554Y2089D01*
X4554Y2088D01*
X4554Y2086D01*
Y2086D01*
Y2086D01*
Y2086D01*
Y2085D01*
X4554Y2085D01*
Y2085D01*
X4554Y2084D01*
X4554Y2083D01*
X4554Y2082D01*
X4553Y2081D01*
X4553Y2080D01*
Y2080D01*
X4553Y2079D01*
X4553Y2079D01*
X4553Y2079D01*
X4553Y2079D01*
X4552Y2078D01*
X4552Y2077D01*
X4552Y2077D01*
X4551Y2076D01*
X4551Y2075D01*
X4551Y2075D01*
X4551Y2075D01*
X4550Y2074D01*
X4550Y2074D01*
X4550Y2073D01*
X4549Y2073D01*
X4549Y2073D01*
X4548Y2072D01*
X4548Y2072D01*
X4548Y2072D01*
X4547Y2072D01*
X4547Y2072D01*
X4546Y2071D01*
X4546Y2071D01*
X4545Y2071D01*
X4544Y2071D01*
X4544D01*
X4544Y2070D01*
X4544Y2070D01*
X4543Y2070D01*
X4543Y2070D01*
X4542Y2070D01*
X4541Y2070D01*
X4540Y2070D01*
X4539Y2070D01*
X4528D01*
Y2102D01*
X4540D01*
X4541Y2102D01*
D02*
G37*
G36*
X4662Y2070D02*
X4658D01*
X4645Y2102D01*
X4650D01*
X4658Y2079D01*
Y2079D01*
X4658Y2079D01*
X4658Y2078D01*
X4658Y2078D01*
X4658Y2078D01*
X4659Y2078D01*
X4659Y2077D01*
X4659Y2076D01*
X4659Y2075D01*
X4660Y2073D01*
Y2074D01*
X4660Y2074D01*
X4660Y2074D01*
X4660Y2074D01*
X4660Y2074D01*
X4660Y2075D01*
X4661Y2076D01*
X4661Y2077D01*
X4661Y2078D01*
X4662Y2079D01*
X4670Y2102D01*
X4674D01*
X4662Y2070D01*
D02*
G37*
G36*
X3890Y3795D02*
X3880Y3792D01*
Y3778D01*
X3890Y3775D01*
Y3771D01*
X3858Y3783D01*
Y3787D01*
X3890Y3800D01*
Y3795D01*
D02*
G37*
G36*
X3882Y3768D02*
X3882Y3768D01*
X3883Y3768D01*
X3883Y3768D01*
X3884Y3768D01*
X3885Y3767D01*
X3885Y3767D01*
X3885Y3767D01*
X3886Y3767D01*
X3886Y3767D01*
X3887Y3766D01*
X3887Y3766D01*
X3888Y3765D01*
X3888Y3765D01*
X3888Y3765D01*
X3888Y3765D01*
X3888Y3764D01*
X3888Y3764D01*
X3889Y3763D01*
X3889Y3763D01*
X3889Y3762D01*
X3889Y3761D01*
Y3761D01*
X3890Y3761D01*
X3890Y3761D01*
X3890Y3760D01*
X3890Y3759D01*
X3890Y3758D01*
X3890Y3757D01*
X3890Y3756D01*
Y3744D01*
X3858D01*
Y3756D01*
Y3756D01*
Y3756D01*
Y3756D01*
Y3757D01*
X3858Y3757D01*
Y3757D01*
X3858Y3758D01*
X3858Y3759D01*
X3859Y3760D01*
X3859Y3761D01*
X3859Y3762D01*
Y3762D01*
X3859Y3762D01*
X3859Y3762D01*
X3860Y3763D01*
X3860Y3763D01*
X3860Y3764D01*
X3861Y3764D01*
X3861Y3765D01*
X3862Y3765D01*
X3862Y3765D01*
X3863Y3766D01*
X3863Y3766D01*
X3863Y3766D01*
X3864Y3766D01*
X3865Y3766D01*
X3866Y3767D01*
X3866Y3767D01*
X3867D01*
X3867Y3767D01*
X3868Y3767D01*
X3868Y3766D01*
X3869Y3766D01*
X3869Y3766D01*
X3870Y3766D01*
X3870Y3765D01*
X3870Y3765D01*
X3871Y3765D01*
X3871Y3765D01*
X3872Y3764D01*
X3872Y3764D01*
X3873Y3763D01*
X3873Y3762D01*
Y3762D01*
X3873Y3762D01*
X3873Y3762D01*
X3873Y3763D01*
X3873Y3763D01*
X3874Y3764D01*
X3874Y3765D01*
X3875Y3765D01*
X3875Y3766D01*
X3876Y3767D01*
X3876Y3767D01*
X3876Y3767D01*
X3877Y3767D01*
X3877Y3767D01*
X3878Y3768D01*
X3879Y3768D01*
X3880Y3768D01*
X3881Y3768D01*
X3881D01*
X3882Y3768D01*
D02*
G37*
G36*
X4022Y2070D02*
X4018D01*
Y2095D01*
X4018Y2095D01*
X4018Y2095D01*
X4017Y2094D01*
X4017Y2094D01*
X4016Y2094D01*
X4016Y2093D01*
X4015Y2093D01*
X4014Y2092D01*
X4014D01*
X4014Y2092D01*
X4014Y2092D01*
X4013Y2092D01*
X4013Y2091D01*
X4012Y2091D01*
X4011Y2091D01*
X4011Y2090D01*
X4010Y2090D01*
Y2094D01*
X4010D01*
X4010Y2094D01*
X4010Y2094D01*
X4011Y2094D01*
X4011Y2094D01*
X4011Y2095D01*
X4012Y2095D01*
X4013Y2095D01*
X4014Y2096D01*
X4015Y2097D01*
X4016Y2098D01*
X4016Y2098D01*
X4016Y2098D01*
X4016Y2098D01*
X4016Y2098D01*
X4017Y2098D01*
X4017Y2099D01*
X4018Y2100D01*
X4018Y2100D01*
X4019Y2101D01*
X4019Y2102D01*
X4022D01*
Y2070D01*
D02*
G37*
G36*
X4177Y2102D02*
X4177D01*
X4178Y2102D01*
X4179Y2102D01*
X4180Y2102D01*
X4181Y2102D01*
X4182Y2101D01*
X4182D01*
X4182Y2101D01*
X4182Y2101D01*
X4183Y2101D01*
X4183Y2101D01*
X4184Y2100D01*
X4184Y2100D01*
X4185Y2099D01*
X4186Y2099D01*
X4186Y2098D01*
X4187Y2098D01*
X4187Y2098D01*
X4187Y2097D01*
X4187Y2097D01*
X4188Y2096D01*
X4188Y2095D01*
X4189Y2094D01*
X4189Y2093D01*
X4185Y2092D01*
Y2092D01*
X4185Y2092D01*
X4185Y2092D01*
X4185Y2092D01*
X4185Y2093D01*
X4185Y2093D01*
X4184Y2094D01*
X4184Y2094D01*
X4184Y2095D01*
X4183Y2096D01*
X4183Y2096D01*
X4183Y2096D01*
X4183Y2096D01*
X4183Y2096D01*
X4182Y2097D01*
X4182Y2097D01*
X4181Y2098D01*
X4180Y2098D01*
X4180Y2098D01*
X4180Y2098D01*
X4180Y2098D01*
X4179Y2098D01*
X4178Y2098D01*
X4178Y2099D01*
X4177Y2099D01*
X4176Y2099D01*
X4175D01*
X4175Y2099D01*
X4175D01*
X4174Y2099D01*
X4173Y2099D01*
X4173Y2098D01*
X4172Y2098D01*
X4171Y2098D01*
X4171Y2098D01*
X4171Y2098D01*
X4170Y2097D01*
X4170Y2097D01*
X4169Y2097D01*
X4169Y2096D01*
X4168Y2096D01*
X4168Y2096D01*
X4167Y2095D01*
X4167Y2095D01*
X4167Y2095D01*
X4167Y2095D01*
X4166Y2094D01*
X4166Y2094D01*
X4166Y2093D01*
X4166Y2092D01*
Y2092D01*
X4165Y2092D01*
X4165Y2092D01*
X4165Y2092D01*
X4165Y2092D01*
X4165Y2091D01*
X4165Y2091D01*
X4165Y2090D01*
X4165Y2090D01*
X4164Y2088D01*
X4164Y2087D01*
X4164Y2086D01*
Y2086D01*
Y2086D01*
Y2086D01*
X4164Y2085D01*
Y2085D01*
X4164Y2084D01*
X4164Y2084D01*
X4164Y2083D01*
X4165Y2082D01*
X4165Y2081D01*
X4165Y2080D01*
X4166Y2079D01*
Y2079D01*
X4166Y2079D01*
X4166Y2079D01*
X4166Y2078D01*
X4166Y2078D01*
X4167Y2077D01*
X4167Y2077D01*
X4168Y2076D01*
X4169Y2075D01*
X4170Y2075D01*
X4170D01*
X4170Y2075D01*
X4170Y2074D01*
X4171Y2074D01*
X4171Y2074D01*
X4171Y2074D01*
X4172Y2074D01*
X4173Y2074D01*
X4174Y2073D01*
X4175Y2073D01*
X4176Y2073D01*
X4176D01*
X4177Y2073D01*
X4177D01*
X4178Y2073D01*
X4178Y2073D01*
X4179Y2074D01*
X4180Y2074D01*
X4181Y2074D01*
X4181D01*
X4181Y2074D01*
X4182Y2074D01*
X4182Y2074D01*
X4182Y2075D01*
X4183Y2075D01*
X4183Y2075D01*
X4184Y2076D01*
X4185Y2076D01*
X4185Y2076D01*
Y2082D01*
X4176D01*
Y2086D01*
X4189D01*
Y2074D01*
X4189Y2074D01*
X4189Y2074D01*
X4189Y2074D01*
X4189Y2074D01*
X4189Y2074D01*
X4188Y2074D01*
X4188Y2073D01*
X4187Y2073D01*
X4186Y2072D01*
X4185Y2072D01*
X4184Y2071D01*
X4183Y2071D01*
X4183D01*
X4183Y2071D01*
X4183Y2071D01*
X4182Y2071D01*
X4182Y2070D01*
X4182Y2070D01*
X4181Y2070D01*
X4181Y2070D01*
X4180Y2070D01*
X4179Y2070D01*
X4178Y2069D01*
X4176Y2069D01*
X4176D01*
X4175Y2069D01*
X4175D01*
X4175Y2070D01*
X4174Y2070D01*
X4173Y2070D01*
X4172Y2070D01*
X4171Y2070D01*
X4169Y2071D01*
X4168Y2071D01*
X4168Y2071D01*
X4168Y2071D01*
X4168Y2072D01*
X4167Y2072D01*
X4167Y2072D01*
X4167Y2072D01*
X4166Y2072D01*
X4166Y2073D01*
X4165Y2074D01*
X4164Y2075D01*
X4163Y2076D01*
X4162Y2077D01*
Y2077D01*
X4162Y2077D01*
X4162Y2078D01*
X4162Y2078D01*
X4161Y2078D01*
X4161Y2079D01*
X4161Y2079D01*
X4161Y2080D01*
X4161Y2080D01*
X4161Y2081D01*
X4160Y2082D01*
X4160Y2082D01*
X4160Y2084D01*
X4160Y2086D01*
Y2086D01*
Y2086D01*
Y2086D01*
X4160Y2086D01*
Y2087D01*
X4160Y2087D01*
X4160Y2088D01*
X4160Y2088D01*
X4160Y2089D01*
X4160Y2090D01*
X4161Y2091D01*
X4161Y2093D01*
X4162Y2094D01*
X4162Y2094D01*
X4162Y2095D01*
X4162Y2095D01*
X4162Y2095D01*
X4162Y2095D01*
X4163Y2096D01*
X4163Y2097D01*
X4164Y2098D01*
X4165Y2099D01*
X4166Y2100D01*
X4167Y2100D01*
X4167Y2100D01*
X4168Y2100D01*
X4168Y2100D01*
X4168Y2101D01*
X4168Y2101D01*
X4168Y2101D01*
X4169Y2101D01*
X4169Y2101D01*
X4170Y2101D01*
X4171Y2102D01*
X4171Y2102D01*
X4172Y2102D01*
X4173Y2102D01*
X4174Y2102D01*
X4175Y2102D01*
X4176D01*
X4177Y2102D01*
D02*
G37*
G36*
X4043Y2102D02*
X4043Y2102D01*
X4044Y2102D01*
X4044Y2102D01*
X4045Y2102D01*
X4046Y2101D01*
X4047Y2101D01*
X4048Y2101D01*
X4048Y2100D01*
X4049Y2100D01*
X4049Y2099D01*
X4050Y2099D01*
X4050Y2099D01*
X4050Y2099D01*
X4050Y2099D01*
X4050Y2099D01*
X4050Y2098D01*
X4051Y2098D01*
X4051Y2098D01*
X4051Y2097D01*
X4052Y2096D01*
X4052Y2095D01*
X4052Y2094D01*
X4052Y2094D01*
X4052Y2093D01*
Y2093D01*
Y2093D01*
X4052Y2092D01*
X4052Y2092D01*
X4052Y2091D01*
X4052Y2091D01*
X4052Y2090D01*
X4051Y2089D01*
X4051Y2089D01*
X4051Y2089D01*
X4051Y2089D01*
X4051Y2088D01*
X4050Y2088D01*
X4050Y2087D01*
X4049Y2086D01*
X4049Y2085D01*
X4049Y2085D01*
X4048Y2085D01*
X4048Y2085D01*
X4048Y2085D01*
X4048Y2084D01*
X4047Y2084D01*
X4047Y2084D01*
X4046Y2083D01*
X4046Y2083D01*
X4045Y2082D01*
X4045Y2082D01*
X4044Y2081D01*
X4044Y2081D01*
X4043Y2080D01*
X4043Y2080D01*
X4043Y2080D01*
X4042Y2080D01*
X4042Y2079D01*
X4042Y2079D01*
X4042Y2079D01*
X4041Y2078D01*
X4040Y2078D01*
X4039Y2077D01*
X4039Y2076D01*
X4038Y2076D01*
X4038Y2076D01*
X4038Y2076D01*
X4038Y2076D01*
X4038Y2075D01*
X4038Y2075D01*
X4037Y2075D01*
X4037Y2075D01*
X4037Y2074D01*
X4052D01*
Y2070D01*
X4031D01*
Y2070D01*
Y2070D01*
Y2071D01*
X4031Y2071D01*
X4031Y2071D01*
X4031Y2072D01*
X4031Y2072D01*
X4032Y2073D01*
Y2073D01*
X4032Y2073D01*
X4032Y2073D01*
X4032Y2073D01*
X4032Y2074D01*
X4033Y2075D01*
X4033Y2075D01*
X4034Y2076D01*
X4034Y2077D01*
Y2077D01*
X4034Y2077D01*
X4035Y2077D01*
X4035Y2078D01*
X4036Y2078D01*
X4036Y2079D01*
X4037Y2080D01*
X4038Y2081D01*
X4039Y2082D01*
X4039Y2082D01*
X4040Y2082D01*
X4040Y2082D01*
X4040Y2082D01*
X4041Y2083D01*
X4041Y2083D01*
X4042Y2084D01*
X4042Y2084D01*
X4043Y2085D01*
X4044Y2086D01*
X4045Y2087D01*
X4045Y2087D01*
X4046Y2088D01*
X4046Y2088D01*
Y2088D01*
X4046Y2089D01*
X4046Y2089D01*
X4047Y2089D01*
X4047Y2089D01*
X4047Y2090D01*
X4048Y2091D01*
X4048Y2091D01*
X4048Y2092D01*
X4048Y2093D01*
Y2093D01*
Y2093D01*
X4048Y2094D01*
X4048Y2094D01*
X4048Y2095D01*
X4048Y2095D01*
X4047Y2096D01*
X4047Y2096D01*
X4046Y2097D01*
X4046Y2097D01*
X4046Y2097D01*
X4046Y2098D01*
X4045Y2098D01*
X4045Y2098D01*
X4044Y2098D01*
X4043Y2099D01*
X4042Y2099D01*
X4042D01*
X4042Y2099D01*
X4041Y2099D01*
X4040Y2098D01*
X4040Y2098D01*
X4039Y2098D01*
X4038Y2098D01*
X4038Y2097D01*
X4037Y2097D01*
X4037Y2097D01*
X4037Y2096D01*
X4037Y2096D01*
X4036Y2095D01*
X4036Y2094D01*
X4036Y2093D01*
X4036Y2092D01*
X4032Y2093D01*
Y2093D01*
X4032Y2093D01*
Y2093D01*
X4032Y2093D01*
X4032Y2094D01*
X4032Y2094D01*
X4032Y2095D01*
X4032Y2095D01*
X4033Y2096D01*
X4033Y2097D01*
X4034Y2098D01*
X4034Y2099D01*
X4035Y2099D01*
X4035Y2100D01*
X4035Y2100D01*
X4035Y2100D01*
X4035Y2100D01*
X4035Y2100D01*
X4036Y2100D01*
X4036Y2100D01*
X4036Y2100D01*
X4037Y2101D01*
X4037Y2101D01*
X4038Y2101D01*
X4039Y2101D01*
X4039Y2102D01*
X4040Y2102D01*
X4041Y2102D01*
X4041Y2102D01*
X4042Y2102D01*
X4043D01*
X4043Y2102D01*
D02*
G37*
G36*
X3941Y2102D02*
X3942Y2102D01*
X3943Y2102D01*
X3943Y2101D01*
X3944Y2101D01*
X3944D01*
X3944Y2101D01*
X3945D01*
X3945Y2101D01*
X3945Y2101D01*
X3946Y2101D01*
X3947Y2100D01*
X3947Y2100D01*
X3948Y2100D01*
X3949Y2099D01*
X3949Y2099D01*
X3949Y2099D01*
X3949Y2099D01*
X3949Y2099D01*
X3950Y2098D01*
X3950Y2098D01*
X3951Y2097D01*
X3952Y2096D01*
X3952Y2095D01*
X3953Y2094D01*
Y2094D01*
X3953Y2093D01*
X3953Y2093D01*
X3953Y2093D01*
X3953Y2093D01*
X3953Y2092D01*
X3953Y2092D01*
X3953Y2091D01*
X3953Y2091D01*
X3953Y2090D01*
X3954Y2089D01*
X3954Y2088D01*
X3954Y2086D01*
Y2086D01*
Y2086D01*
Y2086D01*
Y2085D01*
X3954Y2085D01*
Y2085D01*
X3954Y2084D01*
X3954Y2083D01*
X3954Y2082D01*
X3953Y2081D01*
X3953Y2080D01*
Y2080D01*
X3953Y2079D01*
X3953Y2079D01*
X3953Y2079D01*
X3953Y2079D01*
X3952Y2078D01*
X3952Y2077D01*
X3952Y2077D01*
X3951Y2076D01*
X3951Y2075D01*
X3951Y2075D01*
X3951Y2075D01*
X3950Y2074D01*
X3950Y2074D01*
X3950Y2073D01*
X3949Y2073D01*
X3949Y2073D01*
X3948Y2072D01*
X3948Y2072D01*
X3948Y2072D01*
X3947Y2072D01*
X3947Y2072D01*
X3946Y2071D01*
X3946Y2071D01*
X3945Y2071D01*
X3944Y2071D01*
X3944D01*
X3944Y2070D01*
X3944Y2070D01*
X3943Y2070D01*
X3943Y2070D01*
X3942Y2070D01*
X3941Y2070D01*
X3940Y2070D01*
X3939Y2070D01*
X3928D01*
Y2102D01*
X3940D01*
X3941Y2102D01*
D02*
G37*
G36*
X4084Y2070D02*
X4079D01*
X4067Y2102D01*
X4072D01*
X4080Y2079D01*
Y2079D01*
X4080Y2079D01*
X4080Y2078D01*
X4080Y2078D01*
X4080Y2078D01*
X4080Y2078D01*
X4080Y2077D01*
X4081Y2076D01*
X4081Y2075D01*
X4082Y2073D01*
Y2074D01*
X4082Y2074D01*
X4082Y2074D01*
X4082Y2074D01*
X4082Y2074D01*
X4082Y2075D01*
X4082Y2076D01*
X4083Y2077D01*
X4083Y2078D01*
X4083Y2079D01*
X4092Y2102D01*
X4096D01*
X4084Y2070D01*
D02*
G37*
G36*
X4384D02*
X4379D01*
X4367Y2102D01*
X4372D01*
X4380Y2079D01*
Y2079D01*
X4380Y2079D01*
X4380Y2078D01*
X4380Y2078D01*
X4380Y2078D01*
X4380Y2078D01*
X4380Y2077D01*
X4381Y2076D01*
X4381Y2075D01*
X4382Y2073D01*
Y2074D01*
X4382Y2074D01*
X4382Y2074D01*
X4382Y2074D01*
X4382Y2074D01*
X4382Y2075D01*
X4382Y2076D01*
X4383Y2077D01*
X4383Y2078D01*
X4383Y2079D01*
X4392Y2102D01*
X4396D01*
X4384Y2070D01*
D02*
G37*
G36*
X4343Y2102D02*
X4343Y2102D01*
X4344Y2102D01*
X4344Y2102D01*
X4345Y2102D01*
X4346Y2101D01*
X4347Y2101D01*
X4348Y2101D01*
X4348Y2100D01*
X4349Y2100D01*
X4349Y2099D01*
X4350Y2099D01*
X4350Y2099D01*
X4350Y2099D01*
X4350Y2099D01*
X4350Y2099D01*
X4350Y2098D01*
X4351Y2098D01*
X4351Y2098D01*
X4351Y2097D01*
X4352Y2096D01*
X4352Y2095D01*
X4352Y2094D01*
X4352Y2094D01*
X4352Y2093D01*
Y2093D01*
Y2093D01*
X4352Y2092D01*
X4352Y2092D01*
X4352Y2091D01*
X4352Y2091D01*
X4352Y2090D01*
X4351Y2089D01*
X4351Y2089D01*
X4351Y2089D01*
X4351Y2089D01*
X4351Y2088D01*
X4350Y2088D01*
X4350Y2087D01*
X4349Y2086D01*
X4349Y2085D01*
X4349Y2085D01*
X4348Y2085D01*
X4348Y2085D01*
X4348Y2085D01*
X4348Y2084D01*
X4347Y2084D01*
X4347Y2084D01*
X4346Y2083D01*
X4346Y2083D01*
X4345Y2082D01*
X4345Y2082D01*
X4344Y2081D01*
X4344Y2081D01*
X4343Y2080D01*
X4343Y2080D01*
X4343Y2080D01*
X4342Y2080D01*
X4342Y2079D01*
X4342Y2079D01*
X4342Y2079D01*
X4341Y2078D01*
X4340Y2078D01*
X4339Y2077D01*
X4339Y2076D01*
X4338Y2076D01*
X4338Y2076D01*
X4338Y2076D01*
X4338Y2076D01*
X4338Y2075D01*
X4338Y2075D01*
X4337Y2075D01*
X4337Y2075D01*
X4337Y2074D01*
X4352D01*
Y2070D01*
X4331D01*
Y2070D01*
Y2070D01*
Y2071D01*
X4331Y2071D01*
X4331Y2071D01*
X4331Y2072D01*
X4331Y2072D01*
X4332Y2073D01*
Y2073D01*
X4332Y2073D01*
X4332Y2073D01*
X4332Y2073D01*
X4332Y2074D01*
X4333Y2075D01*
X4333Y2075D01*
X4334Y2076D01*
X4334Y2077D01*
Y2077D01*
X4334Y2077D01*
X4335Y2077D01*
X4335Y2078D01*
X4336Y2078D01*
X4336Y2079D01*
X4337Y2080D01*
X4338Y2081D01*
X4339Y2082D01*
X4339Y2082D01*
X4340Y2082D01*
X4340Y2082D01*
X4340Y2082D01*
X4341Y2083D01*
X4341Y2083D01*
X4342Y2084D01*
X4342Y2084D01*
X4343Y2085D01*
X4344Y2086D01*
X4345Y2087D01*
X4345Y2087D01*
X4346Y2088D01*
X4346Y2088D01*
Y2088D01*
X4346Y2089D01*
X4346Y2089D01*
X4347Y2089D01*
X4347Y2089D01*
X4347Y2090D01*
X4348Y2091D01*
X4348Y2091D01*
X4348Y2092D01*
X4348Y2093D01*
Y2093D01*
Y2093D01*
X4348Y2094D01*
X4348Y2094D01*
X4348Y2095D01*
X4348Y2095D01*
X4347Y2096D01*
X4347Y2096D01*
X4346Y2097D01*
X4346Y2097D01*
X4346Y2097D01*
X4346Y2098D01*
X4345Y2098D01*
X4345Y2098D01*
X4344Y2098D01*
X4343Y2099D01*
X4342Y2099D01*
X4342D01*
X4342Y2099D01*
X4341Y2099D01*
X4340Y2098D01*
X4340Y2098D01*
X4339Y2098D01*
X4338Y2098D01*
X4338Y2097D01*
X4337Y2097D01*
X4337Y2097D01*
X4337Y2096D01*
X4337Y2096D01*
X4336Y2095D01*
X4336Y2094D01*
X4336Y2093D01*
X4336Y2092D01*
X4332Y2093D01*
Y2093D01*
X4332Y2093D01*
Y2093D01*
X4332Y2093D01*
X4332Y2094D01*
X4332Y2094D01*
X4332Y2095D01*
X4332Y2095D01*
X4333Y2096D01*
X4333Y2097D01*
X4334Y2098D01*
X4334Y2099D01*
X4335Y2099D01*
X4335Y2100D01*
X4335Y2100D01*
X4335Y2100D01*
X4335Y2100D01*
X4335Y2100D01*
X4336Y2100D01*
X4336Y2100D01*
X4336Y2100D01*
X4337Y2101D01*
X4337Y2101D01*
X4338Y2101D01*
X4339Y2101D01*
X4339Y2102D01*
X4340Y2102D01*
X4341Y2102D01*
X4341Y2102D01*
X4342Y2102D01*
X4343D01*
X4343Y2102D01*
D02*
G37*
G36*
X4241Y2102D02*
X4242Y2102D01*
X4243Y2102D01*
X4243Y2101D01*
X4244Y2101D01*
X4244D01*
X4244Y2101D01*
X4245D01*
X4245Y2101D01*
X4245Y2101D01*
X4246Y2101D01*
X4247Y2100D01*
X4247Y2100D01*
X4248Y2100D01*
X4249Y2099D01*
X4249Y2099D01*
X4249Y2099D01*
X4249Y2099D01*
X4249Y2099D01*
X4250Y2098D01*
X4250Y2098D01*
X4251Y2097D01*
X4252Y2096D01*
X4252Y2095D01*
X4253Y2094D01*
Y2094D01*
X4253Y2093D01*
X4253Y2093D01*
X4253Y2093D01*
X4253Y2093D01*
X4253Y2092D01*
X4253Y2092D01*
X4253Y2091D01*
X4253Y2091D01*
X4253Y2090D01*
X4254Y2089D01*
X4254Y2088D01*
X4254Y2086D01*
Y2086D01*
Y2086D01*
Y2086D01*
Y2085D01*
X4254Y2085D01*
Y2085D01*
X4254Y2084D01*
X4254Y2083D01*
X4254Y2082D01*
X4253Y2081D01*
X4253Y2080D01*
Y2080D01*
X4253Y2079D01*
X4253Y2079D01*
X4253Y2079D01*
X4253Y2079D01*
X4252Y2078D01*
X4252Y2077D01*
X4252Y2077D01*
X4251Y2076D01*
X4251Y2075D01*
X4251Y2075D01*
X4251Y2075D01*
X4250Y2074D01*
X4250Y2074D01*
X4250Y2073D01*
X4249Y2073D01*
X4249Y2073D01*
X4248Y2072D01*
X4248Y2072D01*
X4248Y2072D01*
X4247Y2072D01*
X4247Y2072D01*
X4246Y2071D01*
X4246Y2071D01*
X4245Y2071D01*
X4244Y2071D01*
X4244D01*
X4244Y2070D01*
X4244Y2070D01*
X4243Y2070D01*
X4243Y2070D01*
X4242Y2070D01*
X4241Y2070D01*
X4240Y2070D01*
X4239Y2070D01*
X4228D01*
Y2102D01*
X4240D01*
X4241Y2102D01*
D02*
G37*
G36*
X4221Y2070D02*
X4216D01*
X4200Y2095D01*
Y2070D01*
X4196D01*
Y2102D01*
X4200D01*
X4217Y2077D01*
Y2102D01*
X4221D01*
Y2070D01*
D02*
G37*
G36*
X4322D02*
X4318D01*
Y2095D01*
X4318Y2095D01*
X4318Y2095D01*
X4317Y2094D01*
X4317Y2094D01*
X4316Y2094D01*
X4316Y2093D01*
X4315Y2093D01*
X4314Y2092D01*
X4314D01*
X4314Y2092D01*
X4314Y2092D01*
X4313Y2092D01*
X4313Y2091D01*
X4312Y2091D01*
X4311Y2091D01*
X4311Y2090D01*
X4310Y2090D01*
Y2094D01*
X4310D01*
X4310Y2094D01*
X4310Y2094D01*
X4311Y2094D01*
X4311Y2094D01*
X4311Y2095D01*
X4312Y2095D01*
X4313Y2095D01*
X4314Y2096D01*
X4315Y2097D01*
X4316Y2098D01*
X4316Y2098D01*
X4316Y2098D01*
X4316Y2098D01*
X4316Y2098D01*
X4317Y2098D01*
X4317Y2099D01*
X4318Y2100D01*
X4318Y2100D01*
X4319Y2101D01*
X4319Y2102D01*
X4322D01*
Y2070D01*
D02*
G37*
G36*
X4477Y2102D02*
X4477D01*
X4478Y2102D01*
X4479Y2102D01*
X4480Y2102D01*
X4481Y2102D01*
X4482Y2101D01*
X4482D01*
X4482Y2101D01*
X4482Y2101D01*
X4483Y2101D01*
X4483Y2101D01*
X4484Y2100D01*
X4484Y2100D01*
X4485Y2099D01*
X4486Y2099D01*
X4486Y2098D01*
X4487Y2098D01*
X4487Y2098D01*
X4487Y2097D01*
X4487Y2097D01*
X4488Y2096D01*
X4488Y2095D01*
X4489Y2094D01*
X4489Y2093D01*
X4485Y2092D01*
Y2092D01*
X4485Y2092D01*
X4485Y2092D01*
X4485Y2092D01*
X4485Y2093D01*
X4485Y2093D01*
X4484Y2094D01*
X4484Y2094D01*
X4484Y2095D01*
X4483Y2096D01*
X4483Y2096D01*
X4483Y2096D01*
X4483Y2096D01*
X4483Y2096D01*
X4482Y2097D01*
X4482Y2097D01*
X4481Y2098D01*
X4480Y2098D01*
X4480Y2098D01*
X4480Y2098D01*
X4480Y2098D01*
X4479Y2098D01*
X4478Y2098D01*
X4478Y2099D01*
X4477Y2099D01*
X4476Y2099D01*
X4475D01*
X4475Y2099D01*
X4475D01*
X4474Y2099D01*
X4473Y2099D01*
X4473Y2098D01*
X4472Y2098D01*
X4471Y2098D01*
X4471Y2098D01*
X4471Y2098D01*
X4470Y2097D01*
X4470Y2097D01*
X4469Y2097D01*
X4469Y2096D01*
X4468Y2096D01*
X4468Y2096D01*
X4467Y2095D01*
X4467Y2095D01*
X4467Y2095D01*
X4467Y2095D01*
X4466Y2094D01*
X4466Y2094D01*
X4466Y2093D01*
X4466Y2092D01*
Y2092D01*
X4465Y2092D01*
X4465Y2092D01*
X4465Y2092D01*
X4465Y2092D01*
X4465Y2091D01*
X4465Y2091D01*
X4465Y2090D01*
X4465Y2090D01*
X4464Y2088D01*
X4464Y2087D01*
X4464Y2086D01*
Y2086D01*
Y2086D01*
Y2086D01*
X4464Y2085D01*
Y2085D01*
X4464Y2084D01*
X4464Y2084D01*
X4464Y2083D01*
X4465Y2082D01*
X4465Y2081D01*
X4465Y2080D01*
X4466Y2079D01*
Y2079D01*
X4466Y2079D01*
X4466Y2079D01*
X4466Y2078D01*
X4466Y2078D01*
X4467Y2077D01*
X4467Y2077D01*
X4468Y2076D01*
X4469Y2075D01*
X4470Y2075D01*
X4470D01*
X4470Y2075D01*
X4470Y2074D01*
X4471Y2074D01*
X4471Y2074D01*
X4471Y2074D01*
X4472Y2074D01*
X4473Y2074D01*
X4474Y2073D01*
X4475Y2073D01*
X4476Y2073D01*
X4476D01*
X4477Y2073D01*
X4477D01*
X4478Y2073D01*
X4478Y2073D01*
X4479Y2074D01*
X4480Y2074D01*
X4481Y2074D01*
X4481D01*
X4481Y2074D01*
X4482Y2074D01*
X4482Y2074D01*
X4482Y2075D01*
X4483Y2075D01*
X4483Y2075D01*
X4484Y2076D01*
X4485Y2076D01*
X4485Y2076D01*
Y2082D01*
X4476D01*
Y2086D01*
X4489D01*
Y2074D01*
X4489Y2074D01*
X4489Y2074D01*
X4489Y2074D01*
X4489Y2074D01*
X4489Y2074D01*
X4488Y2074D01*
X4488Y2073D01*
X4487Y2073D01*
X4486Y2072D01*
X4485Y2072D01*
X4484Y2071D01*
X4483Y2071D01*
X4483D01*
X4483Y2071D01*
X4483Y2071D01*
X4482Y2071D01*
X4482Y2070D01*
X4482Y2070D01*
X4481Y2070D01*
X4481Y2070D01*
X4480Y2070D01*
X4479Y2070D01*
X4478Y2069D01*
X4476Y2069D01*
X4476D01*
X4475Y2069D01*
X4475D01*
X4475Y2070D01*
X4474Y2070D01*
X4473Y2070D01*
X4472Y2070D01*
X4471Y2070D01*
X4469Y2071D01*
X4468Y2071D01*
X4468Y2071D01*
X4468Y2071D01*
X4468Y2072D01*
X4467Y2072D01*
X4467Y2072D01*
X4467Y2072D01*
X4466Y2072D01*
X4466Y2073D01*
X4465Y2074D01*
X4464Y2075D01*
X4463Y2076D01*
X4462Y2077D01*
Y2077D01*
X4462Y2077D01*
X4462Y2078D01*
X4462Y2078D01*
X4461Y2078D01*
X4461Y2079D01*
X4461Y2079D01*
X4461Y2080D01*
X4461Y2080D01*
X4461Y2081D01*
X4460Y2082D01*
X4460Y2082D01*
X4460Y2084D01*
X4460Y2086D01*
Y2086D01*
Y2086D01*
Y2086D01*
X4460Y2086D01*
Y2087D01*
X4460Y2087D01*
X4460Y2088D01*
X4460Y2088D01*
X4460Y2089D01*
X4460Y2090D01*
X4461Y2091D01*
X4461Y2093D01*
X4462Y2094D01*
X4462Y2094D01*
X4462Y2095D01*
X4462Y2095D01*
X4462Y2095D01*
X4462Y2095D01*
X4463Y2096D01*
X4463Y2097D01*
X4464Y2098D01*
X4465Y2099D01*
X4466Y2100D01*
X4467Y2100D01*
X4467Y2100D01*
X4468Y2100D01*
X4468Y2100D01*
X4468Y2101D01*
X4468Y2101D01*
X4468Y2101D01*
X4469Y2101D01*
X4469Y2101D01*
X4470Y2101D01*
X4471Y2102D01*
X4471Y2102D01*
X4472Y2102D01*
X4473Y2102D01*
X4474Y2102D01*
X4475Y2102D01*
X4476D01*
X4477Y2102D01*
D02*
G37*
G36*
X4521Y2070D02*
X4516D01*
X4500Y2095D01*
Y2070D01*
X4496D01*
Y2102D01*
X4500D01*
X4517Y2077D01*
Y2102D01*
X4521D01*
Y2070D01*
D02*
G37*
G36*
X3641Y2102D02*
X3642Y2102D01*
X3643Y2102D01*
X3643Y2101D01*
X3644Y2101D01*
X3644D01*
X3644Y2101D01*
X3645D01*
X3645Y2101D01*
X3645Y2101D01*
X3646Y2101D01*
X3647Y2100D01*
X3647Y2100D01*
X3648Y2100D01*
X3649Y2099D01*
X3649Y2099D01*
X3649Y2099D01*
X3649Y2099D01*
X3649Y2099D01*
X3650Y2098D01*
X3650Y2098D01*
X3651Y2097D01*
X3652Y2096D01*
X3652Y2095D01*
X3653Y2094D01*
Y2094D01*
X3653Y2093D01*
X3653Y2093D01*
X3653Y2093D01*
X3653Y2093D01*
X3653Y2092D01*
X3653Y2092D01*
X3653Y2091D01*
X3653Y2091D01*
X3653Y2090D01*
X3654Y2089D01*
X3654Y2088D01*
X3654Y2086D01*
Y2086D01*
Y2086D01*
Y2086D01*
Y2085D01*
X3654Y2085D01*
Y2085D01*
X3654Y2084D01*
X3654Y2083D01*
X3654Y2082D01*
X3653Y2081D01*
X3653Y2080D01*
Y2080D01*
X3653Y2079D01*
X3653Y2079D01*
X3653Y2079D01*
X3653Y2079D01*
X3652Y2078D01*
X3652Y2077D01*
X3652Y2077D01*
X3651Y2076D01*
X3651Y2075D01*
X3651Y2075D01*
X3651Y2075D01*
X3650Y2074D01*
X3650Y2074D01*
X3650Y2073D01*
X3649Y2073D01*
X3649Y2073D01*
X3648Y2072D01*
X3648Y2072D01*
X3648Y2072D01*
X3647Y2072D01*
X3647Y2072D01*
X3646Y2071D01*
X3646Y2071D01*
X3645Y2071D01*
X3644Y2071D01*
X3644D01*
X3644Y2070D01*
X3644Y2070D01*
X3643Y2070D01*
X3643Y2070D01*
X3642Y2070D01*
X3641Y2070D01*
X3640Y2070D01*
X3639Y2070D01*
X3628D01*
Y2102D01*
X3640D01*
X3641Y2102D01*
D02*
G37*
G36*
X3621Y2070D02*
X3616D01*
X3600Y2095D01*
Y2070D01*
X3596D01*
Y2102D01*
X3600D01*
X3617Y2077D01*
Y2102D01*
X3621D01*
Y2070D01*
D02*
G37*
G36*
X3422D02*
X3418D01*
Y2095D01*
X3418Y2095D01*
X3418Y2095D01*
X3417Y2094D01*
X3417Y2094D01*
X3416Y2094D01*
X3416Y2093D01*
X3415Y2093D01*
X3414Y2092D01*
X3414D01*
X3414Y2092D01*
X3414Y2092D01*
X3413Y2092D01*
X3413Y2091D01*
X3412Y2091D01*
X3411Y2091D01*
X3411Y2090D01*
X3410Y2090D01*
Y2094D01*
X3410D01*
X3410Y2094D01*
X3410Y2094D01*
X3411Y2094D01*
X3411Y2094D01*
X3411Y2095D01*
X3412Y2095D01*
X3413Y2095D01*
X3414Y2096D01*
X3415Y2097D01*
X3416Y2098D01*
X3416Y2098D01*
X3416Y2098D01*
X3416Y2098D01*
X3416Y2098D01*
X3417Y2098D01*
X3417Y2099D01*
X3418Y2100D01*
X3418Y2100D01*
X3419Y2101D01*
X3419Y2102D01*
X3422D01*
Y2070D01*
D02*
G37*
G36*
X3577Y2102D02*
X3577D01*
X3578Y2102D01*
X3579Y2102D01*
X3580Y2102D01*
X3581Y2102D01*
X3582Y2101D01*
X3582D01*
X3582Y2101D01*
X3582Y2101D01*
X3583Y2101D01*
X3583Y2101D01*
X3584Y2100D01*
X3584Y2100D01*
X3585Y2099D01*
X3586Y2099D01*
X3586Y2098D01*
X3587Y2098D01*
X3587Y2098D01*
X3587Y2097D01*
X3587Y2097D01*
X3588Y2096D01*
X3588Y2095D01*
X3589Y2094D01*
X3589Y2093D01*
X3585Y2092D01*
Y2092D01*
X3585Y2092D01*
X3585Y2092D01*
X3585Y2092D01*
X3585Y2093D01*
X3585Y2093D01*
X3584Y2094D01*
X3584Y2094D01*
X3584Y2095D01*
X3583Y2096D01*
X3583Y2096D01*
X3583Y2096D01*
X3583Y2096D01*
X3583Y2096D01*
X3582Y2097D01*
X3582Y2097D01*
X3581Y2098D01*
X3580Y2098D01*
X3580Y2098D01*
X3580Y2098D01*
X3580Y2098D01*
X3579Y2098D01*
X3578Y2098D01*
X3578Y2099D01*
X3577Y2099D01*
X3576Y2099D01*
X3575D01*
X3575Y2099D01*
X3575D01*
X3574Y2099D01*
X3573Y2099D01*
X3573Y2098D01*
X3572Y2098D01*
X3571Y2098D01*
X3571Y2098D01*
X3571Y2098D01*
X3570Y2097D01*
X3570Y2097D01*
X3569Y2097D01*
X3569Y2096D01*
X3568Y2096D01*
X3568Y2096D01*
X3567Y2095D01*
X3567Y2095D01*
X3567Y2095D01*
X3567Y2095D01*
X3566Y2094D01*
X3566Y2094D01*
X3566Y2093D01*
X3566Y2092D01*
Y2092D01*
X3565Y2092D01*
X3565Y2092D01*
X3565Y2092D01*
X3565Y2092D01*
X3565Y2091D01*
X3565Y2091D01*
X3565Y2090D01*
X3565Y2090D01*
X3564Y2088D01*
X3564Y2087D01*
X3564Y2086D01*
Y2086D01*
Y2086D01*
Y2086D01*
X3564Y2085D01*
Y2085D01*
X3564Y2084D01*
X3564Y2084D01*
X3564Y2083D01*
X3565Y2082D01*
X3565Y2081D01*
X3565Y2080D01*
X3566Y2079D01*
Y2079D01*
X3566Y2079D01*
X3566Y2079D01*
X3566Y2078D01*
X3566Y2078D01*
X3567Y2077D01*
X3567Y2077D01*
X3568Y2076D01*
X3569Y2075D01*
X3570Y2075D01*
X3570D01*
X3570Y2075D01*
X3570Y2074D01*
X3571Y2074D01*
X3571Y2074D01*
X3571Y2074D01*
X3572Y2074D01*
X3573Y2074D01*
X3574Y2073D01*
X3575Y2073D01*
X3576Y2073D01*
X3576D01*
X3577Y2073D01*
X3577D01*
X3578Y2073D01*
X3578Y2073D01*
X3579Y2074D01*
X3580Y2074D01*
X3581Y2074D01*
X3581D01*
X3581Y2074D01*
X3582Y2074D01*
X3582Y2074D01*
X3582Y2075D01*
X3583Y2075D01*
X3583Y2075D01*
X3584Y2076D01*
X3585Y2076D01*
X3585Y2076D01*
Y2082D01*
X3576D01*
Y2086D01*
X3589D01*
Y2074D01*
X3589Y2074D01*
X3589Y2074D01*
X3589Y2074D01*
X3589Y2074D01*
X3589Y2074D01*
X3588Y2074D01*
X3588Y2073D01*
X3587Y2073D01*
X3586Y2072D01*
X3585Y2072D01*
X3584Y2071D01*
X3583Y2071D01*
X3583D01*
X3583Y2071D01*
X3583Y2071D01*
X3582Y2071D01*
X3582Y2070D01*
X3582Y2070D01*
X3581Y2070D01*
X3581Y2070D01*
X3580Y2070D01*
X3579Y2070D01*
X3578Y2069D01*
X3576Y2069D01*
X3576D01*
X3575Y2069D01*
X3575D01*
X3575Y2070D01*
X3574Y2070D01*
X3573Y2070D01*
X3572Y2070D01*
X3571Y2070D01*
X3569Y2071D01*
X3568Y2071D01*
X3568Y2071D01*
X3568Y2071D01*
X3568Y2072D01*
X3567Y2072D01*
X3567Y2072D01*
X3567Y2072D01*
X3566Y2072D01*
X3566Y2073D01*
X3565Y2074D01*
X3564Y2075D01*
X3563Y2076D01*
X3562Y2077D01*
Y2077D01*
X3562Y2077D01*
X3562Y2078D01*
X3562Y2078D01*
X3561Y2078D01*
X3561Y2079D01*
X3561Y2079D01*
X3561Y2080D01*
X3561Y2080D01*
X3561Y2081D01*
X3560Y2082D01*
X3560Y2082D01*
X3560Y2084D01*
X3560Y2086D01*
Y2086D01*
Y2086D01*
Y2086D01*
X3560Y2086D01*
Y2087D01*
X3560Y2087D01*
X3560Y2088D01*
X3560Y2088D01*
X3560Y2089D01*
X3560Y2090D01*
X3561Y2091D01*
X3561Y2093D01*
X3562Y2094D01*
X3562Y2094D01*
X3562Y2095D01*
X3562Y2095D01*
X3562Y2095D01*
X3562Y2095D01*
X3563Y2096D01*
X3563Y2097D01*
X3564Y2098D01*
X3565Y2099D01*
X3566Y2100D01*
X3567Y2100D01*
X3567Y2100D01*
X3568Y2100D01*
X3568Y2100D01*
X3568Y2101D01*
X3568Y2101D01*
X3568Y2101D01*
X3569Y2101D01*
X3569Y2101D01*
X3570Y2101D01*
X3571Y2102D01*
X3571Y2102D01*
X3572Y2102D01*
X3573Y2102D01*
X3574Y2102D01*
X3575Y2102D01*
X3576D01*
X3577Y2102D01*
D02*
G37*
G36*
X3877D02*
X3877D01*
X3878Y2102D01*
X3879Y2102D01*
X3880Y2102D01*
X3881Y2102D01*
X3882Y2101D01*
X3882D01*
X3882Y2101D01*
X3882Y2101D01*
X3883Y2101D01*
X3883Y2101D01*
X3884Y2100D01*
X3884Y2100D01*
X3885Y2099D01*
X3886Y2099D01*
X3886Y2098D01*
X3887Y2098D01*
X3887Y2098D01*
X3887Y2097D01*
X3887Y2097D01*
X3888Y2096D01*
X3888Y2095D01*
X3889Y2094D01*
X3889Y2093D01*
X3885Y2092D01*
Y2092D01*
X3885Y2092D01*
X3885Y2092D01*
X3885Y2092D01*
X3885Y2093D01*
X3885Y2093D01*
X3884Y2094D01*
X3884Y2094D01*
X3884Y2095D01*
X3883Y2096D01*
X3883Y2096D01*
X3883Y2096D01*
X3883Y2096D01*
X3883Y2096D01*
X3882Y2097D01*
X3882Y2097D01*
X3881Y2098D01*
X3880Y2098D01*
X3880Y2098D01*
X3880Y2098D01*
X3880Y2098D01*
X3879Y2098D01*
X3878Y2098D01*
X3878Y2099D01*
X3877Y2099D01*
X3876Y2099D01*
X3875D01*
X3875Y2099D01*
X3875D01*
X3874Y2099D01*
X3873Y2099D01*
X3873Y2098D01*
X3872Y2098D01*
X3871Y2098D01*
X3871Y2098D01*
X3871Y2098D01*
X3870Y2097D01*
X3870Y2097D01*
X3869Y2097D01*
X3869Y2096D01*
X3868Y2096D01*
X3868Y2096D01*
X3867Y2095D01*
X3867Y2095D01*
X3867Y2095D01*
X3867Y2095D01*
X3866Y2094D01*
X3866Y2094D01*
X3866Y2093D01*
X3866Y2092D01*
Y2092D01*
X3865Y2092D01*
X3865Y2092D01*
X3865Y2092D01*
X3865Y2092D01*
X3865Y2091D01*
X3865Y2091D01*
X3865Y2090D01*
X3865Y2090D01*
X3864Y2088D01*
X3864Y2087D01*
X3864Y2086D01*
Y2086D01*
Y2086D01*
Y2086D01*
X3864Y2085D01*
Y2085D01*
X3864Y2084D01*
X3864Y2084D01*
X3864Y2083D01*
X3865Y2082D01*
X3865Y2081D01*
X3865Y2080D01*
X3866Y2079D01*
Y2079D01*
X3866Y2079D01*
X3866Y2079D01*
X3866Y2078D01*
X3866Y2078D01*
X3867Y2077D01*
X3867Y2077D01*
X3868Y2076D01*
X3869Y2075D01*
X3870Y2075D01*
X3870D01*
X3870Y2075D01*
X3870Y2074D01*
X3871Y2074D01*
X3871Y2074D01*
X3871Y2074D01*
X3872Y2074D01*
X3873Y2074D01*
X3874Y2073D01*
X3875Y2073D01*
X3876Y2073D01*
X3876D01*
X3877Y2073D01*
X3877D01*
X3878Y2073D01*
X3878Y2073D01*
X3879Y2074D01*
X3880Y2074D01*
X3881Y2074D01*
X3881D01*
X3881Y2074D01*
X3882Y2074D01*
X3882Y2074D01*
X3882Y2075D01*
X3883Y2075D01*
X3883Y2075D01*
X3884Y2076D01*
X3885Y2076D01*
X3885Y2076D01*
Y2082D01*
X3876D01*
Y2086D01*
X3889D01*
Y2074D01*
X3889Y2074D01*
X3889Y2074D01*
X3889Y2074D01*
X3889Y2074D01*
X3889Y2074D01*
X3888Y2074D01*
X3888Y2073D01*
X3887Y2073D01*
X3886Y2072D01*
X3885Y2072D01*
X3884Y2071D01*
X3883Y2071D01*
X3883D01*
X3883Y2071D01*
X3883Y2071D01*
X3882Y2071D01*
X3882Y2070D01*
X3882Y2070D01*
X3881Y2070D01*
X3881Y2070D01*
X3880Y2070D01*
X3879Y2070D01*
X3878Y2069D01*
X3876Y2069D01*
X3876D01*
X3875Y2069D01*
X3875D01*
X3875Y2070D01*
X3874Y2070D01*
X3873Y2070D01*
X3872Y2070D01*
X3871Y2070D01*
X3869Y2071D01*
X3868Y2071D01*
X3868Y2071D01*
X3868Y2071D01*
X3868Y2072D01*
X3867Y2072D01*
X3867Y2072D01*
X3867Y2072D01*
X3866Y2072D01*
X3866Y2073D01*
X3865Y2074D01*
X3864Y2075D01*
X3863Y2076D01*
X3862Y2077D01*
Y2077D01*
X3862Y2077D01*
X3862Y2078D01*
X3862Y2078D01*
X3861Y2078D01*
X3861Y2079D01*
X3861Y2079D01*
X3861Y2080D01*
X3861Y2080D01*
X3861Y2081D01*
X3860Y2082D01*
X3860Y2082D01*
X3860Y2084D01*
X3860Y2086D01*
Y2086D01*
Y2086D01*
Y2086D01*
X3860Y2086D01*
Y2087D01*
X3860Y2087D01*
X3860Y2088D01*
X3860Y2088D01*
X3860Y2089D01*
X3860Y2090D01*
X3861Y2091D01*
X3861Y2093D01*
X3862Y2094D01*
X3862Y2094D01*
X3862Y2095D01*
X3862Y2095D01*
X3862Y2095D01*
X3862Y2095D01*
X3863Y2096D01*
X3863Y2097D01*
X3864Y2098D01*
X3865Y2099D01*
X3866Y2100D01*
X3867Y2100D01*
X3867Y2100D01*
X3868Y2100D01*
X3868Y2100D01*
X3868Y2101D01*
X3868Y2101D01*
X3868Y2101D01*
X3869Y2101D01*
X3869Y2101D01*
X3870Y2101D01*
X3871Y2102D01*
X3871Y2102D01*
X3872Y2102D01*
X3873Y2102D01*
X3874Y2102D01*
X3875Y2102D01*
X3876D01*
X3877Y2102D01*
D02*
G37*
G36*
X3921Y2070D02*
X3916D01*
X3900Y2095D01*
Y2070D01*
X3896D01*
Y2102D01*
X3900D01*
X3917Y2077D01*
Y2102D01*
X3921D01*
Y2070D01*
D02*
G37*
G36*
X3722D02*
X3718D01*
Y2095D01*
X3718Y2095D01*
X3718Y2095D01*
X3717Y2094D01*
X3717Y2094D01*
X3716Y2094D01*
X3716Y2093D01*
X3715Y2093D01*
X3714Y2092D01*
X3714D01*
X3714Y2092D01*
X3714Y2092D01*
X3713Y2092D01*
X3713Y2091D01*
X3712Y2091D01*
X3711Y2091D01*
X3711Y2090D01*
X3710Y2090D01*
Y2094D01*
X3710D01*
X3710Y2094D01*
X3710Y2094D01*
X3711Y2094D01*
X3711Y2094D01*
X3711Y2095D01*
X3712Y2095D01*
X3713Y2095D01*
X3714Y2096D01*
X3715Y2097D01*
X3716Y2098D01*
X3716Y2098D01*
X3716Y2098D01*
X3716Y2098D01*
X3716Y2098D01*
X3717Y2098D01*
X3717Y2099D01*
X3718Y2100D01*
X3718Y2100D01*
X3719Y2101D01*
X3719Y2102D01*
X3722D01*
Y2070D01*
D02*
G37*
G36*
X3784D02*
X3779D01*
X3767Y2102D01*
X3772D01*
X3780Y2079D01*
Y2079D01*
X3780Y2079D01*
X3780Y2078D01*
X3780Y2078D01*
X3780Y2078D01*
X3780Y2078D01*
X3780Y2077D01*
X3781Y2076D01*
X3781Y2075D01*
X3782Y2073D01*
Y2074D01*
X3782Y2074D01*
X3782Y2074D01*
X3782Y2074D01*
X3782Y2074D01*
X3782Y2075D01*
X3782Y2076D01*
X3783Y2077D01*
X3783Y2078D01*
X3783Y2079D01*
X3792Y2102D01*
X3796D01*
X3784Y2070D01*
D02*
G37*
G36*
X3743Y2102D02*
X3743Y2102D01*
X3744Y2102D01*
X3744Y2102D01*
X3745Y2102D01*
X3746Y2101D01*
X3747Y2101D01*
X3748Y2101D01*
X3748Y2100D01*
X3749Y2100D01*
X3749Y2099D01*
X3750Y2099D01*
X3750Y2099D01*
X3750Y2099D01*
X3750Y2099D01*
X3750Y2099D01*
X3750Y2098D01*
X3751Y2098D01*
X3751Y2098D01*
X3751Y2097D01*
X3752Y2096D01*
X3752Y2095D01*
X3752Y2094D01*
X3752Y2094D01*
X3752Y2093D01*
Y2093D01*
Y2093D01*
X3752Y2092D01*
X3752Y2092D01*
X3752Y2091D01*
X3752Y2091D01*
X3752Y2090D01*
X3751Y2089D01*
X3751Y2089D01*
X3751Y2089D01*
X3751Y2089D01*
X3751Y2088D01*
X3750Y2088D01*
X3750Y2087D01*
X3749Y2086D01*
X3749Y2085D01*
X3749Y2085D01*
X3748Y2085D01*
X3748Y2085D01*
X3748Y2085D01*
X3748Y2084D01*
X3747Y2084D01*
X3747Y2084D01*
X3746Y2083D01*
X3746Y2083D01*
X3745Y2082D01*
X3745Y2082D01*
X3744Y2081D01*
X3744Y2081D01*
X3743Y2080D01*
X3743Y2080D01*
X3743Y2080D01*
X3742Y2080D01*
X3742Y2079D01*
X3742Y2079D01*
X3742Y2079D01*
X3741Y2078D01*
X3740Y2078D01*
X3739Y2077D01*
X3739Y2076D01*
X3738Y2076D01*
X3738Y2076D01*
X3738Y2076D01*
X3738Y2076D01*
X3738Y2075D01*
X3738Y2075D01*
X3737Y2075D01*
X3737Y2075D01*
X3737Y2074D01*
X3752D01*
Y2070D01*
X3731D01*
Y2070D01*
Y2070D01*
Y2071D01*
X3731Y2071D01*
X3731Y2071D01*
X3731Y2072D01*
X3731Y2072D01*
X3732Y2073D01*
Y2073D01*
X3732Y2073D01*
X3732Y2073D01*
X3732Y2073D01*
X3732Y2074D01*
X3733Y2075D01*
X3733Y2075D01*
X3734Y2076D01*
X3734Y2077D01*
Y2077D01*
X3734Y2077D01*
X3735Y2077D01*
X3735Y2078D01*
X3736Y2078D01*
X3736Y2079D01*
X3737Y2080D01*
X3738Y2081D01*
X3739Y2082D01*
X3739Y2082D01*
X3740Y2082D01*
X3740Y2082D01*
X3740Y2082D01*
X3741Y2083D01*
X3741Y2083D01*
X3742Y2084D01*
X3742Y2084D01*
X3743Y2085D01*
X3744Y2086D01*
X3745Y2087D01*
X3745Y2087D01*
X3746Y2088D01*
X3746Y2088D01*
Y2088D01*
X3746Y2089D01*
X3746Y2089D01*
X3747Y2089D01*
X3747Y2089D01*
X3747Y2090D01*
X3748Y2091D01*
X3748Y2091D01*
X3748Y2092D01*
X3748Y2093D01*
Y2093D01*
Y2093D01*
X3748Y2094D01*
X3748Y2094D01*
X3748Y2095D01*
X3748Y2095D01*
X3747Y2096D01*
X3747Y2096D01*
X3746Y2097D01*
X3746Y2097D01*
X3746Y2097D01*
X3746Y2098D01*
X3745Y2098D01*
X3745Y2098D01*
X3744Y2098D01*
X3743Y2099D01*
X3742Y2099D01*
X3742D01*
X3742Y2099D01*
X3741Y2099D01*
X3740Y2098D01*
X3740Y2098D01*
X3739Y2098D01*
X3738Y2098D01*
X3738Y2097D01*
X3737Y2097D01*
X3737Y2097D01*
X3737Y2096D01*
X3737Y2096D01*
X3736Y2095D01*
X3736Y2094D01*
X3736Y2093D01*
X3736Y2092D01*
X3732Y2093D01*
Y2093D01*
X3732Y2093D01*
Y2093D01*
X3732Y2093D01*
X3732Y2094D01*
X3732Y2094D01*
X3732Y2095D01*
X3732Y2095D01*
X3733Y2096D01*
X3733Y2097D01*
X3734Y2098D01*
X3734Y2099D01*
X3735Y2099D01*
X3735Y2100D01*
X3735Y2100D01*
X3735Y2100D01*
X3735Y2100D01*
X3735Y2100D01*
X3736Y2100D01*
X3736Y2100D01*
X3736Y2100D01*
X3737Y2101D01*
X3737Y2101D01*
X3738Y2101D01*
X3739Y2101D01*
X3739Y2102D01*
X3740Y2102D01*
X3741Y2102D01*
X3741Y2102D01*
X3742Y2102D01*
X3743D01*
X3743Y2102D01*
D02*
G37*
G36*
X4331Y2561D02*
X4332Y2561D01*
X4332Y2561D01*
X4333Y2561D01*
X4333Y2560D01*
X4334Y2560D01*
X4335Y2560D01*
X4335Y2560D01*
X4336Y2559D01*
X4337Y2559D01*
X4337Y2558D01*
X4338Y2558D01*
X4338Y2558D01*
X4338Y2558D01*
X4338Y2557D01*
X4338Y2557D01*
X4338Y2557D01*
X4339Y2557D01*
X4339Y2556D01*
X4339Y2556D01*
X4339Y2555D01*
X4340Y2555D01*
X4340Y2554D01*
X4340Y2553D01*
X4340Y2552D01*
X4340Y2552D01*
X4341Y2551D01*
X4341Y2550D01*
Y2550D01*
Y2550D01*
Y2550D01*
X4341Y2549D01*
X4340Y2549D01*
X4340Y2549D01*
X4340Y2548D01*
X4340Y2548D01*
X4340Y2547D01*
X4339Y2545D01*
X4339Y2545D01*
X4339Y2544D01*
X4338Y2544D01*
X4338Y2543D01*
X4338Y2543D01*
X4338Y2543D01*
X4338Y2543D01*
X4338Y2543D01*
X4337Y2542D01*
X4337Y2542D01*
X4337Y2542D01*
X4336Y2542D01*
X4336Y2541D01*
X4335Y2541D01*
X4334Y2541D01*
X4333Y2540D01*
X4332Y2540D01*
X4332Y2540D01*
X4331Y2544D01*
X4331D01*
X4331Y2544D01*
X4331Y2544D01*
X4332Y2544D01*
X4332Y2544D01*
X4332Y2544D01*
X4333Y2544D01*
X4334Y2545D01*
X4335Y2545D01*
X4335Y2546D01*
X4336Y2546D01*
X4336Y2546D01*
X4336Y2546D01*
X4336Y2547D01*
X4337Y2547D01*
X4337Y2548D01*
X4337Y2548D01*
X4337Y2549D01*
X4337Y2550D01*
Y2550D01*
Y2550D01*
Y2550D01*
X4337Y2551D01*
X4337Y2551D01*
X4337Y2552D01*
X4337Y2552D01*
X4337Y2553D01*
X4336Y2554D01*
X4335Y2555D01*
X4335Y2555D01*
X4335Y2555D01*
X4335Y2555D01*
X4334Y2556D01*
X4333Y2556D01*
X4333Y2556D01*
X4332Y2557D01*
X4331Y2557D01*
X4330D01*
X4330Y2557D01*
X4330Y2557D01*
X4329Y2556D01*
X4328Y2556D01*
X4328Y2556D01*
X4327Y2555D01*
X4326Y2555D01*
X4326Y2555D01*
X4326Y2555D01*
X4326Y2554D01*
X4325Y2554D01*
X4325Y2553D01*
X4325Y2552D01*
X4325Y2551D01*
X4325Y2550D01*
Y2550D01*
Y2550D01*
Y2550D01*
X4325Y2550D01*
X4325Y2549D01*
X4325Y2549D01*
X4325Y2548D01*
X4325Y2548D01*
X4322Y2548D01*
Y2548D01*
Y2548D01*
X4322Y2549D01*
Y2549D01*
Y2549D01*
Y2549D01*
Y2549D01*
Y2549D01*
X4321Y2550D01*
X4321Y2550D01*
X4321Y2551D01*
X4321Y2552D01*
X4321Y2552D01*
X4320Y2553D01*
Y2553D01*
X4320Y2553D01*
X4320Y2554D01*
X4320Y2554D01*
X4319Y2554D01*
X4319Y2555D01*
X4318Y2555D01*
X4317Y2555D01*
X4317Y2555D01*
X4316D01*
X4316Y2555D01*
X4315Y2555D01*
X4314Y2555D01*
X4314Y2555D01*
X4313Y2554D01*
X4313Y2554D01*
X4313Y2554D01*
X4313Y2553D01*
X4312Y2553D01*
X4312Y2553D01*
X4312Y2552D01*
X4312Y2552D01*
X4311Y2551D01*
X4311Y2550D01*
Y2550D01*
Y2550D01*
Y2550D01*
X4311Y2549D01*
X4311Y2549D01*
X4312Y2548D01*
X4312Y2547D01*
X4312Y2547D01*
X4313Y2546D01*
X4313Y2546D01*
X4313Y2546D01*
X4313Y2546D01*
X4314Y2545D01*
X4314Y2545D01*
X4315Y2545D01*
X4316Y2544D01*
X4317Y2544D01*
X4316Y2540D01*
X4316D01*
X4316Y2540D01*
X4316Y2541D01*
X4316Y2541D01*
X4315Y2541D01*
X4315Y2541D01*
X4314Y2541D01*
X4313Y2542D01*
X4312Y2542D01*
X4311Y2543D01*
X4310Y2544D01*
X4310Y2544D01*
X4310Y2544D01*
X4310Y2544D01*
X4310Y2544D01*
X4310Y2544D01*
X4310Y2545D01*
X4309Y2545D01*
X4309Y2545D01*
X4309Y2546D01*
X4308Y2547D01*
X4308Y2549D01*
X4308Y2549D01*
Y2550D01*
Y2550D01*
Y2550D01*
Y2550D01*
Y2550D01*
X4308Y2551D01*
X4308Y2551D01*
X4308Y2552D01*
X4309Y2553D01*
X4309Y2554D01*
X4309Y2555D01*
Y2555D01*
X4309Y2555D01*
X4309Y2555D01*
X4310Y2555D01*
X4310Y2556D01*
X4310Y2556D01*
X4311Y2557D01*
X4312Y2558D01*
X4312Y2558D01*
X4312Y2558D01*
X4313Y2558D01*
X4313Y2558D01*
X4314Y2559D01*
X4314Y2559D01*
X4315Y2559D01*
X4316Y2559D01*
X4316Y2559D01*
X4317D01*
X4317Y2559D01*
X4318Y2559D01*
X4318Y2559D01*
X4319Y2559D01*
X4319Y2558D01*
X4320Y2558D01*
X4320Y2558D01*
X4320Y2558D01*
X4321Y2558D01*
X4321Y2557D01*
X4322Y2557D01*
X4322Y2556D01*
X4322Y2556D01*
X4323Y2555D01*
Y2555D01*
X4323Y2555D01*
X4323Y2555D01*
X4323Y2555D01*
X4323Y2556D01*
X4323Y2556D01*
X4324Y2557D01*
X4324Y2558D01*
X4325Y2559D01*
X4325Y2559D01*
X4326Y2559D01*
X4326Y2559D01*
X4326Y2560D01*
X4327Y2560D01*
X4328Y2560D01*
X4329Y2561D01*
X4330Y2561D01*
X4331Y2561D01*
X4331D01*
X4331Y2561D01*
D02*
G37*
G36*
X2985Y2710D02*
X2985Y2710D01*
X2986Y2710D01*
X2987Y2710D01*
X2988Y2710D01*
X2990Y2710D01*
X2992Y2709D01*
X2993Y2708D01*
X2994Y2708D01*
X2995Y2707D01*
X2996Y2707D01*
X2996Y2707D01*
X2996Y2707D01*
X2996Y2706D01*
X2997Y2706D01*
X2997Y2706D01*
X2998Y2705D01*
X2998Y2705D01*
X2999Y2704D01*
X2999Y2703D01*
X3000Y2702D01*
X3001Y2702D01*
X3001Y2701D01*
X3002Y2700D01*
X3002Y2698D01*
X3003Y2697D01*
X3003Y2696D01*
X2997Y2694D01*
Y2695D01*
X2996Y2695D01*
X2996Y2695D01*
X2996Y2695D01*
X2996Y2696D01*
X2996Y2696D01*
X2995Y2697D01*
X2995Y2699D01*
X2994Y2700D01*
X2993Y2701D01*
X2991Y2702D01*
X2991Y2703D01*
X2991Y2703D01*
X2990Y2703D01*
X2989Y2704D01*
X2988Y2704D01*
X2987Y2705D01*
X2985Y2705D01*
X2983Y2705D01*
X2983D01*
X2982Y2705D01*
X2982D01*
X2981Y2705D01*
X2980Y2705D01*
X2978Y2704D01*
X2977Y2704D01*
X2975Y2703D01*
X2974Y2702D01*
X2974D01*
X2973Y2702D01*
X2973Y2702D01*
X2972Y2701D01*
X2972Y2700D01*
X2971Y2699D01*
X2970Y2698D01*
X2969Y2696D01*
X2968Y2695D01*
Y2695D01*
X2968Y2694D01*
X2968Y2694D01*
X2968Y2694D01*
X2968Y2693D01*
X2968Y2693D01*
X2968Y2692D01*
X2967Y2690D01*
X2967Y2689D01*
X2967Y2687D01*
X2967Y2685D01*
Y2685D01*
Y2685D01*
Y2685D01*
Y2684D01*
X2967Y2684D01*
Y2683D01*
X2967Y2682D01*
X2967Y2681D01*
X2967Y2680D01*
X2968Y2678D01*
X2968Y2676D01*
X2969Y2674D01*
Y2674D01*
X2969Y2674D01*
X2969Y2674D01*
X2969Y2673D01*
X2969Y2672D01*
X2970Y2671D01*
X2971Y2670D01*
X2972Y2669D01*
X2973Y2668D01*
X2974Y2667D01*
X2974D01*
X2974Y2667D01*
X2975Y2667D01*
X2975Y2667D01*
X2975Y2667D01*
X2976Y2666D01*
X2977Y2666D01*
X2978Y2665D01*
X2980Y2665D01*
X2981Y2665D01*
X2983Y2665D01*
X2983D01*
X2984Y2665D01*
X2984D01*
X2985Y2665D01*
X2986Y2665D01*
X2987Y2666D01*
X2989Y2666D01*
X2991Y2667D01*
X2991Y2667D01*
X2992Y2668D01*
X2992Y2668D01*
X2992Y2668D01*
X2992Y2668D01*
X2993Y2668D01*
X2993Y2669D01*
X2993Y2669D01*
X2994Y2670D01*
X2994Y2670D01*
X2995Y2671D01*
X2995Y2672D01*
X2995Y2672D01*
X2996Y2673D01*
X2996Y2674D01*
X2997Y2675D01*
X2997Y2676D01*
X2997Y2677D01*
X3004Y2676D01*
Y2676D01*
X3004Y2675D01*
X3004Y2675D01*
X3003Y2674D01*
X3003Y2674D01*
X3003Y2673D01*
X3003Y2672D01*
X3002Y2671D01*
X3001Y2669D01*
X3000Y2667D01*
X2999Y2666D01*
X2998Y2665D01*
X2997Y2664D01*
X2996Y2663D01*
X2996Y2663D01*
X2996Y2663D01*
X2996Y2663D01*
X2995Y2663D01*
X2995Y2662D01*
X2994Y2662D01*
X2994Y2662D01*
X2993Y2661D01*
X2992Y2661D01*
X2991Y2661D01*
X2990Y2660D01*
X2989Y2660D01*
X2987Y2659D01*
X2986Y2659D01*
X2985Y2659D01*
X2983Y2659D01*
X2983D01*
X2982Y2659D01*
X2981D01*
X2981Y2659D01*
X2980Y2659D01*
X2979Y2660D01*
X2977Y2660D01*
X2974Y2661D01*
X2972Y2661D01*
X2971Y2662D01*
X2970Y2662D01*
X2970Y2662D01*
X2970Y2663D01*
X2970Y2663D01*
X2969Y2663D01*
X2969Y2663D01*
X2969Y2664D01*
X2968Y2664D01*
X2967Y2665D01*
X2967Y2665D01*
X2966Y2666D01*
X2965Y2668D01*
X2964Y2670D01*
X2963Y2672D01*
Y2672D01*
X2962Y2672D01*
X2962Y2672D01*
X2962Y2673D01*
X2962Y2673D01*
X2962Y2674D01*
X2962Y2675D01*
X2961Y2676D01*
X2961Y2677D01*
X2961Y2678D01*
X2960Y2680D01*
X2960Y2683D01*
X2960Y2685D01*
Y2685D01*
Y2686D01*
Y2686D01*
X2960Y2686D01*
Y2687D01*
X2960Y2688D01*
X2960Y2689D01*
X2960Y2690D01*
X2961Y2692D01*
X2961Y2694D01*
X2962Y2696D01*
X2963Y2699D01*
X2963Y2699D01*
X2963Y2699D01*
X2963Y2699D01*
X2964Y2700D01*
X2964Y2700D01*
X2964Y2701D01*
X2965Y2702D01*
X2966Y2703D01*
X2968Y2705D01*
X2969Y2706D01*
X2971Y2707D01*
X2971Y2708D01*
X2972Y2708D01*
X2972Y2708D01*
X2972Y2708D01*
X2973Y2708D01*
X2973Y2708D01*
X2974Y2709D01*
X2975Y2709D01*
X2976Y2709D01*
X2977Y2710D01*
X2979Y2710D01*
X2981Y2710D01*
X2983Y2710D01*
X2984D01*
X2985Y2710D01*
D02*
G37*
G36*
X3027Y2710D02*
X3028Y2710D01*
X3028Y2710D01*
X3029Y2709D01*
X3030Y2709D01*
X3032Y2709D01*
X3034Y2708D01*
X3035Y2708D01*
X3036Y2707D01*
X3036Y2707D01*
X3037Y2706D01*
X3037Y2706D01*
X3037Y2706D01*
X3038Y2705D01*
X3038Y2705D01*
X3038Y2705D01*
X3039Y2704D01*
X3039Y2704D01*
X3039Y2703D01*
X3040Y2702D01*
X3041Y2700D01*
X3041Y2699D01*
X3041Y2698D01*
X3041Y2697D01*
X3041Y2696D01*
Y2696D01*
Y2696D01*
X3041Y2695D01*
X3041Y2694D01*
X3041Y2693D01*
X3041Y2692D01*
X3041Y2691D01*
X3040Y2690D01*
X3040Y2690D01*
X3040Y2690D01*
X3040Y2689D01*
X3039Y2688D01*
X3039Y2687D01*
X3038Y2686D01*
X3037Y2685D01*
X3036Y2684D01*
X3036Y2684D01*
X3036Y2684D01*
X3035Y2683D01*
X3035Y2683D01*
X3034Y2682D01*
X3034Y2682D01*
X3033Y2681D01*
X3033Y2681D01*
X3032Y2680D01*
X3031Y2679D01*
X3030Y2678D01*
X3029Y2677D01*
X3028Y2676D01*
X3027Y2675D01*
X3027Y2675D01*
X3027Y2675D01*
X3026Y2675D01*
X3026Y2675D01*
X3025Y2674D01*
X3025Y2674D01*
X3024Y2673D01*
X3023Y2672D01*
X3021Y2671D01*
X3020Y2670D01*
X3020Y2669D01*
X3020Y2669D01*
X3020Y2669D01*
X3019Y2669D01*
X3019Y2669D01*
X3019Y2668D01*
X3018Y2668D01*
X3018Y2667D01*
X3017Y2666D01*
X3042D01*
Y2660D01*
X3009D01*
Y2660D01*
Y2660D01*
Y2661D01*
X3009Y2661D01*
X3009Y2662D01*
X3009Y2663D01*
X3009Y2663D01*
X3009Y2664D01*
Y2664D01*
X3009Y2664D01*
X3010Y2665D01*
X3010Y2665D01*
X3010Y2666D01*
X3011Y2667D01*
X3012Y2668D01*
X3012Y2670D01*
X3013Y2671D01*
Y2671D01*
X3013Y2671D01*
X3014Y2671D01*
X3014Y2672D01*
X3015Y2673D01*
X3016Y2674D01*
X3018Y2675D01*
X3020Y2677D01*
X3021Y2678D01*
X3021Y2678D01*
X3022Y2679D01*
X3022Y2679D01*
X3023Y2679D01*
X3023Y2680D01*
X3024Y2681D01*
X3025Y2681D01*
X3026Y2682D01*
X3028Y2684D01*
X3029Y2686D01*
X3030Y2686D01*
X3031Y2687D01*
X3032Y2688D01*
X3032Y2689D01*
Y2689D01*
X3032Y2689D01*
X3033Y2689D01*
X3033Y2689D01*
X3033Y2690D01*
X3034Y2691D01*
X3034Y2692D01*
X3035Y2694D01*
X3035Y2695D01*
X3035Y2696D01*
Y2696D01*
Y2696D01*
X3035Y2697D01*
X3035Y2697D01*
X3035Y2698D01*
X3035Y2699D01*
X3034Y2700D01*
X3033Y2701D01*
X3033Y2702D01*
X3032Y2702D01*
X3032Y2703D01*
X3032Y2703D01*
X3031Y2704D01*
X3030Y2704D01*
X3029Y2704D01*
X3027Y2705D01*
X3026Y2705D01*
X3025D01*
X3025Y2705D01*
X3024Y2705D01*
X3023Y2704D01*
X3022Y2704D01*
X3021Y2704D01*
X3020Y2703D01*
X3019Y2702D01*
X3019Y2702D01*
X3018Y2702D01*
X3018Y2701D01*
X3017Y2700D01*
X3017Y2699D01*
X3016Y2698D01*
X3016Y2696D01*
X3016Y2695D01*
X3010Y2695D01*
Y2696D01*
X3010Y2696D01*
Y2696D01*
X3010Y2697D01*
X3010Y2697D01*
X3010Y2698D01*
X3010Y2699D01*
X3011Y2699D01*
X3011Y2701D01*
X3012Y2703D01*
X3013Y2704D01*
X3013Y2705D01*
X3014Y2705D01*
X3015Y2706D01*
X3015Y2706D01*
X3015Y2706D01*
X3015Y2706D01*
X3015Y2707D01*
X3016Y2707D01*
X3016Y2707D01*
X3017Y2708D01*
X3018Y2708D01*
X3018Y2708D01*
X3019Y2709D01*
X3020Y2709D01*
X3021Y2709D01*
X3022Y2709D01*
X3023Y2710D01*
X3025Y2710D01*
X3026Y2710D01*
X3027D01*
X3027Y2710D01*
D02*
G37*
G36*
X2942Y2930D02*
X2942Y2930D01*
X2944Y2929D01*
X2945Y2929D01*
X2946Y2929D01*
X2947Y2928D01*
X2947D01*
X2947Y2928D01*
X2948Y2928D01*
X2948Y2928D01*
X2949Y2927D01*
X2950Y2926D01*
X2951Y2926D01*
X2951Y2925D01*
X2952Y2924D01*
X2952Y2923D01*
X2952Y2923D01*
X2953Y2922D01*
X2953Y2921D01*
X2954Y2920D01*
X2954Y2919D01*
X2955Y2918D01*
X2955Y2916D01*
Y2916D01*
X2955Y2916D01*
X2955Y2916D01*
X2955Y2915D01*
X2955Y2915D01*
X2956Y2914D01*
X2956Y2914D01*
X2956Y2913D01*
X2956Y2912D01*
X2956Y2911D01*
X2956Y2910D01*
X2956Y2909D01*
X2956Y2908D01*
Y2907D01*
X2956Y2906D01*
Y2904D01*
Y2904D01*
Y2904D01*
Y2904D01*
Y2903D01*
X2956Y2902D01*
Y2901D01*
X2956Y2900D01*
X2956Y2899D01*
X2956Y2897D01*
X2956Y2895D01*
X2955Y2892D01*
X2955Y2891D01*
X2954Y2890D01*
Y2890D01*
X2954Y2890D01*
X2954Y2890D01*
X2954Y2889D01*
X2954Y2889D01*
X2954Y2888D01*
X2953Y2887D01*
X2952Y2886D01*
X2951Y2885D01*
X2950Y2883D01*
X2949Y2882D01*
X2949D01*
X2949Y2882D01*
X2949Y2882D01*
X2948Y2882D01*
X2948Y2881D01*
X2948Y2881D01*
X2947Y2881D01*
X2945Y2880D01*
X2944Y2880D01*
X2942Y2879D01*
X2940Y2879D01*
X2939D01*
X2939Y2879D01*
X2938Y2879D01*
X2938Y2879D01*
X2937Y2880D01*
X2936Y2880D01*
X2935Y2880D01*
X2934Y2880D01*
X2933Y2881D01*
X2932Y2881D01*
X2931Y2882D01*
X2930Y2883D01*
X2930Y2883D01*
X2929Y2884D01*
X2929Y2884D01*
X2929Y2885D01*
X2928Y2885D01*
X2928Y2885D01*
X2928Y2886D01*
X2927Y2887D01*
X2927Y2888D01*
X2926Y2889D01*
X2926Y2890D01*
X2925Y2892D01*
X2925Y2894D01*
X2925Y2895D01*
X2924Y2897D01*
X2924Y2900D01*
X2924Y2902D01*
X2924Y2904D01*
Y2905D01*
Y2905D01*
Y2905D01*
Y2906D01*
X2924Y2907D01*
Y2908D01*
X2924Y2908D01*
X2924Y2910D01*
X2924Y2912D01*
X2925Y2914D01*
X2925Y2916D01*
X2925Y2918D01*
X2926Y2919D01*
Y2919D01*
X2926Y2919D01*
X2926Y2919D01*
X2926Y2920D01*
X2926Y2920D01*
X2926Y2921D01*
X2927Y2922D01*
X2928Y2923D01*
X2929Y2924D01*
X2930Y2926D01*
X2931Y2927D01*
X2931D01*
X2931Y2927D01*
X2931Y2927D01*
X2932Y2927D01*
X2932Y2928D01*
X2933Y2928D01*
X2934Y2928D01*
X2935Y2929D01*
X2936Y2929D01*
X2938Y2930D01*
X2940Y2930D01*
X2941D01*
X2942Y2930D01*
D02*
G37*
G36*
X2908Y2880D02*
X2902D01*
Y2919D01*
X2902Y2919D01*
X2902Y2918D01*
X2901Y2918D01*
X2901Y2917D01*
X2900Y2917D01*
X2899Y2916D01*
X2898Y2915D01*
X2896Y2915D01*
X2896D01*
X2896Y2914D01*
X2896Y2914D01*
X2895Y2914D01*
X2894Y2913D01*
X2893Y2913D01*
X2892Y2912D01*
X2891Y2912D01*
X2890Y2911D01*
Y2917D01*
X2890D01*
X2890Y2917D01*
X2891Y2918D01*
X2891Y2918D01*
X2891Y2918D01*
X2892Y2918D01*
X2893Y2919D01*
X2894Y2920D01*
X2896Y2921D01*
X2897Y2922D01*
X2899Y2923D01*
X2899Y2923D01*
X2899Y2923D01*
X2899Y2924D01*
X2900Y2924D01*
X2900Y2924D01*
X2901Y2925D01*
X2902Y2926D01*
X2903Y2927D01*
X2904Y2929D01*
X2904Y2930D01*
X2908D01*
Y2880D01*
D02*
G37*
G36*
X2980Y2930D02*
X2981Y2930D01*
X2982Y2929D01*
X2983Y2929D01*
X2985Y2929D01*
X2986Y2928D01*
X2986D01*
X2986Y2928D01*
X2986Y2928D01*
X2987Y2928D01*
X2987Y2927D01*
X2988Y2926D01*
X2989Y2926D01*
X2990Y2925D01*
X2991Y2924D01*
X2991Y2923D01*
X2991Y2923D01*
X2991Y2922D01*
X2992Y2921D01*
X2992Y2920D01*
X2993Y2919D01*
X2993Y2918D01*
X2994Y2916D01*
Y2916D01*
X2994Y2916D01*
X2994Y2916D01*
X2994Y2915D01*
X2994Y2915D01*
X2994Y2914D01*
X2994Y2914D01*
X2994Y2913D01*
X2994Y2912D01*
X2995Y2911D01*
X2995Y2910D01*
X2995Y2909D01*
X2995Y2908D01*
Y2907D01*
X2995Y2906D01*
Y2904D01*
Y2904D01*
Y2904D01*
Y2904D01*
Y2903D01*
X2995Y2902D01*
Y2901D01*
X2995Y2900D01*
X2995Y2899D01*
X2994Y2897D01*
X2994Y2895D01*
X2994Y2892D01*
X2993Y2891D01*
X2993Y2890D01*
Y2890D01*
X2993Y2890D01*
X2993Y2890D01*
X2993Y2889D01*
X2993Y2889D01*
X2992Y2888D01*
X2992Y2887D01*
X2991Y2886D01*
X2990Y2885D01*
X2989Y2883D01*
X2988Y2882D01*
X2988D01*
X2988Y2882D01*
X2987Y2882D01*
X2987Y2882D01*
X2987Y2881D01*
X2986Y2881D01*
X2985Y2881D01*
X2984Y2880D01*
X2982Y2880D01*
X2981Y2879D01*
X2979Y2879D01*
X2978D01*
X2977Y2879D01*
X2977Y2879D01*
X2976Y2879D01*
X2975Y2880D01*
X2975Y2880D01*
X2974Y2880D01*
X2973Y2880D01*
X2972Y2881D01*
X2971Y2881D01*
X2970Y2882D01*
X2969Y2883D01*
X2968Y2883D01*
X2967Y2884D01*
X2967Y2884D01*
X2967Y2885D01*
X2967Y2885D01*
X2967Y2885D01*
X2966Y2886D01*
X2966Y2887D01*
X2965Y2888D01*
X2965Y2889D01*
X2964Y2890D01*
X2964Y2892D01*
X2964Y2894D01*
X2963Y2895D01*
X2963Y2897D01*
X2963Y2900D01*
X2963Y2902D01*
X2962Y2904D01*
Y2905D01*
Y2905D01*
Y2905D01*
Y2906D01*
X2963Y2907D01*
Y2908D01*
X2963Y2908D01*
X2963Y2910D01*
X2963Y2912D01*
X2963Y2914D01*
X2964Y2916D01*
X2964Y2918D01*
X2964Y2919D01*
Y2919D01*
X2964Y2919D01*
X2964Y2919D01*
X2965Y2920D01*
X2965Y2920D01*
X2965Y2921D01*
X2966Y2922D01*
X2966Y2923D01*
X2967Y2924D01*
X2968Y2926D01*
X2970Y2927D01*
X2970D01*
X2970Y2927D01*
X2970Y2927D01*
X2970Y2927D01*
X2971Y2928D01*
X2971Y2928D01*
X2972Y2928D01*
X2973Y2929D01*
X2975Y2929D01*
X2977Y2930D01*
X2979Y2930D01*
X2979D01*
X2980Y2930D01*
D02*
G37*
G36*
X4747Y3152D02*
X4747D01*
X4748Y3152D01*
X4749Y3152D01*
X4750Y3152D01*
X4751Y3152D01*
X4752Y3151D01*
X4752D01*
X4752Y3151D01*
X4752Y3151D01*
X4753Y3151D01*
X4753Y3151D01*
X4754Y3150D01*
X4754Y3150D01*
X4755Y3149D01*
X4756Y3149D01*
X4756Y3148D01*
X4757Y3148D01*
X4757Y3148D01*
X4757Y3147D01*
X4757Y3147D01*
X4758Y3146D01*
X4758Y3145D01*
X4759Y3144D01*
X4759Y3143D01*
X4755Y3142D01*
Y3142D01*
X4755Y3142D01*
X4755Y3142D01*
X4755Y3142D01*
X4755Y3143D01*
X4755Y3143D01*
X4754Y3144D01*
X4754Y3144D01*
X4754Y3145D01*
X4753Y3146D01*
X4753Y3146D01*
X4753Y3146D01*
X4753Y3146D01*
X4753Y3146D01*
X4752Y3147D01*
X4752Y3147D01*
X4751Y3148D01*
X4750Y3148D01*
X4750Y3148D01*
X4750Y3148D01*
X4750Y3148D01*
X4749Y3148D01*
X4748Y3148D01*
X4748Y3149D01*
X4747Y3149D01*
X4746Y3149D01*
X4745D01*
X4745Y3149D01*
X4745D01*
X4744Y3149D01*
X4743Y3149D01*
X4743Y3148D01*
X4742Y3148D01*
X4741Y3148D01*
X4741Y3148D01*
X4741Y3148D01*
X4740Y3147D01*
X4740Y3147D01*
X4739Y3147D01*
X4739Y3146D01*
X4738Y3146D01*
X4738Y3146D01*
X4737Y3145D01*
X4737Y3145D01*
X4737Y3145D01*
X4737Y3145D01*
X4736Y3144D01*
X4736Y3144D01*
X4736Y3143D01*
X4736Y3142D01*
Y3142D01*
X4735Y3142D01*
X4735Y3142D01*
X4735Y3142D01*
X4735Y3142D01*
X4735Y3141D01*
X4735Y3141D01*
X4735Y3140D01*
X4735Y3140D01*
X4734Y3138D01*
X4734Y3137D01*
X4734Y3136D01*
Y3136D01*
Y3136D01*
Y3136D01*
X4734Y3135D01*
Y3135D01*
X4734Y3134D01*
X4734Y3134D01*
X4734Y3133D01*
X4735Y3132D01*
X4735Y3131D01*
X4735Y3130D01*
X4736Y3129D01*
Y3129D01*
X4736Y3129D01*
X4736Y3129D01*
X4736Y3128D01*
X4736Y3128D01*
X4737Y3127D01*
X4737Y3127D01*
X4738Y3126D01*
X4739Y3125D01*
X4740Y3125D01*
X4740D01*
X4740Y3125D01*
X4740Y3124D01*
X4741Y3124D01*
X4741Y3124D01*
X4741Y3124D01*
X4742Y3124D01*
X4743Y3124D01*
X4744Y3123D01*
X4745Y3123D01*
X4746Y3123D01*
X4746D01*
X4747Y3123D01*
X4747D01*
X4748Y3123D01*
X4748Y3123D01*
X4749Y3124D01*
X4750Y3124D01*
X4751Y3124D01*
X4751D01*
X4751Y3124D01*
X4752Y3124D01*
X4752Y3124D01*
X4752Y3125D01*
X4753Y3125D01*
X4753Y3125D01*
X4754Y3126D01*
X4755Y3126D01*
X4755Y3126D01*
Y3132D01*
X4746D01*
Y3136D01*
X4759D01*
Y3124D01*
X4759Y3124D01*
X4759Y3124D01*
X4759Y3124D01*
X4759Y3124D01*
X4759Y3124D01*
X4758Y3124D01*
X4758Y3123D01*
X4757Y3123D01*
X4756Y3122D01*
X4755Y3122D01*
X4754Y3121D01*
X4753Y3121D01*
X4753D01*
X4753Y3121D01*
X4753Y3121D01*
X4752Y3121D01*
X4752Y3120D01*
X4752Y3120D01*
X4751Y3120D01*
X4751Y3120D01*
X4750Y3120D01*
X4749Y3120D01*
X4748Y3119D01*
X4746Y3119D01*
X4746D01*
X4745Y3119D01*
X4745D01*
X4745Y3120D01*
X4744Y3120D01*
X4743Y3120D01*
X4742Y3120D01*
X4741Y3120D01*
X4739Y3121D01*
X4738Y3121D01*
X4738Y3121D01*
X4738Y3121D01*
X4738Y3122D01*
X4737Y3122D01*
X4737Y3122D01*
X4737Y3122D01*
X4736Y3122D01*
X4736Y3123D01*
X4735Y3124D01*
X4734Y3125D01*
X4733Y3126D01*
X4732Y3127D01*
Y3127D01*
X4732Y3127D01*
X4732Y3128D01*
X4732Y3128D01*
X4731Y3128D01*
X4731Y3129D01*
X4731Y3129D01*
X4731Y3130D01*
X4731Y3130D01*
X4731Y3131D01*
X4730Y3132D01*
X4730Y3132D01*
X4730Y3134D01*
X4730Y3136D01*
Y3136D01*
Y3136D01*
Y3136D01*
X4730Y3136D01*
Y3137D01*
X4730Y3137D01*
X4730Y3138D01*
X4730Y3138D01*
X4730Y3139D01*
X4730Y3140D01*
X4731Y3141D01*
X4731Y3143D01*
X4732Y3144D01*
X4732Y3144D01*
X4732Y3145D01*
X4732Y3145D01*
X4732Y3145D01*
X4732Y3145D01*
X4733Y3146D01*
X4733Y3147D01*
X4734Y3148D01*
X4735Y3149D01*
X4736Y3150D01*
X4737Y3150D01*
X4737Y3150D01*
X4738Y3150D01*
X4738Y3150D01*
X4738Y3151D01*
X4738Y3151D01*
X4738Y3151D01*
X4739Y3151D01*
X4739Y3151D01*
X4740Y3151D01*
X4741Y3152D01*
X4741Y3152D01*
X4742Y3152D01*
X4743Y3152D01*
X4744Y3152D01*
X4745Y3152D01*
X4746D01*
X4747Y3152D01*
D02*
G37*
G36*
X4791Y3120D02*
X4786D01*
X4770Y3145D01*
Y3120D01*
X4766D01*
Y3152D01*
X4770D01*
X4787Y3127D01*
Y3152D01*
X4791D01*
Y3120D01*
D02*
G37*
G36*
X4891Y3152D02*
X4891Y3152D01*
X4892Y3152D01*
X4892Y3152D01*
X4893Y3152D01*
X4894Y3151D01*
X4895Y3151D01*
X4896Y3151D01*
X4896Y3150D01*
X4897Y3150D01*
X4897Y3149D01*
X4897Y3149D01*
X4897Y3149D01*
X4897Y3149D01*
X4897Y3149D01*
X4898Y3149D01*
X4898Y3149D01*
X4898Y3148D01*
X4899Y3147D01*
X4899Y3146D01*
X4900Y3145D01*
X4900Y3144D01*
X4900Y3144D01*
Y3144D01*
Y3143D01*
Y3143D01*
X4900Y3143D01*
X4900Y3142D01*
X4899Y3142D01*
X4899Y3141D01*
X4899Y3140D01*
X4898Y3140D01*
X4898Y3140D01*
X4898Y3139D01*
X4898Y3139D01*
X4898Y3139D01*
X4897Y3138D01*
X4896Y3138D01*
X4896Y3138D01*
X4895Y3137D01*
X4895D01*
X4895Y3137D01*
X4895Y3137D01*
X4895Y3137D01*
X4896Y3137D01*
X4897Y3136D01*
X4897Y3136D01*
X4898Y3135D01*
X4899Y3135D01*
X4899Y3134D01*
Y3134D01*
X4899Y3134D01*
X4900Y3134D01*
X4900Y3133D01*
X4900Y3133D01*
X4900Y3132D01*
X4901Y3131D01*
X4901Y3130D01*
X4901Y3129D01*
Y3129D01*
Y3129D01*
Y3129D01*
X4901Y3128D01*
X4901Y3128D01*
X4901Y3128D01*
X4901Y3127D01*
X4901Y3127D01*
X4900Y3126D01*
X4900Y3125D01*
X4900Y3124D01*
X4899Y3124D01*
X4899Y3123D01*
X4899Y3123D01*
X4898Y3122D01*
X4898Y3122D01*
X4898Y3122D01*
X4898Y3122D01*
X4898Y3122D01*
X4897Y3122D01*
X4897Y3121D01*
X4896Y3121D01*
X4896Y3121D01*
X4896Y3121D01*
X4895Y3120D01*
X4894Y3120D01*
X4894Y3120D01*
X4893Y3120D01*
X4892Y3120D01*
X4891Y3119D01*
X4890Y3119D01*
X4890D01*
X4890Y3119D01*
X4889Y3120D01*
X4889Y3120D01*
X4888Y3120D01*
X4888Y3120D01*
X4887Y3120D01*
X4886Y3120D01*
X4885Y3121D01*
X4885Y3121D01*
X4884Y3121D01*
X4883Y3122D01*
X4883Y3122D01*
X4883Y3122D01*
X4883Y3122D01*
X4883Y3122D01*
X4882Y3123D01*
X4882Y3123D01*
X4882Y3123D01*
X4882Y3124D01*
X4881Y3124D01*
X4881Y3125D01*
X4881Y3125D01*
X4880Y3126D01*
X4880Y3127D01*
X4880Y3128D01*
X4880Y3128D01*
X4880Y3129D01*
Y3129D01*
Y3129D01*
Y3129D01*
X4880Y3130D01*
Y3130D01*
X4880Y3130D01*
X4880Y3131D01*
X4880Y3132D01*
X4881Y3133D01*
X4881Y3133D01*
X4882Y3134D01*
Y3134D01*
X4882Y3134D01*
X4882Y3135D01*
X4882Y3135D01*
X4883Y3135D01*
X4883Y3136D01*
X4884Y3136D01*
X4885Y3137D01*
X4886Y3137D01*
X4886D01*
X4886Y3137D01*
X4886Y3137D01*
X4886Y3137D01*
X4885Y3138D01*
X4885Y3138D01*
X4884Y3138D01*
X4883Y3139D01*
X4883Y3139D01*
X4882Y3140D01*
X4882Y3140D01*
X4882Y3140D01*
X4882Y3140D01*
X4882Y3141D01*
X4882Y3141D01*
X4881Y3142D01*
X4881Y3143D01*
X4881Y3144D01*
Y3144D01*
Y3144D01*
Y3144D01*
X4881Y3144D01*
X4881Y3145D01*
X4881Y3145D01*
X4882Y3146D01*
X4882Y3147D01*
X4882Y3148D01*
X4883Y3148D01*
X4883Y3149D01*
X4883Y3149D01*
X4884Y3150D01*
X4884Y3150D01*
X4884Y3150D01*
X4884Y3150D01*
X4884Y3150D01*
X4884Y3150D01*
X4885Y3150D01*
X4885Y3150D01*
X4886Y3151D01*
X4886Y3151D01*
X4886Y3151D01*
X4887Y3151D01*
X4888Y3152D01*
X4889Y3152D01*
X4890Y3152D01*
X4890Y3152D01*
X4891D01*
X4891Y3152D01*
D02*
G37*
G36*
X4920Y3120D02*
X4915D01*
X4903Y3152D01*
X4908D01*
X4916Y3129D01*
Y3129D01*
X4916Y3129D01*
X4916Y3128D01*
X4916Y3128D01*
X4916Y3128D01*
X4916Y3128D01*
X4916Y3127D01*
X4917Y3126D01*
X4917Y3125D01*
X4918Y3123D01*
Y3124D01*
X4918Y3124D01*
X4918Y3124D01*
X4918Y3124D01*
X4918Y3124D01*
X4918Y3125D01*
X4918Y3126D01*
X4919Y3127D01*
X4919Y3128D01*
X4919Y3129D01*
X4928Y3152D01*
X4932D01*
X4920Y3120D01*
D02*
G37*
G36*
X4992Y2070D02*
X4988D01*
X4975Y2102D01*
X4980D01*
X4988Y2079D01*
Y2079D01*
X4988Y2079D01*
X4988Y2078D01*
X4988Y2078D01*
X4988Y2078D01*
X4989Y2078D01*
X4989Y2077D01*
X4989Y2076D01*
X4989Y2075D01*
X4990Y2073D01*
Y2074D01*
X4990Y2074D01*
X4990Y2074D01*
X4990Y2074D01*
X4990Y2074D01*
X4990Y2075D01*
X4991Y2076D01*
X4991Y2077D01*
X4991Y2078D01*
X4992Y2079D01*
X5000Y2102D01*
X5004D01*
X4992Y2070D01*
D02*
G37*
G36*
X4951Y2102D02*
X4951Y2102D01*
X4952Y2102D01*
X4952Y2102D01*
X4953Y2102D01*
X4954Y2101D01*
X4955Y2101D01*
X4956Y2101D01*
X4956Y2100D01*
X4957Y2100D01*
X4957Y2099D01*
X4957Y2099D01*
X4957Y2099D01*
X4957Y2099D01*
X4957Y2099D01*
X4958Y2099D01*
X4958Y2099D01*
X4958Y2098D01*
X4959Y2097D01*
X4959Y2096D01*
X4960Y2095D01*
X4960Y2094D01*
X4960Y2094D01*
Y2094D01*
Y2093D01*
Y2093D01*
X4960Y2093D01*
X4960Y2092D01*
X4959Y2092D01*
X4959Y2091D01*
X4959Y2090D01*
X4958Y2090D01*
X4958Y2090D01*
X4958Y2089D01*
X4958Y2089D01*
X4958Y2089D01*
X4957Y2088D01*
X4956Y2088D01*
X4956Y2088D01*
X4955Y2087D01*
X4955D01*
X4955Y2087D01*
X4955Y2087D01*
X4955Y2087D01*
X4956Y2087D01*
X4957Y2086D01*
X4957Y2086D01*
X4958Y2085D01*
X4959Y2085D01*
X4959Y2084D01*
Y2084D01*
X4959Y2084D01*
X4960Y2084D01*
X4960Y2083D01*
X4960Y2083D01*
X4960Y2082D01*
X4961Y2081D01*
X4961Y2080D01*
X4961Y2079D01*
Y2079D01*
Y2079D01*
Y2079D01*
X4961Y2078D01*
X4961Y2078D01*
X4961Y2078D01*
X4961Y2077D01*
X4961Y2077D01*
X4960Y2076D01*
X4960Y2075D01*
X4960Y2074D01*
X4959Y2074D01*
X4959Y2073D01*
X4959Y2073D01*
X4958Y2072D01*
X4958Y2072D01*
X4958Y2072D01*
X4958Y2072D01*
X4958Y2072D01*
X4957Y2072D01*
X4957Y2071D01*
X4956Y2071D01*
X4956Y2071D01*
X4956Y2071D01*
X4955Y2070D01*
X4954Y2070D01*
X4954Y2070D01*
X4953Y2070D01*
X4952Y2070D01*
X4951Y2069D01*
X4950Y2069D01*
X4950D01*
X4950Y2069D01*
X4949Y2070D01*
X4949Y2070D01*
X4948Y2070D01*
X4948Y2070D01*
X4947Y2070D01*
X4946Y2070D01*
X4945Y2071D01*
X4945Y2071D01*
X4944Y2071D01*
X4943Y2072D01*
X4943Y2072D01*
X4943Y2072D01*
X4943Y2072D01*
X4943Y2072D01*
X4942Y2073D01*
X4942Y2073D01*
X4942Y2073D01*
X4942Y2074D01*
X4941Y2074D01*
X4941Y2075D01*
X4941Y2075D01*
X4940Y2076D01*
X4940Y2077D01*
X4940Y2078D01*
X4940Y2078D01*
X4940Y2079D01*
Y2079D01*
Y2079D01*
Y2079D01*
X4940Y2080D01*
Y2080D01*
X4940Y2080D01*
X4940Y2081D01*
X4940Y2082D01*
X4941Y2083D01*
X4941Y2083D01*
X4942Y2084D01*
Y2084D01*
X4942Y2084D01*
X4942Y2085D01*
X4942Y2085D01*
X4943Y2085D01*
X4943Y2086D01*
X4944Y2086D01*
X4945Y2087D01*
X4946Y2087D01*
X4946D01*
X4946Y2087D01*
X4946Y2087D01*
X4946Y2087D01*
X4945Y2088D01*
X4945Y2088D01*
X4944Y2088D01*
X4943Y2089D01*
X4943Y2089D01*
X4942Y2090D01*
X4942Y2090D01*
X4942Y2090D01*
X4942Y2090D01*
X4942Y2091D01*
X4942Y2091D01*
X4941Y2092D01*
X4941Y2093D01*
X4941Y2094D01*
Y2094D01*
Y2094D01*
Y2094D01*
X4941Y2094D01*
X4941Y2095D01*
X4941Y2095D01*
X4942Y2096D01*
X4942Y2097D01*
X4942Y2098D01*
X4943Y2098D01*
X4943Y2099D01*
X4943Y2099D01*
X4944Y2100D01*
X4944Y2100D01*
X4944Y2100D01*
X4944Y2100D01*
X4944Y2100D01*
X4944Y2100D01*
X4945Y2100D01*
X4945Y2100D01*
X4946Y2101D01*
X4946Y2101D01*
X4946Y2101D01*
X4947Y2101D01*
X4948Y2102D01*
X4949Y2102D01*
X4950Y2102D01*
X4950Y2102D01*
X4951D01*
X4951Y2102D01*
D02*
G37*
G36*
X2980Y2580D02*
X2981Y2580D01*
X2982Y2579D01*
X2983Y2579D01*
X2985Y2579D01*
X2986Y2578D01*
X2986D01*
X2986Y2578D01*
X2986Y2578D01*
X2987Y2578D01*
X2987Y2577D01*
X2988Y2576D01*
X2989Y2576D01*
X2990Y2575D01*
X2991Y2574D01*
X2991Y2573D01*
X2991Y2573D01*
X2991Y2572D01*
X2992Y2571D01*
X2992Y2570D01*
X2993Y2569D01*
X2993Y2568D01*
X2994Y2566D01*
Y2566D01*
X2994Y2566D01*
X2994Y2566D01*
X2994Y2565D01*
X2994Y2565D01*
X2994Y2564D01*
X2994Y2564D01*
X2994Y2563D01*
X2994Y2562D01*
X2995Y2561D01*
X2995Y2560D01*
X2995Y2559D01*
X2995Y2558D01*
Y2557D01*
X2995Y2556D01*
Y2554D01*
Y2554D01*
Y2554D01*
Y2554D01*
Y2553D01*
X2995Y2552D01*
Y2551D01*
X2995Y2550D01*
X2995Y2549D01*
X2994Y2547D01*
X2994Y2545D01*
X2994Y2542D01*
X2993Y2541D01*
X2993Y2540D01*
Y2540D01*
X2993Y2540D01*
X2993Y2540D01*
X2993Y2539D01*
X2993Y2539D01*
X2992Y2538D01*
X2992Y2537D01*
X2991Y2536D01*
X2990Y2535D01*
X2989Y2533D01*
X2988Y2532D01*
X2988D01*
X2988Y2532D01*
X2987Y2532D01*
X2987Y2532D01*
X2987Y2531D01*
X2986Y2531D01*
X2985Y2531D01*
X2984Y2530D01*
X2982Y2530D01*
X2981Y2529D01*
X2979Y2529D01*
X2978D01*
X2977Y2529D01*
X2977Y2529D01*
X2976Y2529D01*
X2975Y2530D01*
X2975Y2530D01*
X2974Y2530D01*
X2973Y2530D01*
X2972Y2531D01*
X2971Y2531D01*
X2970Y2532D01*
X2969Y2533D01*
X2968Y2533D01*
X2967Y2534D01*
X2967Y2534D01*
X2967Y2535D01*
X2967Y2535D01*
X2967Y2535D01*
X2966Y2536D01*
X2966Y2537D01*
X2965Y2538D01*
X2965Y2539D01*
X2964Y2540D01*
X2964Y2542D01*
X2964Y2544D01*
X2963Y2545D01*
X2963Y2547D01*
X2963Y2550D01*
X2963Y2552D01*
X2962Y2554D01*
Y2555D01*
Y2555D01*
Y2555D01*
Y2556D01*
X2963Y2557D01*
Y2558D01*
X2963Y2558D01*
X2963Y2560D01*
X2963Y2562D01*
X2963Y2564D01*
X2964Y2566D01*
X2964Y2568D01*
X2964Y2569D01*
Y2569D01*
X2964Y2569D01*
X2964Y2569D01*
X2965Y2570D01*
X2965Y2570D01*
X2965Y2571D01*
X2966Y2572D01*
X2966Y2573D01*
X2967Y2574D01*
X2968Y2576D01*
X2970Y2577D01*
X2970D01*
X2970Y2577D01*
X2970Y2577D01*
X2970Y2577D01*
X2971Y2578D01*
X2971Y2578D01*
X2972Y2578D01*
X2973Y2579D01*
X2975Y2579D01*
X2977Y2580D01*
X2979Y2580D01*
X2979D01*
X2980Y2580D01*
D02*
G37*
G36*
X2942D02*
X2942Y2580D01*
X2944Y2579D01*
X2945Y2579D01*
X2946Y2579D01*
X2947Y2578D01*
X2947D01*
X2947Y2578D01*
X2948Y2578D01*
X2948Y2578D01*
X2949Y2577D01*
X2950Y2576D01*
X2951Y2576D01*
X2951Y2575D01*
X2952Y2574D01*
X2952Y2573D01*
X2952Y2573D01*
X2953Y2572D01*
X2953Y2571D01*
X2954Y2570D01*
X2954Y2569D01*
X2955Y2568D01*
X2955Y2566D01*
Y2566D01*
X2955Y2566D01*
X2955Y2566D01*
X2955Y2565D01*
X2955Y2565D01*
X2956Y2564D01*
X2956Y2564D01*
X2956Y2563D01*
X2956Y2562D01*
X2956Y2561D01*
X2956Y2560D01*
X2956Y2559D01*
X2956Y2558D01*
Y2557D01*
X2956Y2556D01*
Y2554D01*
Y2554D01*
Y2554D01*
Y2554D01*
Y2553D01*
X2956Y2552D01*
Y2551D01*
X2956Y2550D01*
X2956Y2549D01*
X2956Y2547D01*
X2956Y2545D01*
X2955Y2542D01*
X2955Y2541D01*
X2954Y2540D01*
Y2540D01*
X2954Y2540D01*
X2954Y2540D01*
X2954Y2539D01*
X2954Y2539D01*
X2954Y2538D01*
X2953Y2537D01*
X2952Y2536D01*
X2951Y2535D01*
X2950Y2533D01*
X2949Y2532D01*
X2949D01*
X2949Y2532D01*
X2949Y2532D01*
X2948Y2532D01*
X2948Y2531D01*
X2948Y2531D01*
X2947Y2531D01*
X2945Y2530D01*
X2944Y2530D01*
X2942Y2529D01*
X2940Y2529D01*
X2939D01*
X2939Y2529D01*
X2938Y2529D01*
X2938Y2529D01*
X2937Y2530D01*
X2936Y2530D01*
X2935Y2530D01*
X2934Y2530D01*
X2933Y2531D01*
X2932Y2531D01*
X2931Y2532D01*
X2930Y2533D01*
X2930Y2533D01*
X2929Y2534D01*
X2929Y2534D01*
X2929Y2535D01*
X2928Y2535D01*
X2928Y2535D01*
X2928Y2536D01*
X2927Y2537D01*
X2927Y2538D01*
X2926Y2539D01*
X2926Y2540D01*
X2925Y2542D01*
X2925Y2544D01*
X2925Y2545D01*
X2924Y2547D01*
X2924Y2550D01*
X2924Y2552D01*
X2924Y2554D01*
Y2555D01*
Y2555D01*
Y2555D01*
Y2556D01*
X2924Y2557D01*
Y2558D01*
X2924Y2558D01*
X2924Y2560D01*
X2924Y2562D01*
X2925Y2564D01*
X2925Y2566D01*
X2925Y2568D01*
X2926Y2569D01*
Y2569D01*
X2926Y2569D01*
X2926Y2569D01*
X2926Y2570D01*
X2926Y2570D01*
X2926Y2571D01*
X2927Y2572D01*
X2928Y2573D01*
X2929Y2574D01*
X2930Y2576D01*
X2931Y2577D01*
X2931D01*
X2931Y2577D01*
X2931Y2577D01*
X2932Y2577D01*
X2932Y2578D01*
X2933Y2578D01*
X2934Y2578D01*
X2935Y2579D01*
X2936Y2579D01*
X2938Y2580D01*
X2940Y2580D01*
X2941D01*
X2942Y2580D01*
D02*
G37*
G36*
X2908Y2530D02*
X2902D01*
Y2569D01*
X2902Y2569D01*
X2902Y2568D01*
X2901Y2568D01*
X2901Y2567D01*
X2900Y2567D01*
X2899Y2566D01*
X2898Y2565D01*
X2896Y2565D01*
X2896D01*
X2896Y2564D01*
X2896Y2564D01*
X2895Y2564D01*
X2894Y2563D01*
X2893Y2563D01*
X2892Y2562D01*
X2891Y2562D01*
X2890Y2561D01*
Y2567D01*
X2890D01*
X2890Y2567D01*
X2891Y2568D01*
X2891Y2568D01*
X2891Y2568D01*
X2892Y2568D01*
X2893Y2569D01*
X2894Y2570D01*
X2896Y2571D01*
X2897Y2572D01*
X2899Y2573D01*
X2899Y2573D01*
X2899Y2573D01*
X2899Y2574D01*
X2900Y2574D01*
X2900Y2574D01*
X2901Y2575D01*
X2902Y2576D01*
X2903Y2577D01*
X2904Y2579D01*
X2904Y2580D01*
X2908D01*
Y2530D01*
D02*
G37*
G36*
X3021Y2567D02*
X3022Y2567D01*
X3023Y2566D01*
X3024Y2566D01*
X3025Y2566D01*
X3026Y2566D01*
X3026Y2565D01*
X3026Y2565D01*
X3027Y2565D01*
X3027Y2565D01*
X3028Y2564D01*
X3028Y2564D01*
X3029Y2563D01*
X3030Y2562D01*
X3030Y2562D01*
X3030Y2562D01*
X3030Y2562D01*
X3030Y2561D01*
X3031Y2561D01*
X3031Y2560D01*
X3031Y2559D01*
X3032Y2558D01*
Y2558D01*
X3032Y2558D01*
X3032Y2557D01*
X3032Y2557D01*
Y2556D01*
X3032Y2555D01*
X3032Y2554D01*
Y2552D01*
Y2530D01*
X3026D01*
Y2552D01*
Y2552D01*
Y2552D01*
Y2552D01*
Y2553D01*
X3026Y2554D01*
X3026Y2555D01*
X3026Y2556D01*
X3025Y2557D01*
X3025Y2557D01*
Y2557D01*
X3025Y2558D01*
X3025Y2558D01*
X3025Y2558D01*
X3024Y2559D01*
X3024Y2559D01*
X3023Y2560D01*
X3023Y2560D01*
X3023Y2560D01*
X3022Y2561D01*
X3022Y2561D01*
X3021Y2561D01*
X3021Y2561D01*
X3020Y2561D01*
X3019Y2561D01*
X3018Y2561D01*
X3018D01*
X3018Y2561D01*
X3017Y2561D01*
X3016Y2561D01*
X3015Y2561D01*
X3014Y2560D01*
X3013Y2560D01*
X3012Y2559D01*
X3012Y2559D01*
X3011Y2558D01*
X3011Y2558D01*
X3011Y2558D01*
X3011Y2557D01*
X3010Y2557D01*
X3010Y2556D01*
X3010Y2556D01*
X3010Y2555D01*
X3009Y2554D01*
X3009Y2553D01*
X3009Y2552D01*
X3009Y2551D01*
Y2550D01*
Y2530D01*
X3003D01*
Y2566D01*
X3008D01*
Y2561D01*
X3008Y2561D01*
X3008Y2561D01*
X3009Y2561D01*
X3009Y2562D01*
X3009Y2562D01*
X3010Y2563D01*
X3010Y2563D01*
X3011Y2564D01*
X3012Y2564D01*
X3013Y2565D01*
X3014Y2565D01*
X3015Y2566D01*
X3016Y2566D01*
X3017Y2566D01*
X3018Y2567D01*
X3020Y2567D01*
X3020D01*
X3021Y2567D01*
D02*
G37*
G36*
X5131Y2102D02*
X5132Y2102D01*
X5133Y2102D01*
X5133Y2101D01*
X5134Y2101D01*
X5134D01*
X5134Y2101D01*
X5135D01*
X5135Y2101D01*
X5135Y2101D01*
X5136Y2101D01*
X5137Y2100D01*
X5137Y2100D01*
X5138Y2100D01*
X5139Y2099D01*
X5139Y2099D01*
X5139Y2099D01*
X5139Y2099D01*
X5139Y2099D01*
X5140Y2098D01*
X5140Y2098D01*
X5141Y2097D01*
X5142Y2096D01*
X5142Y2095D01*
X5143Y2094D01*
Y2094D01*
X5143Y2093D01*
X5143Y2093D01*
X5143Y2093D01*
X5143Y2093D01*
X5143Y2092D01*
X5143Y2092D01*
X5143Y2091D01*
X5143Y2091D01*
X5143Y2090D01*
X5144Y2089D01*
X5144Y2088D01*
X5144Y2086D01*
Y2086D01*
Y2086D01*
Y2086D01*
Y2085D01*
X5144Y2085D01*
Y2085D01*
X5144Y2084D01*
X5144Y2083D01*
X5144Y2082D01*
X5143Y2081D01*
X5143Y2080D01*
Y2080D01*
X5143Y2079D01*
X5143Y2079D01*
X5143Y2079D01*
X5143Y2079D01*
X5142Y2078D01*
X5142Y2077D01*
X5142Y2077D01*
X5141Y2076D01*
X5141Y2075D01*
X5141Y2075D01*
X5141Y2075D01*
X5140Y2074D01*
X5140Y2074D01*
X5140Y2073D01*
X5139Y2073D01*
X5139Y2073D01*
X5138Y2072D01*
X5138Y2072D01*
X5138Y2072D01*
X5137Y2072D01*
X5137Y2072D01*
X5136Y2071D01*
X5136Y2071D01*
X5135Y2071D01*
X5134Y2071D01*
X5134D01*
X5134Y2070D01*
X5134Y2070D01*
X5133Y2070D01*
X5133Y2070D01*
X5132Y2070D01*
X5131Y2070D01*
X5130Y2070D01*
X5129Y2070D01*
X5118D01*
Y2102D01*
X5130D01*
X5131Y2102D01*
D02*
G37*
G36*
X3032Y2880D02*
X3026D01*
Y2885D01*
X3026Y2885D01*
X3026Y2885D01*
X3026Y2885D01*
X3026Y2884D01*
X3025Y2884D01*
X3025Y2883D01*
X3024Y2883D01*
X3023Y2882D01*
X3023Y2882D01*
X3022Y2881D01*
X3021Y2881D01*
X3020Y2880D01*
X3019Y2880D01*
X3017Y2879D01*
X3016Y2879D01*
X3015Y2879D01*
X3014D01*
X3014Y2879D01*
X3013Y2879D01*
X3012Y2879D01*
X3011Y2880D01*
X3010Y2880D01*
X3009Y2880D01*
X3009Y2881D01*
X3009Y2881D01*
X3008Y2881D01*
X3007Y2881D01*
X3007Y2882D01*
X3006Y2882D01*
X3005Y2883D01*
X3005Y2883D01*
X3005Y2884D01*
X3005Y2884D01*
X3004Y2884D01*
X3004Y2885D01*
X3004Y2885D01*
X3004Y2886D01*
X3003Y2887D01*
X3003Y2888D01*
Y2888D01*
X3003Y2888D01*
X3003Y2889D01*
Y2889D01*
X3003Y2890D01*
X3003Y2891D01*
X3003Y2892D01*
Y2894D01*
Y2916D01*
X3009D01*
Y2896D01*
Y2896D01*
Y2896D01*
Y2896D01*
Y2895D01*
Y2894D01*
X3009Y2893D01*
Y2892D01*
X3009Y2891D01*
X3009Y2890D01*
X3009Y2890D01*
Y2889D01*
X3009Y2889D01*
X3009Y2889D01*
X3010Y2888D01*
X3010Y2888D01*
X3010Y2887D01*
X3011Y2886D01*
X3012Y2886D01*
X3012Y2886D01*
X3012Y2886D01*
X3012Y2885D01*
X3013Y2885D01*
X3013Y2885D01*
X3014Y2885D01*
X3015Y2885D01*
X3016Y2884D01*
X3017D01*
X3017Y2885D01*
X3018Y2885D01*
X3019Y2885D01*
X3019Y2885D01*
X3020Y2885D01*
X3021Y2886D01*
X3021Y2886D01*
X3022Y2886D01*
X3022Y2886D01*
X3023Y2887D01*
X3023Y2887D01*
X3024Y2888D01*
X3024Y2889D01*
X3025Y2890D01*
X3025Y2890D01*
X3025Y2890D01*
X3025Y2891D01*
X3025Y2891D01*
X3025Y2892D01*
X3026Y2894D01*
X3026Y2895D01*
X3026Y2897D01*
Y2916D01*
X3032D01*
Y2880D01*
D02*
G37*
G36*
X5067Y2102D02*
X5067D01*
X5068Y2102D01*
X5069Y2102D01*
X5070Y2102D01*
X5071Y2102D01*
X5072Y2101D01*
X5072D01*
X5072Y2101D01*
X5072Y2101D01*
X5073Y2101D01*
X5073Y2101D01*
X5074Y2100D01*
X5074Y2100D01*
X5075Y2099D01*
X5076Y2099D01*
X5076Y2098D01*
X5077Y2098D01*
X5077Y2098D01*
X5077Y2097D01*
X5077Y2097D01*
X5078Y2096D01*
X5078Y2095D01*
X5079Y2094D01*
X5079Y2093D01*
X5075Y2092D01*
Y2092D01*
X5075Y2092D01*
X5075Y2092D01*
X5075Y2092D01*
X5075Y2093D01*
X5075Y2093D01*
X5074Y2094D01*
X5074Y2094D01*
X5074Y2095D01*
X5073Y2096D01*
X5073Y2096D01*
X5073Y2096D01*
X5073Y2096D01*
X5073Y2096D01*
X5072Y2097D01*
X5072Y2097D01*
X5071Y2098D01*
X5070Y2098D01*
X5070Y2098D01*
X5070Y2098D01*
X5070Y2098D01*
X5069Y2098D01*
X5068Y2098D01*
X5068Y2099D01*
X5067Y2099D01*
X5066Y2099D01*
X5065D01*
X5065Y2099D01*
X5065D01*
X5064Y2099D01*
X5063Y2099D01*
X5063Y2098D01*
X5062Y2098D01*
X5061Y2098D01*
X5061Y2098D01*
X5061Y2098D01*
X5060Y2097D01*
X5060Y2097D01*
X5059Y2097D01*
X5059Y2096D01*
X5058Y2096D01*
X5058Y2096D01*
X5057Y2095D01*
X5057Y2095D01*
X5057Y2095D01*
X5057Y2095D01*
X5056Y2094D01*
X5056Y2094D01*
X5056Y2093D01*
X5056Y2092D01*
Y2092D01*
X5055Y2092D01*
X5055Y2092D01*
X5055Y2092D01*
X5055Y2092D01*
X5055Y2091D01*
X5055Y2091D01*
X5055Y2090D01*
X5055Y2090D01*
X5054Y2088D01*
X5054Y2087D01*
X5054Y2086D01*
Y2086D01*
Y2086D01*
Y2086D01*
X5054Y2085D01*
Y2085D01*
X5054Y2084D01*
X5054Y2084D01*
X5054Y2083D01*
X5055Y2082D01*
X5055Y2081D01*
X5055Y2080D01*
X5056Y2079D01*
Y2079D01*
X5056Y2079D01*
X5056Y2079D01*
X5056Y2078D01*
X5056Y2078D01*
X5057Y2077D01*
X5057Y2077D01*
X5058Y2076D01*
X5059Y2075D01*
X5060Y2075D01*
X5060D01*
X5060Y2075D01*
X5060Y2074D01*
X5061Y2074D01*
X5061Y2074D01*
X5061Y2074D01*
X5062Y2074D01*
X5063Y2074D01*
X5064Y2073D01*
X5065Y2073D01*
X5066Y2073D01*
X5066D01*
X5067Y2073D01*
X5067D01*
X5068Y2073D01*
X5068Y2073D01*
X5069Y2074D01*
X5070Y2074D01*
X5071Y2074D01*
X5071D01*
X5071Y2074D01*
X5072Y2074D01*
X5072Y2074D01*
X5072Y2075D01*
X5073Y2075D01*
X5073Y2075D01*
X5074Y2076D01*
X5075Y2076D01*
X5075Y2076D01*
Y2082D01*
X5066D01*
Y2086D01*
X5079D01*
Y2074D01*
X5079Y2074D01*
X5079Y2074D01*
X5079Y2074D01*
X5079Y2074D01*
X5079Y2074D01*
X5078Y2074D01*
X5078Y2073D01*
X5077Y2073D01*
X5076Y2072D01*
X5075Y2072D01*
X5074Y2071D01*
X5073Y2071D01*
X5073D01*
X5073Y2071D01*
X5073Y2071D01*
X5072Y2071D01*
X5072Y2070D01*
X5072Y2070D01*
X5071Y2070D01*
X5071Y2070D01*
X5070Y2070D01*
X5069Y2070D01*
X5068Y2069D01*
X5066Y2069D01*
X5066D01*
X5065Y2069D01*
X5065D01*
X5065Y2070D01*
X5064Y2070D01*
X5063Y2070D01*
X5062Y2070D01*
X5061Y2070D01*
X5059Y2071D01*
X5058Y2071D01*
X5058Y2071D01*
X5058Y2071D01*
X5058Y2072D01*
X5057Y2072D01*
X5057Y2072D01*
X5057Y2072D01*
X5056Y2072D01*
X5056Y2073D01*
X5055Y2074D01*
X5054Y2075D01*
X5053Y2076D01*
X5052Y2077D01*
Y2077D01*
X5052Y2077D01*
X5052Y2078D01*
X5052Y2078D01*
X5051Y2078D01*
X5051Y2079D01*
X5051Y2079D01*
X5051Y2080D01*
X5051Y2080D01*
X5051Y2081D01*
X5050Y2082D01*
X5050Y2082D01*
X5050Y2084D01*
X5050Y2086D01*
Y2086D01*
Y2086D01*
Y2086D01*
X5050Y2086D01*
Y2087D01*
X5050Y2087D01*
X5050Y2088D01*
X5050Y2088D01*
X5050Y2089D01*
X5050Y2090D01*
X5051Y2091D01*
X5051Y2093D01*
X5052Y2094D01*
X5052Y2094D01*
X5052Y2095D01*
X5052Y2095D01*
X5052Y2095D01*
X5052Y2095D01*
X5053Y2096D01*
X5053Y2097D01*
X5054Y2098D01*
X5055Y2099D01*
X5056Y2100D01*
X5057Y2100D01*
X5057Y2100D01*
X5058Y2100D01*
X5058Y2100D01*
X5058Y2101D01*
X5058Y2101D01*
X5058Y2101D01*
X5059Y2101D01*
X5059Y2101D01*
X5060Y2101D01*
X5061Y2102D01*
X5061Y2102D01*
X5062Y2102D01*
X5063Y2102D01*
X5064Y2102D01*
X5065Y2102D01*
X5066D01*
X5067Y2102D01*
D02*
G37*
G36*
X3035Y2327D02*
X3042D01*
Y2322D01*
X3035D01*
Y2310D01*
X3029D01*
Y2322D01*
X3007D01*
Y2327D01*
X3030Y2360D01*
X3035D01*
Y2327D01*
D02*
G37*
G36*
X2985Y2360D02*
X2985Y2360D01*
X2986Y2360D01*
X2987Y2360D01*
X2988Y2360D01*
X2990Y2360D01*
X2992Y2359D01*
X2993Y2358D01*
X2994Y2358D01*
X2995Y2357D01*
X2996Y2357D01*
X2996Y2357D01*
X2996Y2357D01*
X2996Y2356D01*
X2997Y2356D01*
X2997Y2356D01*
X2998Y2355D01*
X2998Y2355D01*
X2999Y2354D01*
X2999Y2353D01*
X3000Y2352D01*
X3001Y2352D01*
X3001Y2351D01*
X3002Y2350D01*
X3002Y2348D01*
X3003Y2347D01*
X3003Y2346D01*
X2997Y2344D01*
Y2345D01*
X2996Y2345D01*
X2996Y2345D01*
X2996Y2345D01*
X2996Y2346D01*
X2996Y2346D01*
X2995Y2347D01*
X2995Y2349D01*
X2994Y2350D01*
X2993Y2351D01*
X2991Y2352D01*
X2991Y2353D01*
X2991Y2353D01*
X2990Y2353D01*
X2989Y2354D01*
X2988Y2354D01*
X2987Y2355D01*
X2985Y2355D01*
X2983Y2355D01*
X2983D01*
X2982Y2355D01*
X2982D01*
X2981Y2355D01*
X2980Y2355D01*
X2978Y2354D01*
X2977Y2354D01*
X2975Y2353D01*
X2974Y2352D01*
X2974D01*
X2973Y2352D01*
X2973Y2352D01*
X2972Y2351D01*
X2972Y2350D01*
X2971Y2349D01*
X2970Y2348D01*
X2969Y2346D01*
X2968Y2345D01*
Y2345D01*
X2968Y2344D01*
X2968Y2344D01*
X2968Y2344D01*
X2968Y2343D01*
X2968Y2343D01*
X2968Y2342D01*
X2967Y2340D01*
X2967Y2339D01*
X2967Y2337D01*
X2967Y2335D01*
Y2335D01*
Y2335D01*
Y2335D01*
Y2334D01*
X2967Y2334D01*
Y2333D01*
X2967Y2332D01*
X2967Y2331D01*
X2967Y2330D01*
X2968Y2328D01*
X2968Y2326D01*
X2969Y2324D01*
Y2324D01*
X2969Y2324D01*
X2969Y2324D01*
X2969Y2323D01*
X2969Y2322D01*
X2970Y2321D01*
X2971Y2320D01*
X2972Y2319D01*
X2973Y2318D01*
X2974Y2317D01*
X2974D01*
X2974Y2317D01*
X2975Y2317D01*
X2975Y2317D01*
X2975Y2317D01*
X2976Y2316D01*
X2977Y2316D01*
X2978Y2315D01*
X2980Y2315D01*
X2981Y2315D01*
X2983Y2315D01*
X2983D01*
X2984Y2315D01*
X2984D01*
X2985Y2315D01*
X2986Y2315D01*
X2987Y2316D01*
X2989Y2316D01*
X2991Y2317D01*
X2991Y2317D01*
X2992Y2318D01*
X2992Y2318D01*
X2992Y2318D01*
X2992Y2318D01*
X2993Y2318D01*
X2993Y2319D01*
X2993Y2319D01*
X2994Y2320D01*
X2994Y2320D01*
X2995Y2321D01*
X2995Y2322D01*
X2995Y2322D01*
X2996Y2323D01*
X2996Y2324D01*
X2997Y2325D01*
X2997Y2326D01*
X2997Y2327D01*
X3004Y2326D01*
Y2326D01*
X3004Y2325D01*
X3004Y2325D01*
X3003Y2324D01*
X3003Y2324D01*
X3003Y2323D01*
X3003Y2322D01*
X3002Y2321D01*
X3001Y2319D01*
X3000Y2317D01*
X2999Y2316D01*
X2998Y2315D01*
X2997Y2314D01*
X2996Y2313D01*
X2996Y2313D01*
X2996Y2313D01*
X2996Y2313D01*
X2995Y2313D01*
X2995Y2312D01*
X2994Y2312D01*
X2994Y2312D01*
X2993Y2311D01*
X2992Y2311D01*
X2991Y2311D01*
X2990Y2310D01*
X2989Y2310D01*
X2987Y2309D01*
X2986Y2309D01*
X2985Y2309D01*
X2983Y2309D01*
X2983D01*
X2982Y2309D01*
X2981D01*
X2981Y2309D01*
X2980Y2309D01*
X2979Y2310D01*
X2977Y2310D01*
X2974Y2311D01*
X2972Y2311D01*
X2971Y2312D01*
X2970Y2312D01*
X2970Y2312D01*
X2970Y2313D01*
X2970Y2313D01*
X2969Y2313D01*
X2969Y2313D01*
X2969Y2314D01*
X2968Y2314D01*
X2967Y2315D01*
X2967Y2315D01*
X2966Y2316D01*
X2965Y2318D01*
X2964Y2320D01*
X2963Y2322D01*
Y2322D01*
X2962Y2322D01*
X2962Y2322D01*
X2962Y2323D01*
X2962Y2323D01*
X2962Y2324D01*
X2962Y2325D01*
X2961Y2326D01*
X2961Y2327D01*
X2961Y2328D01*
X2960Y2330D01*
X2960Y2333D01*
X2960Y2335D01*
Y2335D01*
Y2336D01*
Y2336D01*
X2960Y2336D01*
Y2337D01*
X2960Y2338D01*
X2960Y2339D01*
X2960Y2340D01*
X2961Y2342D01*
X2961Y2344D01*
X2962Y2346D01*
X2963Y2349D01*
X2963Y2349D01*
X2963Y2349D01*
X2963Y2349D01*
X2964Y2350D01*
X2964Y2350D01*
X2964Y2351D01*
X2965Y2352D01*
X2966Y2353D01*
X2968Y2355D01*
X2969Y2356D01*
X2971Y2357D01*
X2971Y2358D01*
X2972Y2358D01*
X2972Y2358D01*
X2972Y2358D01*
X2973Y2358D01*
X2973Y2358D01*
X2974Y2359D01*
X2975Y2359D01*
X2976Y2359D01*
X2977Y2360D01*
X2979Y2360D01*
X2981Y2360D01*
X2983Y2360D01*
X2984D01*
X2985Y2360D01*
D02*
G37*
G36*
X5111Y2070D02*
X5106D01*
X5090Y2095D01*
Y2070D01*
X5086D01*
Y2102D01*
X5090D01*
X5107Y2077D01*
Y2102D01*
X5111D01*
Y2070D01*
D02*
G37*
G36*
X4821D02*
X4816D01*
X4800Y2095D01*
Y2070D01*
X4796D01*
Y2102D01*
X4800D01*
X4817Y2077D01*
Y2102D01*
X4821D01*
Y2070D01*
D02*
G37*
G36*
X4566Y2582D02*
X4566D01*
X4567Y2582D01*
X4568Y2582D01*
X4569Y2582D01*
X4571Y2582D01*
X4572Y2582D01*
X4573Y2581D01*
X4573Y2581D01*
X4573D01*
X4574Y2581D01*
X4574Y2581D01*
X4574Y2581D01*
X4574Y2581D01*
X4575Y2581D01*
X4575Y2580D01*
X4576Y2580D01*
X4577Y2579D01*
X4578Y2579D01*
X4579Y2578D01*
Y2578D01*
X4579Y2578D01*
X4579Y2578D01*
X4579Y2577D01*
X4579Y2577D01*
X4579Y2577D01*
X4580Y2576D01*
X4580Y2575D01*
X4580Y2574D01*
X4580Y2573D01*
X4581Y2572D01*
Y2572D01*
Y2572D01*
Y2572D01*
X4581Y2571D01*
X4580Y2571D01*
X4580Y2570D01*
X4580Y2570D01*
X4580Y2569D01*
X4580Y2569D01*
X4580Y2568D01*
X4579Y2568D01*
X4579Y2567D01*
X4579Y2566D01*
X4578Y2566D01*
X4578Y2565D01*
X4577Y2565D01*
X4577Y2565D01*
X4577Y2565D01*
X4577Y2565D01*
X4577Y2564D01*
X4576Y2564D01*
X4576Y2564D01*
X4575Y2564D01*
X4574Y2563D01*
X4573Y2563D01*
X4572Y2563D01*
X4571Y2562D01*
X4570Y2562D01*
X4569Y2562D01*
X4567Y2562D01*
X4566Y2562D01*
X4564Y2562D01*
X4563D01*
X4563Y2562D01*
X4562D01*
X4562Y2562D01*
X4561Y2562D01*
X4560Y2562D01*
X4558Y2562D01*
X4557Y2562D01*
X4556Y2563D01*
X4555Y2563D01*
X4555D01*
X4555Y2563D01*
X4555Y2563D01*
X4555Y2563D01*
X4554Y2563D01*
X4554Y2563D01*
X4553Y2564D01*
X4552Y2564D01*
X4552Y2565D01*
X4551Y2565D01*
X4550Y2566D01*
Y2566D01*
X4550Y2566D01*
X4550Y2567D01*
X4550Y2567D01*
X4550Y2567D01*
X4549Y2567D01*
X4549Y2568D01*
X4549Y2569D01*
X4548Y2570D01*
X4548Y2571D01*
X4548Y2572D01*
Y2572D01*
Y2572D01*
Y2572D01*
Y2572D01*
X4548Y2573D01*
X4548Y2574D01*
X4548Y2574D01*
X4549Y2575D01*
X4549Y2576D01*
X4549Y2577D01*
Y2577D01*
X4549Y2577D01*
X4549Y2577D01*
X4550Y2577D01*
X4550Y2578D01*
X4550Y2578D01*
X4551Y2579D01*
X4551Y2579D01*
X4552Y2580D01*
X4552Y2580D01*
X4552Y2580D01*
X4553Y2580D01*
X4553Y2580D01*
X4554Y2581D01*
X4555Y2581D01*
X4556Y2581D01*
X4557Y2582D01*
X4557D01*
X4557Y2582D01*
X4557Y2582D01*
X4557Y2582D01*
X4558Y2582D01*
X4558Y2582D01*
X4558Y2582D01*
X4559Y2582D01*
X4559Y2582D01*
X4560Y2582D01*
X4561Y2582D01*
X4561Y2582D01*
X4562Y2582D01*
X4563D01*
X4563Y2582D01*
X4565D01*
X4566Y2582D01*
D02*
G37*
G36*
Y2607D02*
X4566D01*
X4567Y2607D01*
X4568Y2607D01*
X4569Y2607D01*
X4571Y2607D01*
X4572Y2606D01*
X4573Y2606D01*
X4573Y2606D01*
X4573D01*
X4574Y2606D01*
X4574Y2606D01*
X4574Y2606D01*
X4574Y2606D01*
X4575Y2605D01*
X4575Y2605D01*
X4576Y2605D01*
X4577Y2604D01*
X4578Y2603D01*
X4579Y2603D01*
Y2602D01*
X4579Y2602D01*
X4579Y2602D01*
X4579Y2602D01*
X4579Y2602D01*
X4579Y2602D01*
X4580Y2601D01*
X4580Y2600D01*
X4580Y2599D01*
X4580Y2598D01*
X4581Y2597D01*
Y2597D01*
Y2597D01*
Y2596D01*
X4581Y2596D01*
X4580Y2596D01*
X4580Y2595D01*
X4580Y2595D01*
X4580Y2594D01*
X4580Y2594D01*
X4580Y2593D01*
X4579Y2592D01*
X4579Y2592D01*
X4579Y2591D01*
X4578Y2591D01*
X4578Y2590D01*
X4577Y2590D01*
X4577Y2589D01*
X4577Y2589D01*
X4577Y2589D01*
X4577Y2589D01*
X4576Y2589D01*
X4576Y2589D01*
X4575Y2588D01*
X4574Y2588D01*
X4573Y2588D01*
X4572Y2587D01*
X4571Y2587D01*
X4570Y2587D01*
X4569Y2587D01*
X4567Y2587D01*
X4566Y2586D01*
X4564Y2586D01*
X4563D01*
X4563Y2586D01*
X4562D01*
X4562Y2586D01*
X4561Y2587D01*
X4560Y2587D01*
X4558Y2587D01*
X4557Y2587D01*
X4556Y2587D01*
X4555Y2588D01*
X4555D01*
X4555Y2588D01*
X4555Y2588D01*
X4555Y2588D01*
X4554Y2588D01*
X4554Y2588D01*
X4553Y2588D01*
X4552Y2589D01*
X4552Y2589D01*
X4551Y2590D01*
X4550Y2591D01*
Y2591D01*
X4550Y2591D01*
X4550Y2591D01*
X4550Y2591D01*
X4550Y2592D01*
X4549Y2592D01*
X4549Y2593D01*
X4549Y2593D01*
X4548Y2594D01*
X4548Y2596D01*
X4548Y2597D01*
Y2597D01*
Y2597D01*
Y2597D01*
Y2597D01*
X4548Y2598D01*
X4548Y2598D01*
X4548Y2599D01*
X4549Y2600D01*
X4549Y2600D01*
X4549Y2601D01*
Y2601D01*
X4549Y2601D01*
X4549Y2602D01*
X4550Y2602D01*
X4550Y2602D01*
X4550Y2603D01*
X4551Y2603D01*
X4551Y2604D01*
X4552Y2604D01*
X4552Y2604D01*
X4552Y2605D01*
X4553Y2605D01*
X4553Y2605D01*
X4554Y2605D01*
X4555Y2606D01*
X4556Y2606D01*
X4557Y2606D01*
X4557D01*
X4557Y2606D01*
X4557Y2607D01*
X4557Y2607D01*
X4558Y2607D01*
X4558Y2607D01*
X4558Y2607D01*
X4559Y2607D01*
X4559Y2607D01*
X4560Y2607D01*
X4561Y2607D01*
X4561Y2607D01*
X4562Y2607D01*
X4563D01*
X4563Y2607D01*
X4565D01*
X4566Y2607D01*
D02*
G37*
G36*
X5040Y2548D02*
X5015D01*
X5015Y2548D01*
X5015Y2548D01*
X5016Y2547D01*
X5016Y2547D01*
X5016Y2546D01*
X5017Y2546D01*
X5017Y2545D01*
X5018Y2544D01*
Y2544D01*
X5018Y2544D01*
X5018Y2544D01*
X5018Y2543D01*
X5019Y2543D01*
X5019Y2542D01*
X5019Y2541D01*
X5020Y2541D01*
X5020Y2540D01*
X5016D01*
Y2540D01*
X5016Y2540D01*
X5016Y2540D01*
X5016Y2541D01*
X5016Y2541D01*
X5015Y2541D01*
X5015Y2542D01*
X5015Y2543D01*
X5014Y2544D01*
X5013Y2545D01*
X5012Y2546D01*
X5012Y2546D01*
X5012Y2546D01*
X5012Y2546D01*
X5012Y2546D01*
X5012Y2547D01*
X5011Y2547D01*
X5010Y2548D01*
X5010Y2548D01*
X5009Y2549D01*
X5008Y2549D01*
Y2552D01*
X5040D01*
Y2548D01*
D02*
G37*
G36*
X4580Y2627D02*
X4565D01*
X4565Y2627D01*
X4564Y2627D01*
X4564Y2627D01*
X4563Y2627D01*
X4562Y2627D01*
X4562D01*
X4562Y2626D01*
X4562Y2626D01*
X4562Y2626D01*
X4562Y2626D01*
X4561Y2626D01*
X4561Y2625D01*
X4561Y2625D01*
X4561Y2625D01*
X4560Y2625D01*
X4560Y2624D01*
X4560Y2624D01*
X4560Y2624D01*
X4560Y2623D01*
X4560Y2623D01*
X4560Y2622D01*
Y2622D01*
Y2622D01*
Y2622D01*
X4560Y2622D01*
X4560Y2621D01*
X4560Y2621D01*
X4560Y2620D01*
X4561Y2619D01*
X4561Y2619D01*
X4561Y2618D01*
X4562Y2618D01*
X4562Y2618D01*
X4562Y2617D01*
X4562Y2617D01*
X4562Y2617D01*
X4563Y2617D01*
X4563Y2617D01*
X4564Y2617D01*
X4564Y2617D01*
X4565Y2616D01*
X4565Y2616D01*
X4566Y2616D01*
X4567Y2616D01*
X4580D01*
Y2612D01*
X4557D01*
Y2616D01*
X4560D01*
X4560Y2616D01*
X4560Y2616D01*
X4560Y2616D01*
X4560Y2616D01*
X4559Y2616D01*
X4559Y2617D01*
X4559Y2617D01*
X4558Y2618D01*
X4558Y2618D01*
X4558Y2619D01*
X4557Y2619D01*
X4557Y2620D01*
X4557Y2621D01*
X4557Y2621D01*
X4556Y2622D01*
X4556Y2623D01*
Y2623D01*
Y2623D01*
Y2623D01*
X4556Y2624D01*
X4557Y2624D01*
X4557Y2625D01*
X4557Y2625D01*
X4557Y2626D01*
X4557Y2627D01*
X4557Y2627D01*
X4557Y2627D01*
X4558Y2627D01*
X4558Y2628D01*
X4558Y2628D01*
X4558Y2629D01*
X4559Y2629D01*
X4559Y2629D01*
X4559Y2629D01*
X4559Y2630D01*
X4560Y2630D01*
X4560Y2630D01*
X4560Y2630D01*
X4561Y2630D01*
X4561Y2631D01*
X4562Y2631D01*
X4562D01*
X4562Y2631D01*
X4563Y2631D01*
X4563Y2631D01*
X4563D01*
X4564Y2631D01*
X4565Y2631D01*
X4580D01*
Y2627D01*
D02*
G37*
G36*
X4326Y2610D02*
X4326D01*
X4327Y2610D01*
X4328Y2610D01*
X4329Y2610D01*
X4331Y2610D01*
X4332Y2609D01*
X4333Y2609D01*
X4333Y2609D01*
X4333D01*
X4334Y2609D01*
X4334Y2609D01*
X4334Y2609D01*
X4334Y2609D01*
X4335Y2608D01*
X4335Y2608D01*
X4336Y2608D01*
X4337Y2607D01*
X4338Y2606D01*
X4339Y2605D01*
Y2605D01*
X4339Y2605D01*
X4339Y2605D01*
X4339Y2605D01*
X4339Y2605D01*
X4339Y2605D01*
X4340Y2604D01*
X4340Y2603D01*
X4340Y2602D01*
X4340Y2601D01*
X4341Y2600D01*
Y2600D01*
Y2600D01*
Y2599D01*
X4341Y2599D01*
X4340Y2599D01*
X4340Y2598D01*
X4340Y2598D01*
X4340Y2597D01*
X4340Y2597D01*
X4340Y2596D01*
X4339Y2595D01*
X4339Y2595D01*
X4339Y2594D01*
X4338Y2594D01*
X4338Y2593D01*
X4337Y2592D01*
X4337Y2592D01*
X4337Y2592D01*
X4337Y2592D01*
X4337Y2592D01*
X4336Y2592D01*
X4336Y2592D01*
X4335Y2591D01*
X4334Y2591D01*
X4333Y2591D01*
X4332Y2590D01*
X4331Y2590D01*
X4330Y2590D01*
X4329Y2590D01*
X4327Y2589D01*
X4326Y2589D01*
X4324Y2589D01*
X4323D01*
X4323Y2589D01*
X4322D01*
X4322Y2589D01*
X4321Y2589D01*
X4320Y2590D01*
X4318Y2590D01*
X4317Y2590D01*
X4316Y2590D01*
X4315Y2590D01*
X4315D01*
X4315Y2591D01*
X4315Y2591D01*
X4315Y2591D01*
X4314Y2591D01*
X4314Y2591D01*
X4313Y2591D01*
X4312Y2592D01*
X4312Y2592D01*
X4311Y2593D01*
X4310Y2594D01*
Y2594D01*
X4310Y2594D01*
X4310Y2594D01*
X4310Y2594D01*
X4310Y2595D01*
X4309Y2595D01*
X4309Y2596D01*
X4309Y2596D01*
X4308Y2597D01*
X4308Y2598D01*
X4308Y2600D01*
Y2600D01*
Y2600D01*
Y2600D01*
Y2600D01*
X4308Y2601D01*
X4308Y2601D01*
X4308Y2602D01*
X4309Y2603D01*
X4309Y2603D01*
X4309Y2604D01*
Y2604D01*
X4309Y2604D01*
X4309Y2604D01*
X4310Y2605D01*
X4310Y2605D01*
X4310Y2606D01*
X4311Y2606D01*
X4311Y2607D01*
X4312Y2607D01*
X4312Y2607D01*
X4312Y2608D01*
X4313Y2608D01*
X4313Y2608D01*
X4314Y2608D01*
X4315Y2609D01*
X4316Y2609D01*
X4317Y2609D01*
X4317D01*
X4317Y2609D01*
X4317Y2609D01*
X4317Y2609D01*
X4318Y2610D01*
X4318Y2610D01*
X4318Y2610D01*
X4319Y2610D01*
X4319Y2610D01*
X4320Y2610D01*
X4321Y2610D01*
X4321Y2610D01*
X4322Y2610D01*
X4323D01*
X4323Y2610D01*
X4325D01*
X4326Y2610D01*
D02*
G37*
G36*
X4331Y2585D02*
X4332Y2585D01*
X4332Y2585D01*
X4333Y2585D01*
X4333Y2585D01*
X4334Y2585D01*
X4335Y2584D01*
X4335Y2584D01*
X4336Y2584D01*
X4337Y2583D01*
X4337Y2583D01*
X4338Y2582D01*
X4338Y2582D01*
X4338Y2582D01*
X4338Y2582D01*
X4338Y2582D01*
X4338Y2582D01*
X4339Y2581D01*
X4339Y2581D01*
X4339Y2580D01*
X4339Y2580D01*
X4340Y2579D01*
X4340Y2579D01*
X4340Y2578D01*
X4340Y2577D01*
X4340Y2576D01*
X4341Y2576D01*
X4341Y2575D01*
Y2575D01*
Y2575D01*
Y2574D01*
X4341Y2574D01*
X4340Y2574D01*
X4340Y2573D01*
X4340Y2573D01*
X4340Y2572D01*
X4340Y2571D01*
X4339Y2570D01*
X4339Y2569D01*
X4339Y2569D01*
X4338Y2568D01*
X4338Y2568D01*
X4338Y2568D01*
X4338Y2568D01*
X4338Y2568D01*
X4338Y2567D01*
X4337Y2567D01*
X4337Y2567D01*
X4337Y2567D01*
X4336Y2566D01*
X4336Y2566D01*
X4335Y2566D01*
X4334Y2565D01*
X4333Y2565D01*
X4332Y2565D01*
X4332Y2565D01*
X4331Y2569D01*
X4331D01*
X4331Y2569D01*
X4331Y2569D01*
X4332Y2569D01*
X4332Y2569D01*
X4332Y2569D01*
X4333Y2569D01*
X4334Y2569D01*
X4335Y2570D01*
X4335Y2570D01*
X4336Y2571D01*
X4336Y2571D01*
X4336Y2571D01*
X4336Y2571D01*
X4337Y2572D01*
X4337Y2572D01*
X4337Y2573D01*
X4337Y2574D01*
X4337Y2575D01*
Y2575D01*
Y2575D01*
Y2575D01*
X4337Y2575D01*
X4337Y2576D01*
X4337Y2576D01*
X4337Y2577D01*
X4337Y2578D01*
X4336Y2579D01*
X4335Y2579D01*
X4335Y2580D01*
X4335Y2580D01*
X4335Y2580D01*
X4334Y2580D01*
X4333Y2581D01*
X4333Y2581D01*
X4332Y2581D01*
X4331Y2581D01*
X4330D01*
X4330Y2581D01*
X4330Y2581D01*
X4329Y2581D01*
X4328Y2581D01*
X4328Y2581D01*
X4327Y2580D01*
X4326Y2580D01*
X4326Y2579D01*
X4326Y2579D01*
X4326Y2579D01*
X4325Y2578D01*
X4325Y2578D01*
X4325Y2577D01*
X4325Y2576D01*
X4325Y2575D01*
Y2575D01*
Y2575D01*
Y2575D01*
X4325Y2574D01*
X4325Y2574D01*
X4325Y2574D01*
X4325Y2573D01*
X4325Y2572D01*
X4322Y2573D01*
Y2573D01*
Y2573D01*
X4322Y2573D01*
Y2573D01*
Y2573D01*
Y2574D01*
Y2574D01*
Y2574D01*
X4321Y2574D01*
X4321Y2575D01*
X4321Y2576D01*
X4321Y2576D01*
X4321Y2577D01*
X4320Y2578D01*
Y2578D01*
X4320Y2578D01*
X4320Y2578D01*
X4320Y2579D01*
X4319Y2579D01*
X4319Y2579D01*
X4318Y2580D01*
X4317Y2580D01*
X4317Y2580D01*
X4316D01*
X4316Y2580D01*
X4315Y2580D01*
X4314Y2580D01*
X4314Y2579D01*
X4313Y2579D01*
X4313Y2578D01*
X4313Y2578D01*
X4313Y2578D01*
X4312Y2578D01*
X4312Y2577D01*
X4312Y2577D01*
X4312Y2576D01*
X4311Y2576D01*
X4311Y2575D01*
Y2575D01*
Y2575D01*
Y2574D01*
X4311Y2574D01*
X4311Y2573D01*
X4312Y2573D01*
X4312Y2572D01*
X4312Y2572D01*
X4313Y2571D01*
X4313Y2571D01*
X4313Y2571D01*
X4313Y2570D01*
X4314Y2570D01*
X4314Y2570D01*
X4315Y2569D01*
X4316Y2569D01*
X4317Y2569D01*
X4316Y2565D01*
X4316D01*
X4316Y2565D01*
X4316Y2565D01*
X4316Y2565D01*
X4315Y2565D01*
X4315Y2565D01*
X4314Y2566D01*
X4313Y2566D01*
X4312Y2567D01*
X4311Y2567D01*
X4310Y2568D01*
X4310Y2568D01*
X4310Y2568D01*
X4310Y2569D01*
X4310Y2569D01*
X4310Y2569D01*
X4310Y2569D01*
X4309Y2570D01*
X4309Y2570D01*
X4309Y2571D01*
X4308Y2572D01*
X4308Y2573D01*
X4308Y2574D01*
Y2575D01*
Y2575D01*
Y2575D01*
Y2575D01*
Y2575D01*
X4308Y2576D01*
X4308Y2576D01*
X4308Y2577D01*
X4309Y2578D01*
X4309Y2579D01*
X4309Y2579D01*
Y2579D01*
X4309Y2579D01*
X4309Y2580D01*
X4310Y2580D01*
X4310Y2581D01*
X4310Y2581D01*
X4311Y2582D01*
X4312Y2582D01*
X4312Y2583D01*
X4312Y2583D01*
X4313Y2583D01*
X4313Y2583D01*
X4314Y2583D01*
X4314Y2584D01*
X4315Y2584D01*
X4316Y2584D01*
X4316Y2584D01*
X4317D01*
X4317Y2584D01*
X4318Y2584D01*
X4318Y2584D01*
X4319Y2583D01*
X4319Y2583D01*
X4320Y2583D01*
X4320Y2583D01*
X4320Y2583D01*
X4321Y2582D01*
X4321Y2582D01*
X4322Y2581D01*
X4322Y2581D01*
X4322Y2580D01*
X4323Y2580D01*
Y2580D01*
X4323Y2580D01*
X4323Y2580D01*
X4323Y2580D01*
X4323Y2580D01*
X4323Y2581D01*
X4324Y2582D01*
X4324Y2583D01*
X4325Y2583D01*
X4325Y2584D01*
X4326Y2584D01*
X4326Y2584D01*
X4326Y2584D01*
X4327Y2585D01*
X4328Y2585D01*
X4329Y2585D01*
X4330Y2585D01*
X4331Y2585D01*
X4331D01*
X4331Y2585D01*
D02*
G37*
G36*
X4777Y2102D02*
X4777D01*
X4778Y2102D01*
X4779Y2102D01*
X4780Y2102D01*
X4781Y2102D01*
X4782Y2101D01*
X4782D01*
X4782Y2101D01*
X4782Y2101D01*
X4783Y2101D01*
X4783Y2101D01*
X4784Y2100D01*
X4784Y2100D01*
X4785Y2099D01*
X4786Y2099D01*
X4786Y2098D01*
X4787Y2098D01*
X4787Y2098D01*
X4787Y2097D01*
X4787Y2097D01*
X4788Y2096D01*
X4788Y2095D01*
X4789Y2094D01*
X4789Y2093D01*
X4785Y2092D01*
Y2092D01*
X4785Y2092D01*
X4785Y2092D01*
X4785Y2092D01*
X4785Y2093D01*
X4785Y2093D01*
X4784Y2094D01*
X4784Y2094D01*
X4784Y2095D01*
X4783Y2096D01*
X4783Y2096D01*
X4783Y2096D01*
X4783Y2096D01*
X4783Y2096D01*
X4782Y2097D01*
X4782Y2097D01*
X4781Y2098D01*
X4780Y2098D01*
X4780Y2098D01*
X4780Y2098D01*
X4780Y2098D01*
X4779Y2098D01*
X4778Y2098D01*
X4778Y2099D01*
X4777Y2099D01*
X4776Y2099D01*
X4775D01*
X4775Y2099D01*
X4775D01*
X4774Y2099D01*
X4773Y2099D01*
X4773Y2098D01*
X4772Y2098D01*
X4771Y2098D01*
X4771Y2098D01*
X4771Y2098D01*
X4770Y2097D01*
X4770Y2097D01*
X4769Y2097D01*
X4769Y2096D01*
X4768Y2096D01*
X4768Y2096D01*
X4767Y2095D01*
X4767Y2095D01*
X4767Y2095D01*
X4767Y2095D01*
X4766Y2094D01*
X4766Y2094D01*
X4766Y2093D01*
X4766Y2092D01*
Y2092D01*
X4765Y2092D01*
X4765Y2092D01*
X4765Y2092D01*
X4765Y2092D01*
X4765Y2091D01*
X4765Y2091D01*
X4765Y2090D01*
X4765Y2090D01*
X4764Y2088D01*
X4764Y2087D01*
X4764Y2086D01*
Y2086D01*
Y2086D01*
Y2086D01*
X4764Y2085D01*
Y2085D01*
X4764Y2084D01*
X4764Y2084D01*
X4764Y2083D01*
X4765Y2082D01*
X4765Y2081D01*
X4765Y2080D01*
X4766Y2079D01*
Y2079D01*
X4766Y2079D01*
X4766Y2079D01*
X4766Y2078D01*
X4766Y2078D01*
X4767Y2077D01*
X4767Y2077D01*
X4768Y2076D01*
X4769Y2075D01*
X4770Y2075D01*
X4770D01*
X4770Y2075D01*
X4770Y2074D01*
X4771Y2074D01*
X4771Y2074D01*
X4771Y2074D01*
X4772Y2074D01*
X4773Y2074D01*
X4774Y2073D01*
X4775Y2073D01*
X4776Y2073D01*
X4776D01*
X4777Y2073D01*
X4777D01*
X4778Y2073D01*
X4778Y2073D01*
X4779Y2074D01*
X4780Y2074D01*
X4781Y2074D01*
X4781D01*
X4781Y2074D01*
X4782Y2074D01*
X4782Y2074D01*
X4782Y2075D01*
X4783Y2075D01*
X4783Y2075D01*
X4784Y2076D01*
X4785Y2076D01*
X4785Y2076D01*
Y2082D01*
X4776D01*
Y2086D01*
X4789D01*
Y2074D01*
X4789Y2074D01*
X4789Y2074D01*
X4789Y2074D01*
X4789Y2074D01*
X4789Y2074D01*
X4788Y2074D01*
X4788Y2073D01*
X4787Y2073D01*
X4786Y2072D01*
X4785Y2072D01*
X4784Y2071D01*
X4783Y2071D01*
X4783D01*
X4783Y2071D01*
X4783Y2071D01*
X4782Y2071D01*
X4782Y2070D01*
X4782Y2070D01*
X4781Y2070D01*
X4781Y2070D01*
X4780Y2070D01*
X4779Y2070D01*
X4778Y2069D01*
X4776Y2069D01*
X4776D01*
X4775Y2069D01*
X4775D01*
X4775Y2070D01*
X4774Y2070D01*
X4773Y2070D01*
X4772Y2070D01*
X4771Y2070D01*
X4769Y2071D01*
X4768Y2071D01*
X4768Y2071D01*
X4768Y2071D01*
X4768Y2072D01*
X4767Y2072D01*
X4767Y2072D01*
X4767Y2072D01*
X4766Y2072D01*
X4766Y2073D01*
X4765Y2074D01*
X4764Y2075D01*
X4763Y2076D01*
X4762Y2077D01*
Y2077D01*
X4762Y2077D01*
X4762Y2078D01*
X4762Y2078D01*
X4761Y2078D01*
X4761Y2079D01*
X4761Y2079D01*
X4761Y2080D01*
X4761Y2080D01*
X4761Y2081D01*
X4760Y2082D01*
X4760Y2082D01*
X4760Y2084D01*
X4760Y2086D01*
Y2086D01*
Y2086D01*
Y2086D01*
X4760Y2086D01*
Y2087D01*
X4760Y2087D01*
X4760Y2088D01*
X4760Y2088D01*
X4760Y2089D01*
X4760Y2090D01*
X4761Y2091D01*
X4761Y2093D01*
X4762Y2094D01*
X4762Y2094D01*
X4762Y2095D01*
X4762Y2095D01*
X4762Y2095D01*
X4762Y2095D01*
X4763Y2096D01*
X4763Y2097D01*
X4764Y2098D01*
X4765Y2099D01*
X4766Y2100D01*
X4767Y2100D01*
X4767Y2100D01*
X4768Y2100D01*
X4768Y2100D01*
X4768Y2101D01*
X4768Y2101D01*
X4768Y2101D01*
X4769Y2101D01*
X4769Y2101D01*
X4770Y2101D01*
X4771Y2102D01*
X4771Y2102D01*
X4772Y2102D01*
X4773Y2102D01*
X4774Y2102D01*
X4775Y2102D01*
X4776D01*
X4777Y2102D01*
D02*
G37*
G36*
X4580Y2548D02*
X4555D01*
X4555Y2548D01*
X4555Y2548D01*
X4556Y2547D01*
X4556Y2547D01*
X4556Y2546D01*
X4557Y2546D01*
X4557Y2545D01*
X4558Y2544D01*
Y2544D01*
X4558Y2544D01*
X4558Y2544D01*
X4558Y2543D01*
X4559Y2543D01*
X4559Y2542D01*
X4559Y2541D01*
X4560Y2541D01*
X4560Y2540D01*
X4556D01*
Y2540D01*
X4556Y2540D01*
X4556Y2540D01*
X4556Y2541D01*
X4556Y2541D01*
X4555Y2541D01*
X4555Y2542D01*
X4555Y2543D01*
X4554Y2544D01*
X4553Y2545D01*
X4552Y2546D01*
X4552Y2546D01*
X4552Y2546D01*
X4552Y2546D01*
X4552Y2546D01*
X4552Y2547D01*
X4551Y2547D01*
X4550Y2548D01*
X4550Y2548D01*
X4549Y2549D01*
X4548Y2549D01*
Y2552D01*
X4580D01*
Y2548D01*
D02*
G37*
G36*
X4340Y2630D02*
X4325D01*
X4325Y2630D01*
X4324Y2630D01*
X4324Y2630D01*
X4323Y2630D01*
X4322Y2629D01*
X4322D01*
X4322Y2629D01*
X4322Y2629D01*
X4322Y2629D01*
X4322Y2629D01*
X4321Y2629D01*
X4321Y2628D01*
X4321Y2628D01*
X4321Y2628D01*
X4320Y2628D01*
X4320Y2627D01*
X4320Y2627D01*
X4320Y2627D01*
X4320Y2626D01*
X4320Y2626D01*
X4320Y2625D01*
Y2625D01*
Y2625D01*
Y2625D01*
X4320Y2625D01*
X4320Y2624D01*
X4320Y2624D01*
X4320Y2623D01*
X4321Y2622D01*
X4321Y2622D01*
X4321Y2621D01*
X4322Y2621D01*
X4322Y2621D01*
X4322Y2620D01*
X4322Y2620D01*
X4322Y2620D01*
X4323Y2620D01*
X4323Y2620D01*
X4324Y2620D01*
X4324Y2619D01*
X4325Y2619D01*
X4325Y2619D01*
X4326Y2619D01*
X4327Y2619D01*
X4340D01*
Y2615D01*
X4317D01*
Y2619D01*
X4320D01*
X4320Y2619D01*
X4320Y2619D01*
X4320Y2619D01*
X4320Y2619D01*
X4319Y2619D01*
X4319Y2620D01*
X4319Y2620D01*
X4318Y2621D01*
X4318Y2621D01*
X4318Y2622D01*
X4317Y2622D01*
X4317Y2623D01*
X4317Y2623D01*
X4317Y2624D01*
X4316Y2625D01*
X4316Y2626D01*
Y2626D01*
Y2626D01*
Y2626D01*
X4316Y2627D01*
X4317Y2627D01*
X4317Y2628D01*
X4317Y2628D01*
X4317Y2629D01*
X4317Y2630D01*
X4317Y2630D01*
X4317Y2630D01*
X4318Y2630D01*
X4318Y2631D01*
X4318Y2631D01*
X4318Y2632D01*
X4319Y2632D01*
X4319Y2632D01*
X4319Y2632D01*
X4319Y2632D01*
X4320Y2633D01*
X4320Y2633D01*
X4320Y2633D01*
X4321Y2633D01*
X4321Y2633D01*
X4322Y2634D01*
X4322D01*
X4322Y2634D01*
X4323Y2634D01*
X4323Y2634D01*
X4323D01*
X4324Y2634D01*
X4325Y2634D01*
X4340D01*
Y2630D01*
D02*
G37*
G36*
X4643Y3152D02*
X4643Y3152D01*
X4644Y3152D01*
X4644Y3152D01*
X4645Y3152D01*
X4646Y3151D01*
X4647Y3151D01*
X4648Y3151D01*
X4648Y3150D01*
X4649Y3150D01*
X4649Y3149D01*
X4650Y3149D01*
X4650Y3149D01*
X4650Y3149D01*
X4650Y3149D01*
X4650Y3149D01*
X4650Y3148D01*
X4651Y3148D01*
X4651Y3148D01*
X4651Y3147D01*
X4652Y3146D01*
X4652Y3145D01*
X4652Y3144D01*
X4652Y3144D01*
X4652Y3143D01*
Y3143D01*
Y3143D01*
X4652Y3142D01*
X4652Y3142D01*
X4652Y3141D01*
X4652Y3141D01*
X4652Y3140D01*
X4651Y3139D01*
X4651Y3139D01*
X4651Y3139D01*
X4651Y3139D01*
X4651Y3138D01*
X4650Y3138D01*
X4650Y3137D01*
X4649Y3136D01*
X4649Y3135D01*
X4649Y3135D01*
X4648Y3135D01*
X4648Y3135D01*
X4648Y3135D01*
X4648Y3134D01*
X4647Y3134D01*
X4647Y3134D01*
X4646Y3133D01*
X4646Y3133D01*
X4645Y3132D01*
X4645Y3132D01*
X4644Y3131D01*
X4644Y3131D01*
X4643Y3130D01*
X4643Y3130D01*
X4643Y3130D01*
X4642Y3130D01*
X4642Y3129D01*
X4642Y3129D01*
X4642Y3129D01*
X4641Y3128D01*
X4640Y3128D01*
X4639Y3127D01*
X4639Y3126D01*
X4638Y3126D01*
X4638Y3126D01*
X4638Y3126D01*
X4638Y3126D01*
X4638Y3125D01*
X4638Y3125D01*
X4637Y3125D01*
X4637Y3125D01*
X4637Y3124D01*
X4652D01*
Y3120D01*
X4631D01*
Y3120D01*
Y3120D01*
Y3121D01*
X4631Y3121D01*
X4631Y3121D01*
X4631Y3122D01*
X4631Y3122D01*
X4632Y3123D01*
Y3123D01*
X4632Y3123D01*
X4632Y3123D01*
X4632Y3123D01*
X4632Y3124D01*
X4633Y3125D01*
X4633Y3125D01*
X4634Y3126D01*
X4634Y3127D01*
Y3127D01*
X4634Y3127D01*
X4635Y3127D01*
X4635Y3128D01*
X4636Y3128D01*
X4636Y3129D01*
X4637Y3130D01*
X4638Y3131D01*
X4639Y3132D01*
X4639Y3132D01*
X4640Y3132D01*
X4640Y3132D01*
X4640Y3132D01*
X4641Y3133D01*
X4641Y3133D01*
X4642Y3134D01*
X4642Y3134D01*
X4643Y3135D01*
X4644Y3136D01*
X4645Y3137D01*
X4645Y3137D01*
X4646Y3138D01*
X4646Y3138D01*
Y3138D01*
X4646Y3139D01*
X4646Y3139D01*
X4647Y3139D01*
X4647Y3139D01*
X4647Y3140D01*
X4648Y3141D01*
X4648Y3141D01*
X4648Y3142D01*
X4648Y3143D01*
Y3143D01*
Y3143D01*
X4648Y3144D01*
X4648Y3144D01*
X4648Y3145D01*
X4648Y3145D01*
X4647Y3146D01*
X4647Y3146D01*
X4646Y3147D01*
X4646Y3147D01*
X4646Y3147D01*
X4646Y3148D01*
X4645Y3148D01*
X4645Y3148D01*
X4644Y3148D01*
X4643Y3149D01*
X4642Y3149D01*
X4642D01*
X4642Y3149D01*
X4641Y3149D01*
X4640Y3148D01*
X4640Y3148D01*
X4639Y3148D01*
X4638Y3148D01*
X4638Y3147D01*
X4637Y3147D01*
X4637Y3147D01*
X4637Y3146D01*
X4637Y3146D01*
X4636Y3145D01*
X4636Y3144D01*
X4636Y3143D01*
X4636Y3142D01*
X4632Y3143D01*
Y3143D01*
X4632Y3143D01*
Y3143D01*
X4632Y3143D01*
X4632Y3144D01*
X4632Y3144D01*
X4632Y3145D01*
X4632Y3145D01*
X4633Y3146D01*
X4633Y3147D01*
X4634Y3148D01*
X4634Y3149D01*
X4635Y3149D01*
X4635Y3150D01*
X4635Y3150D01*
X4635Y3150D01*
X4635Y3150D01*
X4635Y3150D01*
X4636Y3150D01*
X4636Y3150D01*
X4636Y3150D01*
X4637Y3151D01*
X4637Y3151D01*
X4638Y3151D01*
X4639Y3151D01*
X4639Y3152D01*
X4640Y3152D01*
X4641Y3152D01*
X4641Y3152D01*
X4642Y3152D01*
X4643D01*
X4643Y3152D01*
D02*
G37*
G36*
X4622Y3120D02*
X4618D01*
Y3145D01*
X4618Y3145D01*
X4618Y3145D01*
X4617Y3144D01*
X4617Y3144D01*
X4616Y3144D01*
X4616Y3143D01*
X4615Y3143D01*
X4614Y3142D01*
X4614D01*
X4614Y3142D01*
X4614Y3142D01*
X4613Y3142D01*
X4613Y3141D01*
X4612Y3141D01*
X4611Y3141D01*
X4611Y3140D01*
X4610Y3140D01*
Y3144D01*
X4610D01*
X4610Y3144D01*
X4610Y3144D01*
X4611Y3144D01*
X4611Y3144D01*
X4611Y3145D01*
X4612Y3145D01*
X4613Y3145D01*
X4614Y3146D01*
X4615Y3147D01*
X4616Y3148D01*
X4616Y3148D01*
X4616Y3148D01*
X4616Y3148D01*
X4616Y3148D01*
X4617Y3148D01*
X4617Y3149D01*
X4618Y3150D01*
X4618Y3150D01*
X4619Y3151D01*
X4619Y3152D01*
X4622D01*
Y3120D01*
D02*
G37*
G36*
X4811Y3152D02*
X4812Y3152D01*
X4813Y3152D01*
X4813Y3151D01*
X4814Y3151D01*
X4814D01*
X4814Y3151D01*
X4815D01*
X4815Y3151D01*
X4815Y3151D01*
X4816Y3151D01*
X4817Y3150D01*
X4817Y3150D01*
X4818Y3150D01*
X4819Y3149D01*
X4819Y3149D01*
X4819Y3149D01*
X4819Y3149D01*
X4819Y3149D01*
X4820Y3148D01*
X4820Y3148D01*
X4821Y3147D01*
X4822Y3146D01*
X4822Y3145D01*
X4823Y3144D01*
Y3144D01*
X4823Y3143D01*
X4823Y3143D01*
X4823Y3143D01*
X4823Y3143D01*
X4823Y3142D01*
X4823Y3142D01*
X4823Y3141D01*
X4823Y3141D01*
X4823Y3140D01*
X4824Y3139D01*
X4824Y3138D01*
X4824Y3136D01*
Y3136D01*
Y3136D01*
Y3136D01*
Y3135D01*
X4824Y3135D01*
Y3135D01*
X4824Y3134D01*
X4824Y3133D01*
X4824Y3132D01*
X4823Y3131D01*
X4823Y3130D01*
Y3130D01*
X4823Y3129D01*
X4823Y3129D01*
X4823Y3129D01*
X4823Y3129D01*
X4822Y3128D01*
X4822Y3127D01*
X4822Y3127D01*
X4821Y3126D01*
X4821Y3125D01*
X4821Y3125D01*
X4821Y3125D01*
X4820Y3124D01*
X4820Y3124D01*
X4820Y3123D01*
X4819Y3123D01*
X4819Y3123D01*
X4818Y3122D01*
X4818Y3122D01*
X4818Y3122D01*
X4817Y3122D01*
X4817Y3122D01*
X4816Y3121D01*
X4816Y3121D01*
X4815Y3121D01*
X4814Y3121D01*
X4814D01*
X4814Y3120D01*
X4814Y3120D01*
X4813Y3120D01*
X4813Y3120D01*
X4812Y3120D01*
X4811Y3120D01*
X4810Y3120D01*
X4809Y3120D01*
X4798D01*
Y3152D01*
X4810D01*
X4811Y3152D01*
D02*
G37*
G36*
X4671Y3120D02*
X4667D01*
X4655Y3152D01*
X4659D01*
X4668Y3129D01*
Y3129D01*
X4668Y3129D01*
X4668Y3128D01*
X4668Y3128D01*
X4668Y3128D01*
X4668Y3128D01*
X4668Y3127D01*
X4668Y3126D01*
X4669Y3125D01*
X4669Y3123D01*
Y3124D01*
X4669Y3124D01*
X4669Y3124D01*
X4669Y3124D01*
X4669Y3124D01*
X4670Y3125D01*
X4670Y3126D01*
X4670Y3127D01*
X4671Y3128D01*
X4671Y3129D01*
X4680Y3152D01*
X4684D01*
X4671Y3120D01*
D02*
G37*
G36*
X5040Y2615D02*
X5037D01*
X5037Y2615D01*
X5037Y2615D01*
X5037Y2615D01*
X5037Y2614D01*
X5038Y2614D01*
X5038Y2614D01*
X5038Y2613D01*
X5039Y2613D01*
X5039Y2613D01*
X5039Y2612D01*
X5040Y2611D01*
X5040Y2611D01*
X5040Y2610D01*
X5040Y2609D01*
X5040Y2608D01*
X5041Y2608D01*
Y2608D01*
Y2607D01*
X5040Y2607D01*
X5040Y2606D01*
X5040Y2606D01*
X5040Y2605D01*
X5040Y2604D01*
X5040Y2604D01*
X5040Y2604D01*
X5040Y2604D01*
X5039Y2603D01*
X5039Y2603D01*
X5039Y2602D01*
X5039Y2602D01*
X5038Y2602D01*
X5038Y2601D01*
X5038Y2601D01*
X5038Y2601D01*
X5037Y2601D01*
X5037Y2601D01*
X5037Y2600D01*
X5036Y2600D01*
X5036Y2600D01*
X5035Y2600D01*
X5035D01*
X5035Y2600D01*
X5034Y2600D01*
X5034D01*
X5033Y2600D01*
X5033Y2600D01*
X5032Y2600D01*
X5017D01*
Y2604D01*
X5031D01*
X5031Y2604D01*
X5032D01*
X5033Y2604D01*
X5033Y2604D01*
X5034Y2604D01*
X5034D01*
X5034Y2604D01*
X5034Y2604D01*
X5035Y2604D01*
X5035Y2604D01*
X5036Y2605D01*
X5036Y2605D01*
X5036Y2605D01*
X5036Y2605D01*
X5036Y2606D01*
X5037Y2606D01*
X5037Y2606D01*
X5037Y2607D01*
X5037Y2607D01*
X5037Y2608D01*
X5037Y2608D01*
Y2608D01*
Y2609D01*
X5037Y2609D01*
X5037Y2609D01*
X5037Y2610D01*
X5037Y2611D01*
X5037Y2611D01*
X5036Y2612D01*
X5036Y2612D01*
X5036Y2612D01*
X5036Y2612D01*
X5036Y2613D01*
X5035Y2613D01*
X5035Y2613D01*
X5034Y2614D01*
X5034Y2614D01*
X5034Y2614D01*
X5034Y2614D01*
X5033Y2614D01*
X5033Y2614D01*
X5032Y2614D01*
X5031Y2614D01*
X5030Y2614D01*
X5029Y2615D01*
X5017D01*
Y2618D01*
X5040D01*
Y2615D01*
D02*
G37*
G36*
X4841Y2102D02*
X4842Y2102D01*
X4843Y2102D01*
X4843Y2101D01*
X4844Y2101D01*
X4844D01*
X4844Y2101D01*
X4845D01*
X4845Y2101D01*
X4845Y2101D01*
X4846Y2101D01*
X4847Y2100D01*
X4847Y2100D01*
X4848Y2100D01*
X4849Y2099D01*
X4849Y2099D01*
X4849Y2099D01*
X4849Y2099D01*
X4849Y2099D01*
X4850Y2098D01*
X4850Y2098D01*
X4851Y2097D01*
X4852Y2096D01*
X4852Y2095D01*
X4853Y2094D01*
Y2094D01*
X4853Y2093D01*
X4853Y2093D01*
X4853Y2093D01*
X4853Y2093D01*
X4853Y2092D01*
X4853Y2092D01*
X4853Y2091D01*
X4853Y2091D01*
X4853Y2090D01*
X4854Y2089D01*
X4854Y2088D01*
X4854Y2086D01*
Y2086D01*
Y2086D01*
Y2086D01*
Y2085D01*
X4854Y2085D01*
Y2085D01*
X4854Y2084D01*
X4854Y2083D01*
X4854Y2082D01*
X4853Y2081D01*
X4853Y2080D01*
Y2080D01*
X4853Y2079D01*
X4853Y2079D01*
X4853Y2079D01*
X4853Y2079D01*
X4852Y2078D01*
X4852Y2077D01*
X4852Y2077D01*
X4851Y2076D01*
X4851Y2075D01*
X4851Y2075D01*
X4851Y2075D01*
X4850Y2074D01*
X4850Y2074D01*
X4850Y2073D01*
X4849Y2073D01*
X4849Y2073D01*
X4848Y2072D01*
X4848Y2072D01*
X4848Y2072D01*
X4847Y2072D01*
X4847Y2072D01*
X4846Y2071D01*
X4846Y2071D01*
X4845Y2071D01*
X4844Y2071D01*
X4844D01*
X4844Y2070D01*
X4844Y2070D01*
X4843Y2070D01*
X4843Y2070D01*
X4842Y2070D01*
X4841Y2070D01*
X4840Y2070D01*
X4839Y2070D01*
X4828D01*
Y2102D01*
X4840D01*
X4841Y2102D01*
D02*
G37*
G36*
X5026Y2582D02*
X5026D01*
X5027Y2582D01*
X5028Y2582D01*
X5029Y2582D01*
X5031Y2582D01*
X5032Y2582D01*
X5033Y2581D01*
X5033Y2581D01*
X5033D01*
X5034Y2581D01*
X5034Y2581D01*
X5034Y2581D01*
X5034Y2581D01*
X5035Y2581D01*
X5035Y2580D01*
X5036Y2580D01*
X5037Y2579D01*
X5038Y2579D01*
X5039Y2578D01*
Y2578D01*
X5039Y2578D01*
X5039Y2578D01*
X5039Y2577D01*
X5039Y2577D01*
X5039Y2577D01*
X5040Y2576D01*
X5040Y2575D01*
X5040Y2574D01*
X5040Y2573D01*
X5041Y2572D01*
Y2572D01*
Y2572D01*
Y2572D01*
X5041Y2571D01*
X5040Y2571D01*
X5040Y2570D01*
X5040Y2570D01*
X5040Y2569D01*
X5040Y2569D01*
X5040Y2568D01*
X5039Y2568D01*
X5039Y2567D01*
X5039Y2566D01*
X5038Y2566D01*
X5038Y2565D01*
X5037Y2565D01*
X5037Y2565D01*
X5037Y2565D01*
X5037Y2565D01*
X5037Y2564D01*
X5036Y2564D01*
X5036Y2564D01*
X5035Y2564D01*
X5034Y2563D01*
X5033Y2563D01*
X5032Y2563D01*
X5031Y2562D01*
X5030Y2562D01*
X5029Y2562D01*
X5027Y2562D01*
X5026Y2562D01*
X5024Y2562D01*
X5023D01*
X5023Y2562D01*
X5022D01*
X5022Y2562D01*
X5021Y2562D01*
X5020Y2562D01*
X5018Y2562D01*
X5017Y2562D01*
X5016Y2563D01*
X5015Y2563D01*
X5015D01*
X5015Y2563D01*
X5015Y2563D01*
X5015Y2563D01*
X5014Y2563D01*
X5014Y2563D01*
X5013Y2564D01*
X5012Y2564D01*
X5012Y2565D01*
X5011Y2565D01*
X5010Y2566D01*
Y2566D01*
X5010Y2566D01*
X5010Y2567D01*
X5010Y2567D01*
X5010Y2567D01*
X5009Y2567D01*
X5009Y2568D01*
X5009Y2569D01*
X5008Y2570D01*
X5008Y2571D01*
X5008Y2572D01*
Y2572D01*
Y2572D01*
Y2572D01*
Y2572D01*
X5008Y2573D01*
X5008Y2574D01*
X5008Y2574D01*
X5009Y2575D01*
X5009Y2576D01*
X5009Y2577D01*
Y2577D01*
X5009Y2577D01*
X5009Y2577D01*
X5010Y2577D01*
X5010Y2578D01*
X5010Y2578D01*
X5011Y2579D01*
X5011Y2579D01*
X5012Y2580D01*
X5012Y2580D01*
X5012Y2580D01*
X5013Y2580D01*
X5013Y2580D01*
X5014Y2581D01*
X5015Y2581D01*
X5016Y2581D01*
X5017Y2582D01*
X5017D01*
X5017Y2582D01*
X5017Y2582D01*
X5017Y2582D01*
X5018Y2582D01*
X5018Y2582D01*
X5018Y2582D01*
X5019Y2582D01*
X5019Y2582D01*
X5020Y2582D01*
X5021Y2582D01*
X5021Y2582D01*
X5022Y2582D01*
X5023D01*
X5023Y2582D01*
X5025D01*
X5026Y2582D01*
D02*
G37*
%LPC*%
G36*
X3339Y2098D02*
X3332D01*
Y2074D01*
X3339D01*
X3340Y2074D01*
X3340Y2074D01*
X3341Y2074D01*
X3342Y2074D01*
X3343Y2074D01*
X3344Y2074D01*
X3344Y2074D01*
X3344Y2074D01*
X3344Y2075D01*
X3345Y2075D01*
X3345Y2075D01*
X3346Y2075D01*
X3346Y2076D01*
X3346Y2076D01*
X3346Y2076D01*
X3347Y2076D01*
X3347Y2077D01*
X3347Y2077D01*
X3348Y2078D01*
X3348Y2078D01*
X3348Y2079D01*
X3349Y2080D01*
Y2080D01*
X3349Y2080D01*
X3349Y2080D01*
X3349Y2080D01*
X3349Y2081D01*
X3349Y2081D01*
X3349Y2081D01*
X3349Y2082D01*
X3349Y2083D01*
X3349Y2084D01*
X3350Y2085D01*
X3350Y2086D01*
Y2086D01*
Y2086D01*
Y2087D01*
X3350Y2087D01*
Y2087D01*
X3350Y2088D01*
X3349Y2088D01*
X3349Y2089D01*
X3349Y2090D01*
X3349Y2091D01*
X3348Y2093D01*
X3348Y2093D01*
X3348Y2094D01*
Y2094D01*
X3348Y2094D01*
X3348Y2094D01*
X3348Y2094D01*
X3347Y2095D01*
X3347Y2095D01*
X3346Y2096D01*
X3346Y2096D01*
X3345Y2097D01*
X3344Y2097D01*
X3344Y2097D01*
X3344Y2097D01*
X3343Y2098D01*
X3343Y2098D01*
X3342Y2098D01*
X3341Y2098D01*
X3340Y2098D01*
X3340D01*
X3339Y2098D01*
D02*
G37*
G36*
X3874Y3710D02*
X3873D01*
X3873Y3710D01*
X3873D01*
X3872Y3710D01*
X3872Y3709D01*
X3871Y3709D01*
X3870Y3709D01*
X3869Y3709D01*
X3867Y3708D01*
X3867Y3708D01*
X3866Y3708D01*
X3866D01*
X3866Y3708D01*
X3866Y3708D01*
X3866Y3708D01*
X3865Y3707D01*
X3865Y3707D01*
X3864Y3706D01*
X3864Y3706D01*
X3863Y3705D01*
X3863Y3704D01*
X3863Y3704D01*
X3863Y3704D01*
X3862Y3703D01*
X3862Y3703D01*
X3862Y3702D01*
X3862Y3701D01*
X3862Y3700D01*
Y3700D01*
X3862Y3699D01*
Y3699D01*
Y3692D01*
X3886D01*
Y3699D01*
Y3699D01*
Y3699D01*
Y3699D01*
Y3699D01*
Y3699D01*
X3886Y3700D01*
X3886Y3700D01*
X3886Y3701D01*
X3886Y3702D01*
X3886Y3703D01*
X3886Y3704D01*
X3886Y3704D01*
X3886Y3704D01*
X3885Y3704D01*
X3885Y3705D01*
X3885Y3705D01*
X3885Y3706D01*
X3884Y3706D01*
X3884Y3706D01*
X3884Y3706D01*
X3884Y3707D01*
X3883Y3707D01*
X3883Y3707D01*
X3882Y3708D01*
X3882Y3708D01*
X3881Y3708D01*
X3880Y3709D01*
X3880D01*
X3880Y3709D01*
X3880Y3709D01*
X3880Y3709D01*
X3879Y3709D01*
X3879Y3709D01*
X3879Y3709D01*
X3878Y3709D01*
X3877Y3709D01*
X3876Y3709D01*
X3875Y3710D01*
X3874Y3710D01*
D02*
G37*
G36*
X2865Y3147D02*
X2864D01*
X2863Y3147D01*
X2863Y3147D01*
X2862Y3147D01*
X2861Y3147D01*
X2860Y3147D01*
X2859Y3146D01*
X2858Y3146D01*
X2857Y3145D01*
X2855Y3145D01*
X2854Y3144D01*
X2853Y3143D01*
X2853Y3143D01*
X2852Y3143D01*
X2852Y3142D01*
X2852Y3142D01*
X2852Y3142D01*
X2851Y3141D01*
X2851Y3141D01*
X2851Y3140D01*
X2850Y3139D01*
X2850Y3138D01*
X2849Y3137D01*
X2849Y3135D01*
X2848Y3134D01*
X2848Y3132D01*
X2848Y3130D01*
X2848Y3129D01*
X2848Y3127D01*
Y3127D01*
Y3126D01*
Y3126D01*
X2848Y3125D01*
X2848Y3124D01*
X2848Y3124D01*
X2848Y3123D01*
X2848Y3122D01*
X2849Y3119D01*
X2849Y3118D01*
X2850Y3117D01*
X2850Y3116D01*
X2851Y3115D01*
X2851Y3113D01*
X2852Y3112D01*
X2852Y3112D01*
X2853Y3112D01*
X2853Y3112D01*
X2853Y3112D01*
X2854Y3111D01*
X2854Y3111D01*
X2855Y3110D01*
X2856Y3110D01*
X2856Y3109D01*
X2857Y3109D01*
X2858Y3109D01*
X2860Y3108D01*
X2861Y3108D01*
X2862Y3108D01*
X2863Y3107D01*
X2864Y3107D01*
X2865D01*
X2865Y3107D01*
X2866D01*
X2866Y3107D01*
X2867Y3108D01*
X2868Y3108D01*
X2869Y3108D01*
X2870Y3108D01*
X2871Y3109D01*
X2872Y3109D01*
X2873Y3109D01*
X2874Y3110D01*
X2875Y3111D01*
X2876Y3112D01*
X2877Y3112D01*
X2877Y3113D01*
X2877Y3113D01*
X2877Y3113D01*
X2878Y3113D01*
X2878Y3114D01*
X2878Y3115D01*
X2879Y3115D01*
X2879Y3116D01*
X2880Y3117D01*
X2880Y3118D01*
X2880Y3120D01*
X2881Y3121D01*
X2881Y3122D01*
X2881Y3124D01*
X2881Y3126D01*
X2882Y3127D01*
Y3127D01*
Y3128D01*
Y3128D01*
Y3128D01*
X2881Y3129D01*
Y3129D01*
X2881Y3130D01*
X2881Y3131D01*
X2881Y3133D01*
X2881Y3134D01*
X2880Y3136D01*
X2879Y3138D01*
Y3138D01*
X2879Y3138D01*
X2879Y3138D01*
X2879Y3139D01*
X2879Y3139D01*
X2878Y3140D01*
X2877Y3142D01*
X2876Y3143D01*
X2875Y3144D01*
X2873Y3145D01*
X2873D01*
X2873Y3145D01*
X2873Y3145D01*
X2873Y3145D01*
X2872Y3145D01*
X2872Y3146D01*
X2871Y3146D01*
X2870Y3147D01*
X2868Y3147D01*
X2866Y3147D01*
X2865Y3147D01*
D02*
G37*
G36*
X4620Y2099D02*
X4620D01*
X4620Y2099D01*
X4619Y2099D01*
X4619Y2098D01*
X4618Y2098D01*
X4617Y2098D01*
X4617Y2097D01*
X4617Y2097D01*
X4616Y2097D01*
X4616Y2097D01*
X4616Y2096D01*
X4616Y2096D01*
X4616Y2095D01*
X4615Y2095D01*
X4615Y2094D01*
Y2094D01*
Y2094D01*
X4615Y2093D01*
X4615Y2093D01*
X4615Y2092D01*
X4616Y2092D01*
X4616Y2091D01*
X4616Y2091D01*
X4617Y2090D01*
X4617Y2090D01*
X4617Y2090D01*
X4617Y2090D01*
X4618Y2089D01*
X4618Y2089D01*
X4619Y2089D01*
X4620Y2089D01*
X4620Y2089D01*
X4621D01*
X4621Y2089D01*
X4621Y2089D01*
X4622Y2089D01*
X4622Y2089D01*
X4623Y2089D01*
X4624Y2090D01*
X4624Y2090D01*
X4624Y2090D01*
X4624Y2090D01*
X4625Y2091D01*
X4625Y2091D01*
X4625Y2092D01*
X4625Y2092D01*
X4626Y2093D01*
X4626Y2094D01*
Y2094D01*
Y2094D01*
Y2094D01*
X4626Y2094D01*
X4625Y2095D01*
X4625Y2095D01*
X4625Y2096D01*
X4625Y2097D01*
X4624Y2097D01*
X4624Y2097D01*
X4624Y2097D01*
X4624Y2098D01*
X4623Y2098D01*
X4623Y2098D01*
X4622Y2098D01*
X4621Y2099D01*
X4620Y2099D01*
D02*
G37*
G36*
X4620Y2086D02*
X4620D01*
X4620Y2085D01*
X4619Y2085D01*
X4619Y2085D01*
X4618Y2085D01*
X4617Y2085D01*
X4616Y2084D01*
X4616Y2084D01*
X4616Y2084D01*
X4616Y2083D01*
X4615Y2083D01*
X4615Y2082D01*
X4615Y2082D01*
X4614Y2081D01*
X4614Y2080D01*
X4614Y2079D01*
Y2079D01*
Y2079D01*
X4614Y2079D01*
X4614Y2078D01*
X4614Y2078D01*
X4614Y2077D01*
X4614Y2077D01*
X4615Y2076D01*
X4615Y2076D01*
X4615Y2076D01*
X4615Y2075D01*
X4615Y2075D01*
X4616Y2075D01*
X4616Y2074D01*
X4617Y2074D01*
X4617Y2073D01*
X4617Y2073D01*
X4617Y2073D01*
X4618Y2073D01*
X4618Y2073D01*
X4619Y2073D01*
X4619Y2073D01*
X4620Y2073D01*
X4620Y2073D01*
X4621D01*
X4621Y2073D01*
X4621Y2073D01*
X4622Y2073D01*
X4623Y2073D01*
X4624Y2073D01*
X4624Y2074D01*
X4625Y2074D01*
X4625Y2075D01*
X4625Y2075D01*
X4626Y2075D01*
X4626Y2076D01*
X4626Y2076D01*
X4627Y2077D01*
X4627Y2078D01*
X4627Y2079D01*
Y2079D01*
Y2079D01*
Y2079D01*
X4627Y2079D01*
X4627Y2080D01*
X4627Y2081D01*
X4626Y2081D01*
X4626Y2082D01*
X4626Y2083D01*
X4625Y2084D01*
X4625Y2084D01*
X4625Y2084D01*
X4624Y2084D01*
X4624Y2085D01*
X4623Y2085D01*
X4622Y2085D01*
X4621Y2085D01*
X4620Y2086D01*
D02*
G37*
G36*
X4539Y2098D02*
X4532D01*
Y2074D01*
X4539D01*
X4540Y2074D01*
X4540Y2074D01*
X4541Y2074D01*
X4542Y2074D01*
X4543Y2074D01*
X4544Y2074D01*
X4544Y2074D01*
X4544Y2074D01*
X4544Y2075D01*
X4545Y2075D01*
X4545Y2075D01*
X4546Y2075D01*
X4546Y2076D01*
X4546Y2076D01*
X4546Y2076D01*
X4547Y2076D01*
X4547Y2077D01*
X4547Y2077D01*
X4548Y2078D01*
X4548Y2078D01*
X4548Y2079D01*
X4549Y2080D01*
Y2080D01*
X4549Y2080D01*
X4549Y2080D01*
X4549Y2080D01*
X4549Y2081D01*
X4549Y2081D01*
X4549Y2081D01*
X4549Y2082D01*
X4549Y2083D01*
X4549Y2084D01*
X4550Y2085D01*
X4550Y2086D01*
Y2086D01*
Y2086D01*
Y2087D01*
X4550Y2087D01*
Y2087D01*
X4550Y2088D01*
X4549Y2088D01*
X4549Y2089D01*
X4549Y2090D01*
X4549Y2091D01*
X4548Y2093D01*
X4548Y2093D01*
X4548Y2094D01*
Y2094D01*
X4548Y2094D01*
X4548Y2094D01*
X4548Y2094D01*
X4547Y2095D01*
X4547Y2095D01*
X4546Y2096D01*
X4546Y2096D01*
X4545Y2097D01*
X4544Y2097D01*
X4544Y2097D01*
X4544Y2097D01*
X4543Y2098D01*
X4543Y2098D01*
X4542Y2098D01*
X4541Y2098D01*
X4540Y2098D01*
X4540D01*
X4539Y2098D01*
D02*
G37*
G36*
X3877Y3790D02*
X3868Y3787D01*
X3868D01*
X3868Y3787D01*
X3868Y3787D01*
X3868Y3787D01*
X3867Y3787D01*
X3867Y3787D01*
X3866Y3786D01*
X3866Y3786D01*
X3865Y3786D01*
X3864Y3786D01*
X3863Y3785D01*
X3862Y3785D01*
X3862D01*
X3862Y3785D01*
X3862D01*
X3862Y3785D01*
X3862Y3785D01*
X3863Y3785D01*
X3863Y3784D01*
X3864Y3784D01*
X3865Y3784D01*
X3866Y3783D01*
X3868Y3783D01*
X3877Y3780D01*
Y3790D01*
D02*
G37*
G36*
X3867Y3763D02*
X3867D01*
X3866Y3762D01*
X3866Y3762D01*
X3865Y3762D01*
X3865Y3762D01*
X3865Y3762D01*
X3864Y3762D01*
X3864Y3762D01*
X3864Y3762D01*
X3864Y3761D01*
X3863Y3761D01*
X3863Y3761D01*
X3863Y3760D01*
X3863Y3760D01*
X3862Y3760D01*
Y3759D01*
X3862Y3759D01*
X3862Y3759D01*
X3862Y3758D01*
X3862Y3758D01*
X3862Y3757D01*
X3862Y3756D01*
Y3755D01*
Y3755D01*
Y3748D01*
X3872D01*
Y3755D01*
Y3755D01*
Y3755D01*
Y3756D01*
Y3756D01*
Y3756D01*
X3872Y3757D01*
X3871Y3757D01*
X3871Y3758D01*
X3871Y3759D01*
X3871Y3759D01*
X3871Y3759D01*
X3871Y3760D01*
X3871Y3760D01*
X3871Y3760D01*
X3871Y3761D01*
X3870Y3761D01*
X3870Y3761D01*
X3870Y3762D01*
X3870Y3762D01*
X3869Y3762D01*
X3869Y3762D01*
X3869Y3762D01*
X3868Y3762D01*
X3868Y3762D01*
X3867Y3762D01*
X3867Y3763D01*
D02*
G37*
G36*
X3881Y3764D02*
X3880D01*
X3880Y3764D01*
X3880Y3764D01*
X3879Y3764D01*
X3879Y3763D01*
X3878Y3763D01*
X3878Y3763D01*
X3878Y3763D01*
X3878Y3763D01*
X3877Y3763D01*
X3877Y3762D01*
X3877Y3762D01*
X3876Y3761D01*
X3876Y3761D01*
X3876Y3760D01*
X3876Y3760D01*
X3876Y3760D01*
X3876Y3760D01*
X3876Y3759D01*
X3875Y3759D01*
X3875Y3758D01*
X3875Y3757D01*
Y3756D01*
Y3748D01*
X3886D01*
Y3756D01*
Y3756D01*
Y3756D01*
Y3757D01*
Y3757D01*
Y3757D01*
X3886Y3758D01*
X3886Y3759D01*
X3886Y3759D01*
Y3759D01*
X3886Y3759D01*
X3886Y3760D01*
X3886Y3760D01*
X3886Y3761D01*
X3885Y3762D01*
X3885Y3762D01*
X3885Y3762D01*
X3885Y3762D01*
X3885Y3762D01*
X3885Y3762D01*
X3884Y3763D01*
X3884Y3763D01*
X3883Y3763D01*
X3883Y3763D01*
X3883Y3763D01*
X3883Y3763D01*
X3883Y3764D01*
X3882Y3764D01*
X3882Y3764D01*
X3881Y3764D01*
X3881Y3764D01*
D02*
G37*
G36*
X3939Y2098D02*
X3932D01*
Y2074D01*
X3939D01*
X3940Y2074D01*
X3940Y2074D01*
X3941Y2074D01*
X3942Y2074D01*
X3943Y2074D01*
X3944Y2074D01*
X3944Y2074D01*
X3944Y2074D01*
X3944Y2075D01*
X3945Y2075D01*
X3945Y2075D01*
X3946Y2075D01*
X3946Y2076D01*
X3946Y2076D01*
X3946Y2076D01*
X3947Y2076D01*
X3947Y2077D01*
X3947Y2077D01*
X3948Y2078D01*
X3948Y2078D01*
X3948Y2079D01*
X3949Y2080D01*
Y2080D01*
X3949Y2080D01*
X3949Y2080D01*
X3949Y2080D01*
X3949Y2081D01*
X3949Y2081D01*
X3949Y2081D01*
X3949Y2082D01*
X3949Y2083D01*
X3949Y2084D01*
X3950Y2085D01*
X3950Y2086D01*
Y2086D01*
Y2086D01*
Y2087D01*
X3950Y2087D01*
Y2087D01*
X3950Y2088D01*
X3949Y2088D01*
X3949Y2089D01*
X3949Y2090D01*
X3949Y2091D01*
X3948Y2093D01*
X3948Y2093D01*
X3948Y2094D01*
Y2094D01*
X3948Y2094D01*
X3948Y2094D01*
X3948Y2094D01*
X3947Y2095D01*
X3947Y2095D01*
X3946Y2096D01*
X3946Y2096D01*
X3945Y2097D01*
X3944Y2097D01*
X3944Y2097D01*
X3944Y2097D01*
X3943Y2098D01*
X3943Y2098D01*
X3942Y2098D01*
X3941Y2098D01*
X3940Y2098D01*
X3940D01*
X3939Y2098D01*
D02*
G37*
G36*
X4239D02*
X4232D01*
Y2074D01*
X4239D01*
X4240Y2074D01*
X4240Y2074D01*
X4241Y2074D01*
X4242Y2074D01*
X4243Y2074D01*
X4244Y2074D01*
X4244Y2074D01*
X4244Y2074D01*
X4244Y2075D01*
X4245Y2075D01*
X4245Y2075D01*
X4246Y2075D01*
X4246Y2076D01*
X4246Y2076D01*
X4246Y2076D01*
X4247Y2076D01*
X4247Y2077D01*
X4247Y2077D01*
X4248Y2078D01*
X4248Y2078D01*
X4248Y2079D01*
X4249Y2080D01*
Y2080D01*
X4249Y2080D01*
X4249Y2080D01*
X4249Y2080D01*
X4249Y2081D01*
X4249Y2081D01*
X4249Y2081D01*
X4249Y2082D01*
X4249Y2083D01*
X4249Y2084D01*
X4250Y2085D01*
X4250Y2086D01*
Y2086D01*
Y2086D01*
Y2087D01*
X4250Y2087D01*
Y2087D01*
X4250Y2088D01*
X4249Y2088D01*
X4249Y2089D01*
X4249Y2090D01*
X4249Y2091D01*
X4248Y2093D01*
X4248Y2093D01*
X4248Y2094D01*
Y2094D01*
X4248Y2094D01*
X4248Y2094D01*
X4248Y2094D01*
X4247Y2095D01*
X4247Y2095D01*
X4246Y2096D01*
X4246Y2096D01*
X4245Y2097D01*
X4244Y2097D01*
X4244Y2097D01*
X4244Y2097D01*
X4243Y2098D01*
X4243Y2098D01*
X4242Y2098D01*
X4241Y2098D01*
X4240Y2098D01*
X4240D01*
X4239Y2098D01*
D02*
G37*
G36*
X3639D02*
X3632D01*
Y2074D01*
X3639D01*
X3640Y2074D01*
X3640Y2074D01*
X3641Y2074D01*
X3642Y2074D01*
X3643Y2074D01*
X3644Y2074D01*
X3644Y2074D01*
X3644Y2074D01*
X3644Y2075D01*
X3645Y2075D01*
X3645Y2075D01*
X3646Y2075D01*
X3646Y2076D01*
X3646Y2076D01*
X3646Y2076D01*
X3647Y2076D01*
X3647Y2077D01*
X3647Y2077D01*
X3648Y2078D01*
X3648Y2078D01*
X3648Y2079D01*
X3649Y2080D01*
Y2080D01*
X3649Y2080D01*
X3649Y2080D01*
X3649Y2080D01*
X3649Y2081D01*
X3649Y2081D01*
X3649Y2081D01*
X3649Y2082D01*
X3649Y2083D01*
X3649Y2084D01*
X3650Y2085D01*
X3650Y2086D01*
Y2086D01*
Y2086D01*
Y2087D01*
X3650Y2087D01*
Y2087D01*
X3650Y2088D01*
X3649Y2088D01*
X3649Y2089D01*
X3649Y2090D01*
X3649Y2091D01*
X3648Y2093D01*
X3648Y2093D01*
X3648Y2094D01*
Y2094D01*
X3648Y2094D01*
X3648Y2094D01*
X3648Y2094D01*
X3647Y2095D01*
X3647Y2095D01*
X3646Y2096D01*
X3646Y2096D01*
X3645Y2097D01*
X3644Y2097D01*
X3644Y2097D01*
X3644Y2097D01*
X3643Y2098D01*
X3643Y2098D01*
X3642Y2098D01*
X3641Y2098D01*
X3640Y2098D01*
X3640D01*
X3639Y2098D01*
D02*
G37*
G36*
X2940Y2925D02*
X2940D01*
X2939Y2925D01*
X2939Y2925D01*
X2938Y2924D01*
X2937Y2924D01*
X2935Y2923D01*
X2935Y2923D01*
X2934Y2922D01*
X2934Y2922D01*
X2933Y2921D01*
Y2921D01*
X2933Y2921D01*
X2933Y2921D01*
X2933Y2920D01*
X2933Y2920D01*
X2932Y2919D01*
X2932Y2918D01*
X2932Y2917D01*
X2931Y2916D01*
X2931Y2915D01*
X2931Y2914D01*
X2931Y2912D01*
X2930Y2911D01*
X2930Y2909D01*
X2930Y2907D01*
X2930Y2904D01*
Y2904D01*
Y2904D01*
Y2903D01*
X2930Y2902D01*
Y2902D01*
X2930Y2900D01*
X2930Y2899D01*
X2931Y2898D01*
X2931Y2895D01*
X2931Y2894D01*
X2931Y2892D01*
X2932Y2891D01*
X2932Y2890D01*
X2933Y2889D01*
X2933Y2888D01*
Y2888D01*
X2933Y2888D01*
X2934Y2888D01*
X2934Y2887D01*
X2935Y2886D01*
X2936Y2885D01*
X2937Y2885D01*
X2939Y2884D01*
X2939Y2884D01*
X2940Y2884D01*
X2941D01*
X2941Y2884D01*
X2942Y2884D01*
X2943Y2885D01*
X2944Y2885D01*
X2945Y2886D01*
X2945Y2886D01*
X2946Y2887D01*
X2947Y2887D01*
X2947Y2888D01*
Y2888D01*
X2947Y2888D01*
X2947Y2889D01*
X2948Y2889D01*
X2948Y2889D01*
X2948Y2890D01*
X2948Y2891D01*
X2949Y2892D01*
X2949Y2893D01*
X2949Y2894D01*
X2949Y2895D01*
X2950Y2897D01*
X2950Y2898D01*
X2950Y2900D01*
X2950Y2902D01*
Y2904D01*
Y2905D01*
Y2905D01*
Y2905D01*
Y2906D01*
X2950Y2906D01*
Y2907D01*
X2950Y2909D01*
X2950Y2910D01*
X2950Y2911D01*
X2949Y2914D01*
X2949Y2915D01*
X2949Y2916D01*
X2949Y2918D01*
X2948Y2919D01*
X2948Y2920D01*
X2947Y2921D01*
Y2921D01*
X2947Y2921D01*
X2947Y2921D01*
X2947Y2921D01*
X2946Y2922D01*
X2945Y2923D01*
X2944Y2924D01*
X2943Y2924D01*
X2942Y2924D01*
X2942Y2925D01*
X2941Y2925D01*
X2940Y2925D01*
D02*
G37*
G36*
X2979D02*
X2978D01*
X2978Y2925D01*
X2977Y2925D01*
X2976Y2924D01*
X2975Y2924D01*
X2974Y2923D01*
X2973Y2923D01*
X2973Y2922D01*
X2972Y2922D01*
X2972Y2921D01*
Y2921D01*
X2972Y2921D01*
X2972Y2921D01*
X2971Y2920D01*
X2971Y2920D01*
X2971Y2919D01*
X2971Y2918D01*
X2970Y2917D01*
X2970Y2916D01*
X2970Y2915D01*
X2969Y2914D01*
X2969Y2912D01*
X2969Y2911D01*
X2969Y2909D01*
X2969Y2907D01*
X2969Y2904D01*
Y2904D01*
Y2904D01*
Y2903D01*
X2969Y2902D01*
Y2902D01*
X2969Y2900D01*
X2969Y2899D01*
X2969Y2898D01*
X2969Y2895D01*
X2970Y2894D01*
X2970Y2892D01*
X2970Y2891D01*
X2971Y2890D01*
X2971Y2889D01*
X2972Y2888D01*
Y2888D01*
X2972Y2888D01*
X2972Y2888D01*
X2973Y2887D01*
X2974Y2886D01*
X2975Y2885D01*
X2976Y2885D01*
X2977Y2884D01*
X2978Y2884D01*
X2979Y2884D01*
X2979D01*
X2979Y2884D01*
X2980Y2884D01*
X2981Y2885D01*
X2982Y2885D01*
X2983Y2886D01*
X2984Y2886D01*
X2985Y2887D01*
X2985Y2887D01*
X2986Y2888D01*
Y2888D01*
X2986Y2888D01*
X2986Y2889D01*
X2986Y2889D01*
X2986Y2889D01*
X2987Y2890D01*
X2987Y2891D01*
X2987Y2892D01*
X2987Y2893D01*
X2988Y2894D01*
X2988Y2895D01*
X2988Y2897D01*
X2988Y2898D01*
X2989Y2900D01*
X2989Y2902D01*
Y2904D01*
Y2905D01*
Y2905D01*
Y2905D01*
Y2906D01*
X2989Y2906D01*
Y2907D01*
X2989Y2909D01*
X2988Y2910D01*
X2988Y2911D01*
X2988Y2914D01*
X2988Y2915D01*
X2987Y2916D01*
X2987Y2918D01*
X2987Y2919D01*
X2986Y2920D01*
X2986Y2921D01*
Y2921D01*
X2986Y2921D01*
X2986Y2921D01*
X2985Y2921D01*
X2985Y2922D01*
X2984Y2923D01*
X2983Y2924D01*
X2982Y2924D01*
X2981Y2924D01*
X2980Y2925D01*
X2979Y2925D01*
X2979Y2925D01*
D02*
G37*
G36*
X4890Y3136D02*
X4890D01*
X4890Y3135D01*
X4889Y3135D01*
X4889Y3135D01*
X4888Y3135D01*
X4887Y3135D01*
X4886Y3134D01*
X4886Y3134D01*
X4886Y3134D01*
X4886Y3133D01*
X4885Y3133D01*
X4885Y3132D01*
X4885Y3132D01*
X4884Y3131D01*
X4884Y3130D01*
X4884Y3129D01*
Y3129D01*
Y3129D01*
X4884Y3129D01*
X4884Y3128D01*
X4884Y3128D01*
X4884Y3127D01*
X4884Y3127D01*
X4885Y3126D01*
X4885Y3126D01*
X4885Y3126D01*
X4885Y3125D01*
X4885Y3125D01*
X4886Y3125D01*
X4886Y3124D01*
X4887Y3124D01*
X4887Y3123D01*
X4887Y3123D01*
X4887Y3123D01*
X4888Y3123D01*
X4888Y3123D01*
X4889Y3123D01*
X4889Y3123D01*
X4890Y3123D01*
X4890Y3123D01*
X4891D01*
X4891Y3123D01*
X4891Y3123D01*
X4892Y3123D01*
X4893Y3123D01*
X4894Y3123D01*
X4894Y3124D01*
X4895Y3124D01*
X4895Y3125D01*
X4895Y3125D01*
X4896Y3125D01*
X4896Y3126D01*
X4896Y3126D01*
X4897Y3127D01*
X4897Y3128D01*
X4897Y3129D01*
Y3129D01*
Y3129D01*
Y3129D01*
X4897Y3129D01*
X4897Y3130D01*
X4897Y3131D01*
X4896Y3131D01*
X4896Y3132D01*
X4896Y3133D01*
X4895Y3134D01*
X4895Y3134D01*
X4895Y3134D01*
X4894Y3134D01*
X4894Y3135D01*
X4893Y3135D01*
X4892Y3135D01*
X4891Y3135D01*
X4890Y3136D01*
D02*
G37*
G36*
X4890Y3149D02*
X4890D01*
X4890Y3149D01*
X4889Y3149D01*
X4889Y3148D01*
X4888Y3148D01*
X4887Y3148D01*
X4887Y3147D01*
X4887Y3147D01*
X4886Y3147D01*
X4886Y3147D01*
X4886Y3146D01*
X4886Y3146D01*
X4886Y3145D01*
X4885Y3145D01*
X4885Y3144D01*
Y3144D01*
Y3144D01*
X4885Y3143D01*
X4885Y3143D01*
X4885Y3142D01*
X4886Y3142D01*
X4886Y3141D01*
X4886Y3141D01*
X4887Y3140D01*
X4887Y3140D01*
X4887Y3140D01*
X4887Y3140D01*
X4888Y3139D01*
X4888Y3139D01*
X4889Y3139D01*
X4890Y3139D01*
X4890Y3139D01*
X4891D01*
X4891Y3139D01*
X4891Y3139D01*
X4892Y3139D01*
X4892Y3139D01*
X4893Y3139D01*
X4894Y3140D01*
X4894Y3140D01*
X4894Y3140D01*
X4894Y3140D01*
X4895Y3141D01*
X4895Y3141D01*
X4895Y3142D01*
X4895Y3142D01*
X4896Y3143D01*
X4896Y3144D01*
Y3144D01*
Y3144D01*
Y3144D01*
X4896Y3144D01*
X4895Y3145D01*
X4895Y3145D01*
X4895Y3146D01*
X4895Y3147D01*
X4894Y3147D01*
X4894Y3147D01*
X4894Y3147D01*
X4894Y3148D01*
X4893Y3148D01*
X4893Y3148D01*
X4892Y3148D01*
X4891Y3149D01*
X4890Y3149D01*
D02*
G37*
G36*
X4950Y2099D02*
X4950D01*
X4950Y2099D01*
X4949Y2099D01*
X4949Y2098D01*
X4948Y2098D01*
X4947Y2098D01*
X4947Y2097D01*
X4947Y2097D01*
X4946Y2097D01*
X4946Y2097D01*
X4946Y2096D01*
X4946Y2096D01*
X4946Y2095D01*
X4945Y2095D01*
X4945Y2094D01*
Y2094D01*
Y2094D01*
X4945Y2093D01*
X4945Y2093D01*
X4945Y2092D01*
X4946Y2092D01*
X4946Y2091D01*
X4946Y2091D01*
X4947Y2090D01*
X4947Y2090D01*
X4947Y2090D01*
X4947Y2090D01*
X4948Y2089D01*
X4948Y2089D01*
X4949Y2089D01*
X4950Y2089D01*
X4950Y2089D01*
X4951D01*
X4951Y2089D01*
X4951Y2089D01*
X4952Y2089D01*
X4952Y2089D01*
X4953Y2089D01*
X4954Y2090D01*
X4954Y2090D01*
X4954Y2090D01*
X4954Y2090D01*
X4955Y2091D01*
X4955Y2091D01*
X4955Y2092D01*
X4955Y2092D01*
X4956Y2093D01*
X4956Y2094D01*
Y2094D01*
Y2094D01*
Y2094D01*
X4956Y2094D01*
X4955Y2095D01*
X4955Y2095D01*
X4955Y2096D01*
X4955Y2097D01*
X4954Y2097D01*
X4954Y2097D01*
X4954Y2097D01*
X4954Y2098D01*
X4953Y2098D01*
X4953Y2098D01*
X4952Y2098D01*
X4951Y2099D01*
X4950Y2099D01*
D02*
G37*
G36*
X4950Y2086D02*
X4950D01*
X4950Y2085D01*
X4949Y2085D01*
X4949Y2085D01*
X4948Y2085D01*
X4947Y2085D01*
X4946Y2084D01*
X4946Y2084D01*
X4946Y2084D01*
X4946Y2083D01*
X4945Y2083D01*
X4945Y2082D01*
X4945Y2082D01*
X4944Y2081D01*
X4944Y2080D01*
X4944Y2079D01*
Y2079D01*
Y2079D01*
X4944Y2079D01*
X4944Y2078D01*
X4944Y2078D01*
X4944Y2077D01*
X4944Y2077D01*
X4945Y2076D01*
X4945Y2076D01*
X4945Y2076D01*
X4945Y2075D01*
X4945Y2075D01*
X4946Y2075D01*
X4946Y2074D01*
X4947Y2074D01*
X4947Y2073D01*
X4947Y2073D01*
X4947Y2073D01*
X4948Y2073D01*
X4948Y2073D01*
X4949Y2073D01*
X4949Y2073D01*
X4950Y2073D01*
X4950Y2073D01*
X4951D01*
X4951Y2073D01*
X4951Y2073D01*
X4952Y2073D01*
X4953Y2073D01*
X4954Y2073D01*
X4954Y2074D01*
X4955Y2074D01*
X4955Y2075D01*
X4955Y2075D01*
X4956Y2075D01*
X4956Y2076D01*
X4956Y2076D01*
X4957Y2077D01*
X4957Y2078D01*
X4957Y2079D01*
Y2079D01*
Y2079D01*
Y2079D01*
X4957Y2079D01*
X4957Y2080D01*
X4957Y2081D01*
X4956Y2081D01*
X4956Y2082D01*
X4956Y2083D01*
X4955Y2084D01*
X4955Y2084D01*
X4955Y2084D01*
X4954Y2084D01*
X4954Y2085D01*
X4953Y2085D01*
X4952Y2085D01*
X4951Y2085D01*
X4950Y2086D01*
D02*
G37*
G36*
X2979Y2575D02*
X2978D01*
X2978Y2575D01*
X2977Y2575D01*
X2976Y2574D01*
X2975Y2574D01*
X2974Y2573D01*
X2973Y2573D01*
X2973Y2572D01*
X2972Y2572D01*
X2972Y2571D01*
Y2571D01*
X2972Y2571D01*
X2972Y2571D01*
X2971Y2570D01*
X2971Y2570D01*
X2971Y2569D01*
X2971Y2568D01*
X2970Y2567D01*
X2970Y2566D01*
X2970Y2565D01*
X2969Y2564D01*
X2969Y2562D01*
X2969Y2561D01*
X2969Y2559D01*
X2969Y2557D01*
X2969Y2554D01*
Y2554D01*
Y2554D01*
Y2553D01*
X2969Y2552D01*
Y2552D01*
X2969Y2550D01*
X2969Y2549D01*
X2969Y2548D01*
X2969Y2545D01*
X2970Y2544D01*
X2970Y2542D01*
X2970Y2541D01*
X2971Y2540D01*
X2971Y2539D01*
X2972Y2538D01*
Y2538D01*
X2972Y2538D01*
X2972Y2538D01*
X2973Y2537D01*
X2974Y2536D01*
X2975Y2535D01*
X2976Y2535D01*
X2977Y2534D01*
X2978Y2534D01*
X2979Y2534D01*
X2979D01*
X2979Y2534D01*
X2980Y2534D01*
X2981Y2535D01*
X2982Y2535D01*
X2983Y2536D01*
X2984Y2536D01*
X2985Y2537D01*
X2985Y2537D01*
X2986Y2538D01*
Y2538D01*
X2986Y2538D01*
X2986Y2539D01*
X2986Y2539D01*
X2986Y2539D01*
X2987Y2540D01*
X2987Y2541D01*
X2987Y2542D01*
X2987Y2543D01*
X2988Y2544D01*
X2988Y2545D01*
X2988Y2547D01*
X2988Y2548D01*
X2989Y2550D01*
X2989Y2552D01*
Y2554D01*
Y2555D01*
Y2555D01*
Y2555D01*
Y2556D01*
X2989Y2556D01*
Y2557D01*
X2989Y2559D01*
X2988Y2560D01*
X2988Y2561D01*
X2988Y2564D01*
X2988Y2565D01*
X2987Y2566D01*
X2987Y2568D01*
X2987Y2569D01*
X2986Y2570D01*
X2986Y2571D01*
Y2571D01*
X2986Y2571D01*
X2986Y2571D01*
X2985Y2571D01*
X2985Y2572D01*
X2984Y2573D01*
X2983Y2574D01*
X2982Y2574D01*
X2981Y2574D01*
X2980Y2575D01*
X2979Y2575D01*
X2979Y2575D01*
D02*
G37*
G36*
X2940D02*
X2940D01*
X2939Y2575D01*
X2939Y2575D01*
X2938Y2574D01*
X2937Y2574D01*
X2935Y2573D01*
X2935Y2573D01*
X2934Y2572D01*
X2934Y2572D01*
X2933Y2571D01*
Y2571D01*
X2933Y2571D01*
X2933Y2571D01*
X2933Y2570D01*
X2933Y2570D01*
X2932Y2569D01*
X2932Y2568D01*
X2932Y2567D01*
X2931Y2566D01*
X2931Y2565D01*
X2931Y2564D01*
X2931Y2562D01*
X2930Y2561D01*
X2930Y2559D01*
X2930Y2557D01*
X2930Y2554D01*
Y2554D01*
Y2554D01*
Y2553D01*
X2930Y2552D01*
Y2552D01*
X2930Y2550D01*
X2930Y2549D01*
X2931Y2548D01*
X2931Y2545D01*
X2931Y2544D01*
X2931Y2542D01*
X2932Y2541D01*
X2932Y2540D01*
X2933Y2539D01*
X2933Y2538D01*
Y2538D01*
X2933Y2538D01*
X2934Y2538D01*
X2934Y2537D01*
X2935Y2536D01*
X2936Y2535D01*
X2937Y2535D01*
X2939Y2534D01*
X2939Y2534D01*
X2940Y2534D01*
X2941D01*
X2941Y2534D01*
X2942Y2534D01*
X2943Y2535D01*
X2944Y2535D01*
X2945Y2536D01*
X2945Y2536D01*
X2946Y2537D01*
X2947Y2537D01*
X2947Y2538D01*
Y2538D01*
X2947Y2538D01*
X2947Y2539D01*
X2948Y2539D01*
X2948Y2539D01*
X2948Y2540D01*
X2948Y2541D01*
X2949Y2542D01*
X2949Y2543D01*
X2949Y2544D01*
X2949Y2545D01*
X2950Y2547D01*
X2950Y2548D01*
X2950Y2550D01*
X2950Y2552D01*
Y2554D01*
Y2555D01*
Y2555D01*
Y2555D01*
Y2556D01*
X2950Y2556D01*
Y2557D01*
X2950Y2559D01*
X2950Y2560D01*
X2950Y2561D01*
X2949Y2564D01*
X2949Y2565D01*
X2949Y2566D01*
X2949Y2568D01*
X2948Y2569D01*
X2948Y2570D01*
X2947Y2571D01*
Y2571D01*
X2947Y2571D01*
X2947Y2571D01*
X2947Y2571D01*
X2946Y2572D01*
X2945Y2573D01*
X2944Y2574D01*
X2943Y2574D01*
X2942Y2574D01*
X2942Y2575D01*
X2941Y2575D01*
X2940Y2575D01*
D02*
G37*
G36*
X5129Y2098D02*
X5122D01*
Y2074D01*
X5129D01*
X5130Y2074D01*
X5130Y2074D01*
X5131Y2074D01*
X5132Y2074D01*
X5133Y2074D01*
X5134Y2074D01*
X5134Y2074D01*
X5134Y2074D01*
X5134Y2075D01*
X5135Y2075D01*
X5135Y2075D01*
X5136Y2075D01*
X5136Y2076D01*
X5136Y2076D01*
X5136Y2076D01*
X5137Y2076D01*
X5137Y2077D01*
X5137Y2077D01*
X5138Y2078D01*
X5138Y2078D01*
X5138Y2079D01*
X5139Y2080D01*
Y2080D01*
X5139Y2080D01*
X5139Y2080D01*
X5139Y2080D01*
X5139Y2081D01*
X5139Y2081D01*
X5139Y2081D01*
X5139Y2082D01*
X5139Y2083D01*
X5139Y2084D01*
X5140Y2085D01*
X5140Y2086D01*
Y2086D01*
Y2086D01*
Y2087D01*
X5140Y2087D01*
Y2087D01*
X5140Y2088D01*
X5139Y2088D01*
X5139Y2089D01*
X5139Y2090D01*
X5139Y2091D01*
X5138Y2093D01*
X5138Y2093D01*
X5138Y2094D01*
Y2094D01*
X5138Y2094D01*
X5138Y2094D01*
X5138Y2094D01*
X5137Y2095D01*
X5137Y2095D01*
X5136Y2096D01*
X5136Y2096D01*
X5135Y2097D01*
X5134Y2097D01*
X5134Y2097D01*
X5134Y2097D01*
X5133Y2098D01*
X5133Y2098D01*
X5132Y2098D01*
X5131Y2098D01*
X5130Y2098D01*
X5130D01*
X5129Y2098D01*
D02*
G37*
G36*
X3029Y2350D02*
X3013Y2327D01*
X3029D01*
Y2350D01*
D02*
G37*
G36*
X4566Y2578D02*
X4564D01*
X4563Y2578D01*
X4562D01*
X4562Y2578D01*
X4561Y2578D01*
X4560Y2578D01*
X4558Y2578D01*
X4557Y2578D01*
X4557Y2578D01*
X4556Y2578D01*
X4555Y2577D01*
X4554Y2577D01*
X4554Y2577D01*
X4554D01*
X4554Y2577D01*
X4554Y2576D01*
X4554Y2576D01*
X4553Y2576D01*
X4553Y2575D01*
X4552Y2575D01*
X4552Y2574D01*
X4552Y2574D01*
X4551Y2573D01*
X4551Y2573D01*
X4551Y2572D01*
Y2572D01*
Y2572D01*
Y2572D01*
X4551Y2572D01*
X4551Y2571D01*
X4552Y2570D01*
X4552Y2570D01*
X4552Y2569D01*
X4553Y2569D01*
X4553Y2568D01*
X4553Y2568D01*
X4554Y2568D01*
X4554D01*
X4554Y2568D01*
X4554Y2567D01*
X4554Y2567D01*
X4555Y2567D01*
X4555Y2567D01*
X4555Y2567D01*
X4556Y2567D01*
X4557Y2567D01*
X4558Y2566D01*
X4558Y2566D01*
X4559Y2566D01*
X4560Y2566D01*
X4562Y2566D01*
X4563Y2566D01*
X4564Y2566D01*
X4565D01*
X4566Y2566D01*
X4566D01*
X4567Y2566D01*
X4568Y2566D01*
X4569Y2566D01*
X4570Y2566D01*
X4571Y2566D01*
X4572Y2566D01*
X4573Y2567D01*
X4574Y2567D01*
X4574Y2567D01*
X4575Y2568D01*
X4575D01*
X4575Y2568D01*
X4575Y2568D01*
X4576Y2568D01*
X4576Y2569D01*
X4577Y2569D01*
X4577Y2570D01*
X4577Y2571D01*
X4577Y2572D01*
X4577Y2572D01*
Y2572D01*
Y2572D01*
Y2572D01*
X4577Y2573D01*
X4577Y2573D01*
X4577Y2574D01*
X4577Y2574D01*
X4576Y2575D01*
X4576Y2575D01*
X4576Y2576D01*
X4575Y2576D01*
X4575Y2577D01*
X4575D01*
X4575Y2577D01*
X4574Y2577D01*
X4574Y2577D01*
X4574Y2577D01*
X4574Y2577D01*
X4573Y2577D01*
X4573Y2578D01*
X4572Y2578D01*
X4571Y2578D01*
X4570Y2578D01*
X4569Y2578D01*
X4568Y2578D01*
X4567Y2578D01*
X4566Y2578D01*
D02*
G37*
G36*
Y2603D02*
X4564D01*
X4563Y2603D01*
X4562D01*
X4562Y2603D01*
X4561Y2603D01*
X4560Y2603D01*
X4558Y2603D01*
X4557Y2603D01*
X4557Y2602D01*
X4556Y2602D01*
X4555Y2602D01*
X4554Y2602D01*
X4554Y2601D01*
X4554D01*
X4554Y2601D01*
X4554Y2601D01*
X4554Y2601D01*
X4553Y2601D01*
X4553Y2600D01*
X4552Y2599D01*
X4552Y2599D01*
X4552Y2598D01*
X4551Y2598D01*
X4551Y2597D01*
X4551Y2597D01*
Y2597D01*
Y2597D01*
Y2596D01*
X4551Y2596D01*
X4551Y2596D01*
X4552Y2595D01*
X4552Y2594D01*
X4552Y2594D01*
X4553Y2593D01*
X4553Y2593D01*
X4553Y2593D01*
X4554Y2592D01*
X4554D01*
X4554Y2592D01*
X4554Y2592D01*
X4554Y2592D01*
X4555Y2592D01*
X4555Y2592D01*
X4555Y2592D01*
X4556Y2591D01*
X4557Y2591D01*
X4558Y2591D01*
X4558Y2591D01*
X4559Y2591D01*
X4560Y2591D01*
X4562Y2590D01*
X4563Y2590D01*
X4564Y2590D01*
X4565D01*
X4566Y2590D01*
X4566D01*
X4567Y2590D01*
X4568Y2591D01*
X4569Y2591D01*
X4570Y2591D01*
X4571Y2591D01*
X4572Y2591D01*
X4573Y2591D01*
X4574Y2592D01*
X4574Y2592D01*
X4575Y2592D01*
X4575D01*
X4575Y2592D01*
X4575Y2593D01*
X4576Y2593D01*
X4576Y2593D01*
X4577Y2594D01*
X4577Y2595D01*
X4577Y2596D01*
X4577Y2596D01*
X4577Y2597D01*
Y2597D01*
Y2597D01*
Y2597D01*
X4577Y2597D01*
X4577Y2598D01*
X4577Y2598D01*
X4577Y2599D01*
X4576Y2600D01*
X4576Y2600D01*
X4576Y2601D01*
X4575Y2601D01*
X4575Y2601D01*
X4575D01*
X4575Y2601D01*
X4574Y2601D01*
X4574Y2602D01*
X4574Y2602D01*
X4574Y2602D01*
X4573Y2602D01*
X4573Y2602D01*
X4572Y2602D01*
X4571Y2603D01*
X4570Y2603D01*
X4569Y2603D01*
X4568Y2603D01*
X4567Y2603D01*
X4566Y2603D01*
D02*
G37*
G36*
X4326Y2606D02*
X4324D01*
X4323Y2606D01*
X4322D01*
X4322Y2606D01*
X4321Y2606D01*
X4320Y2606D01*
X4318Y2606D01*
X4317Y2605D01*
X4317Y2605D01*
X4316Y2605D01*
X4315Y2605D01*
X4314Y2605D01*
X4314Y2604D01*
X4314D01*
X4314Y2604D01*
X4314Y2604D01*
X4314Y2604D01*
X4313Y2604D01*
X4313Y2603D01*
X4312Y2602D01*
X4312Y2602D01*
X4312Y2601D01*
X4311Y2601D01*
X4311Y2600D01*
X4311Y2600D01*
Y2600D01*
Y2600D01*
Y2599D01*
X4311Y2599D01*
X4311Y2599D01*
X4312Y2598D01*
X4312Y2597D01*
X4312Y2597D01*
X4313Y2596D01*
X4313Y2596D01*
X4313Y2596D01*
X4314Y2595D01*
X4314D01*
X4314Y2595D01*
X4314Y2595D01*
X4314Y2595D01*
X4315Y2595D01*
X4315Y2595D01*
X4315Y2595D01*
X4316Y2594D01*
X4317Y2594D01*
X4318Y2594D01*
X4318Y2594D01*
X4319Y2594D01*
X4320Y2594D01*
X4322Y2593D01*
X4323Y2593D01*
X4324Y2593D01*
X4325D01*
X4326Y2593D01*
X4326D01*
X4327Y2593D01*
X4328Y2593D01*
X4329Y2594D01*
X4330Y2594D01*
X4331Y2594D01*
X4332Y2594D01*
X4333Y2594D01*
X4334Y2595D01*
X4334Y2595D01*
X4335Y2595D01*
X4335D01*
X4335Y2595D01*
X4335Y2595D01*
X4336Y2596D01*
X4336Y2596D01*
X4337Y2597D01*
X4337Y2598D01*
X4337Y2599D01*
X4337Y2599D01*
X4337Y2600D01*
Y2600D01*
Y2600D01*
Y2600D01*
X4337Y2600D01*
X4337Y2601D01*
X4337Y2601D01*
X4337Y2602D01*
X4336Y2603D01*
X4336Y2603D01*
X4336Y2603D01*
X4335Y2604D01*
X4335Y2604D01*
X4335D01*
X4335Y2604D01*
X4334Y2604D01*
X4334Y2604D01*
X4334Y2605D01*
X4334Y2605D01*
X4333Y2605D01*
X4333Y2605D01*
X4332Y2605D01*
X4331Y2605D01*
X4330Y2606D01*
X4329Y2606D01*
X4328Y2606D01*
X4327Y2606D01*
X4326Y2606D01*
D02*
G37*
G36*
X4809Y3148D02*
X4802D01*
Y3124D01*
X4809D01*
X4810Y3124D01*
X4810Y3124D01*
X4811Y3124D01*
X4812Y3124D01*
X4813Y3124D01*
X4814Y3124D01*
X4814Y3124D01*
X4814Y3124D01*
X4814Y3125D01*
X4815Y3125D01*
X4815Y3125D01*
X4816Y3125D01*
X4816Y3126D01*
X4816Y3126D01*
X4816Y3126D01*
X4817Y3126D01*
X4817Y3127D01*
X4817Y3127D01*
X4818Y3128D01*
X4818Y3128D01*
X4818Y3129D01*
X4819Y3130D01*
Y3130D01*
X4819Y3130D01*
X4819Y3130D01*
X4819Y3130D01*
X4819Y3131D01*
X4819Y3131D01*
X4819Y3131D01*
X4819Y3132D01*
X4819Y3133D01*
X4819Y3134D01*
X4820Y3135D01*
X4820Y3136D01*
Y3136D01*
Y3136D01*
Y3137D01*
X4820Y3137D01*
Y3137D01*
X4820Y3138D01*
X4819Y3138D01*
X4819Y3139D01*
X4819Y3140D01*
X4819Y3141D01*
X4818Y3143D01*
X4818Y3143D01*
X4818Y3144D01*
Y3144D01*
X4818Y3144D01*
X4818Y3144D01*
X4818Y3144D01*
X4817Y3145D01*
X4817Y3145D01*
X4816Y3146D01*
X4816Y3146D01*
X4815Y3147D01*
X4814Y3147D01*
X4814Y3147D01*
X4814Y3147D01*
X4813Y3148D01*
X4813Y3148D01*
X4812Y3148D01*
X4811Y3148D01*
X4810Y3148D01*
X4810D01*
X4809Y3148D01*
D02*
G37*
G36*
X4839Y2098D02*
X4832D01*
Y2074D01*
X4839D01*
X4840Y2074D01*
X4840Y2074D01*
X4841Y2074D01*
X4842Y2074D01*
X4843Y2074D01*
X4844Y2074D01*
X4844Y2074D01*
X4844Y2074D01*
X4844Y2075D01*
X4845Y2075D01*
X4845Y2075D01*
X4846Y2075D01*
X4846Y2076D01*
X4846Y2076D01*
X4846Y2076D01*
X4847Y2076D01*
X4847Y2077D01*
X4847Y2077D01*
X4848Y2078D01*
X4848Y2078D01*
X4848Y2079D01*
X4849Y2080D01*
Y2080D01*
X4849Y2080D01*
X4849Y2080D01*
X4849Y2080D01*
X4849Y2081D01*
X4849Y2081D01*
X4849Y2081D01*
X4849Y2082D01*
X4849Y2083D01*
X4849Y2084D01*
X4850Y2085D01*
X4850Y2086D01*
Y2086D01*
Y2086D01*
Y2087D01*
X4850Y2087D01*
Y2087D01*
X4850Y2088D01*
X4849Y2088D01*
X4849Y2089D01*
X4849Y2090D01*
X4849Y2091D01*
X4848Y2093D01*
X4848Y2093D01*
X4848Y2094D01*
Y2094D01*
X4848Y2094D01*
X4848Y2094D01*
X4848Y2094D01*
X4847Y2095D01*
X4847Y2095D01*
X4846Y2096D01*
X4846Y2096D01*
X4845Y2097D01*
X4844Y2097D01*
X4844Y2097D01*
X4844Y2097D01*
X4843Y2098D01*
X4843Y2098D01*
X4842Y2098D01*
X4841Y2098D01*
X4840Y2098D01*
X4840D01*
X4839Y2098D01*
D02*
G37*
G36*
X5026Y2578D02*
X5024D01*
X5023Y2578D01*
X5022D01*
X5022Y2578D01*
X5021Y2578D01*
X5020Y2578D01*
X5018Y2578D01*
X5017Y2578D01*
X5017Y2578D01*
X5016Y2578D01*
X5015Y2577D01*
X5014Y2577D01*
X5014Y2577D01*
X5014D01*
X5014Y2577D01*
X5014Y2576D01*
X5014Y2576D01*
X5013Y2576D01*
X5013Y2575D01*
X5012Y2575D01*
X5012Y2574D01*
X5012Y2574D01*
X5011Y2573D01*
X5011Y2573D01*
X5011Y2572D01*
Y2572D01*
Y2572D01*
Y2572D01*
X5011Y2572D01*
X5011Y2571D01*
X5012Y2570D01*
X5012Y2570D01*
X5012Y2569D01*
X5013Y2569D01*
X5013Y2568D01*
X5013Y2568D01*
X5014Y2568D01*
X5014D01*
X5014Y2568D01*
X5014Y2567D01*
X5014Y2567D01*
X5015Y2567D01*
X5015Y2567D01*
X5015Y2567D01*
X5016Y2567D01*
X5017Y2567D01*
X5018Y2566D01*
X5018Y2566D01*
X5019Y2566D01*
X5020Y2566D01*
X5022Y2566D01*
X5023Y2566D01*
X5024Y2566D01*
X5025D01*
X5026Y2566D01*
X5026D01*
X5027Y2566D01*
X5028Y2566D01*
X5029Y2566D01*
X5030Y2566D01*
X5031Y2566D01*
X5032Y2566D01*
X5033Y2567D01*
X5034Y2567D01*
X5034Y2567D01*
X5035Y2568D01*
X5035D01*
X5035Y2568D01*
X5035Y2568D01*
X5036Y2568D01*
X5036Y2569D01*
X5037Y2569D01*
X5037Y2570D01*
X5037Y2571D01*
X5037Y2572D01*
X5037Y2572D01*
Y2572D01*
Y2572D01*
Y2572D01*
X5037Y2573D01*
X5037Y2573D01*
X5037Y2574D01*
X5037Y2574D01*
X5036Y2575D01*
X5036Y2575D01*
X5036Y2576D01*
X5035Y2576D01*
X5035Y2577D01*
X5035D01*
X5035Y2577D01*
X5034Y2577D01*
X5034Y2577D01*
X5034Y2577D01*
X5034Y2577D01*
X5033Y2577D01*
X5033Y2578D01*
X5032Y2578D01*
X5031Y2578D01*
X5030Y2578D01*
X5029Y2578D01*
X5028Y2578D01*
X5027Y2578D01*
X5026Y2578D01*
D02*
G37*
%LPD*%
D10*
X3210Y2540D02*
Y3540D01*
Y2540D02*
X4210D01*
X3210Y3540D02*
X4210D01*
Y2540D02*
Y3540D01*
D11*
X4460Y3825D02*
G03*
X4460Y3675I-100J-75D01*
G01*
X4630Y2300D02*
X4830D01*
X4630D02*
Y2375D01*
Y2125D02*
Y2300D01*
Y2125D02*
X4830D01*
Y2300D01*
Y2375D01*
X4630D02*
X4830D01*
X4930Y2300D02*
X5130D01*
X4930D02*
Y2375D01*
Y2125D02*
Y2300D01*
Y2125D02*
X5130D01*
Y2300D01*
Y2375D01*
X4930D02*
X5130D01*
X3130Y2300D02*
Y2375D01*
Y2125D02*
Y2300D01*
Y2125D02*
X3330D01*
Y2300D01*
Y2375D01*
X3130D02*
X3330D01*
X3430Y2300D02*
Y2375D01*
Y2125D02*
Y2300D01*
Y2125D02*
X3630D01*
Y2300D01*
Y2375D01*
X3430D02*
X3630D01*
X3730Y2300D02*
Y2375D01*
Y2125D02*
Y2300D01*
Y2125D02*
X3930D01*
Y2300D01*
Y2375D01*
X3730D02*
X3930D01*
X4030Y2300D02*
Y2375D01*
Y2125D02*
Y2300D01*
Y2125D02*
X4230D01*
Y2300D01*
Y2375D01*
X4030D02*
X4230D01*
X4330Y2300D02*
Y2375D01*
Y2125D02*
Y2300D01*
Y2125D02*
X4530D01*
Y2300D01*
Y2375D01*
X4330D02*
X4530D01*
X3840Y3640D02*
Y3840D01*
X3340D02*
X3840D01*
X3340Y3640D02*
Y3840D01*
Y3640D02*
X3840D01*
X5600Y2545D02*
Y3455D01*
X5145Y2545D02*
X5600D01*
X5145D02*
Y3455D01*
X5600D01*
X4580Y2915D02*
Y3095D01*
Y2915D02*
X4980D01*
Y3095D01*
X4580D02*
X4980D01*
X5026Y3891D02*
Y3951D01*
X5056D01*
X5066Y3941D01*
Y3921D01*
X5056Y3911D01*
X5026D01*
X5046D02*
X5066Y3891D01*
X5086D02*
X5106D01*
X5096D01*
Y3951D01*
X5086Y3941D01*
X5236Y3951D02*
X5196D01*
Y3921D01*
X5216Y3931D01*
X5226D01*
X5236Y3921D01*
Y3901D01*
X5226Y3891D01*
X5206D01*
X5196Y3901D01*
X5296Y3951D02*
X5276Y3941D01*
X5256Y3921D01*
Y3901D01*
X5266Y3891D01*
X5286D01*
X5296Y3901D01*
Y3911D01*
X5286Y3921D01*
X5256D01*
X5316Y3941D02*
X5326Y3951D01*
X5346D01*
X5356Y3941D01*
Y3901D01*
X5346Y3891D01*
X5326D01*
X5316Y3901D01*
Y3941D01*
X5010Y3004D02*
Y2976D01*
X5016Y2970D01*
X5027D01*
X5033Y2976D01*
Y3004D01*
X5044Y2970D02*
X5055D01*
X5050D01*
Y3004D01*
X5044Y2998D01*
X5051Y2807D02*
X5045Y2812D01*
X5034D01*
X5028Y2807D01*
Y2784D01*
X5034Y2778D01*
X5045D01*
X5051Y2784D01*
X5062Y2812D02*
X5085D01*
Y2807D01*
X5062Y2784D01*
Y2778D01*
X4534Y2815D02*
X4528Y2820D01*
X4517D01*
X4511Y2815D01*
Y2792D01*
X4517Y2786D01*
X4528D01*
X4534Y2792D01*
X4568Y2820D02*
X4556Y2815D01*
X4545Y2803D01*
Y2792D01*
X4551Y2786D01*
X4562D01*
X4568Y2792D01*
Y2798D01*
X4562Y2803D01*
X4545D01*
X4293Y2818D02*
X4287Y2824D01*
X4276D01*
X4270Y2818D01*
Y2796D01*
X4276Y2790D01*
X4287D01*
X4293Y2796D01*
X4327Y2824D02*
X4304D01*
Y2807D01*
X4315Y2813D01*
X4321D01*
X4327Y2807D01*
Y2796D01*
X4321Y2790D01*
X4310D01*
X4304Y2796D01*
X5259Y3496D02*
Y3530D01*
X5276D01*
X5281Y3524D01*
Y3513D01*
X5276Y3507D01*
X5259D01*
X5293Y3496D02*
X5304D01*
X5298D01*
Y3530D01*
X5293Y3524D01*
X4240Y3910D02*
Y3970D01*
X4270D01*
X4280Y3960D01*
Y3940D01*
X4270Y3930D01*
X4240D01*
X4300Y3970D02*
Y3910D01*
X4320Y3930D01*
X4340Y3910D01*
Y3970D01*
X4360Y3910D02*
Y3970D01*
X4390D01*
X4400Y3960D01*
Y3940D01*
X4390Y3930D01*
X4360D01*
X4380D02*
X4400Y3910D01*
X4480Y3970D02*
Y3910D01*
X4520D01*
X4580Y3970D02*
X4540D01*
Y3910D01*
X4580D01*
X4540Y3940D02*
X4560D01*
X4600Y3970D02*
Y3910D01*
X4630D01*
X4640Y3920D01*
Y3960D01*
X4630Y3970D01*
X4600D01*
X2620Y2330D02*
X2560D01*
Y2360D01*
X2570Y2370D01*
X2590D01*
X2600Y2360D01*
Y2330D01*
X2620Y2400D02*
Y2420D01*
X2610Y2430D01*
X2590D01*
X2580Y2420D01*
Y2400D01*
X2590Y2390D01*
X2610D01*
X2620Y2400D01*
X2580Y2450D02*
X2610D01*
X2620Y2460D01*
X2610Y2470D01*
X2620Y2480D01*
X2610Y2490D01*
X2580D01*
X2620Y2540D02*
Y2520D01*
X2610Y2510D01*
X2590D01*
X2580Y2520D01*
Y2540D01*
X2590Y2550D01*
X2600D01*
Y2510D01*
X2580Y2570D02*
X2620D01*
X2600D01*
X2590Y2580D01*
X2580Y2590D01*
Y2600D01*
X2560Y2690D02*
X2620D01*
Y2720D01*
X2610Y2730D01*
X2600D01*
X2590Y2720D01*
Y2690D01*
Y2720D01*
X2580Y2730D01*
X2570D01*
X2560Y2720D01*
Y2690D01*
X2620Y2760D02*
Y2780D01*
X2610Y2790D01*
X2590D01*
X2580Y2780D01*
Y2760D01*
X2590Y2750D01*
X2610D01*
X2620Y2760D01*
X2580Y2820D02*
Y2840D01*
X2590Y2850D01*
X2620D01*
Y2820D01*
X2610Y2810D01*
X2600Y2820D01*
Y2850D01*
X2580Y2870D02*
X2620D01*
X2600D01*
X2590Y2880D01*
X2580Y2890D01*
Y2900D01*
X2560Y2970D02*
X2620D01*
Y2940D01*
X2610Y2930D01*
X2590D01*
X2580Y2940D01*
Y2970D01*
X2560Y3050D02*
X2600D01*
X2620Y3070D01*
X2600Y3090D01*
X2560D01*
X2570Y3110D02*
X2560Y3120D01*
Y3140D01*
X2570Y3150D01*
X2580D01*
X2590Y3140D01*
Y3130D01*
Y3140D01*
X2600Y3150D01*
X2610D01*
X2620Y3140D01*
Y3120D01*
X2610Y3110D01*
X2620Y3170D02*
X2610D01*
Y3180D01*
X2620D01*
Y3170D01*
X2570Y3220D02*
X2560Y3230D01*
Y3250D01*
X2570Y3260D01*
X2610D01*
X2620Y3250D01*
Y3230D01*
X2610Y3220D01*
X2570D01*
D26*
X5000Y2815D02*
G03*
X4990Y2825I-10J0D01*
G01*
X4870D02*
G03*
X4860Y2815I0J-10D01*
G01*
Y2545D02*
G03*
X4870Y2535I10J0D01*
G01*
X4990D02*
G03*
X5000Y2545I0J10D01*
G01*
X4730Y2815D02*
G03*
X4720Y2825I-10J0D01*
G01*
X4600D02*
G03*
X4590Y2815I0J-10D01*
G01*
Y2545D02*
G03*
X4600Y2535I10J0D01*
G01*
X4720D02*
G03*
X4730Y2545I0J10D01*
G01*
X4490Y2815D02*
G03*
X4480Y2825I-10J0D01*
G01*
X4360D02*
G03*
X4350Y2815I0J-10D01*
G01*
Y2545D02*
G03*
X4360Y2535I10J0D01*
G01*
X4480D02*
G03*
X4490Y2545I0J10D01*
G01*
X3025Y2380D02*
G03*
X3035Y2390I0J10D01*
G01*
Y2510D02*
G03*
X3025Y2520I-10J0D01*
G01*
X2755D02*
G03*
X2745Y2510I0J-10D01*
G01*
Y2390D02*
G03*
X2755Y2380I10J0D01*
G01*
X4835Y3710D02*
G03*
X4845Y3720I0J10D01*
G01*
Y3840D02*
G03*
X4835Y3850I-10J0D01*
G01*
X4565D02*
G03*
X4555Y3840I0J-10D01*
G01*
Y3720D02*
G03*
X4565Y3710I10J0D01*
G01*
X3025Y2730D02*
G03*
X3035Y2740I0J10D01*
G01*
Y2860D02*
G03*
X3025Y2870I-10J0D01*
G01*
X2755D02*
G03*
X2745Y2860I0J-10D01*
G01*
Y2740D02*
G03*
X2755Y2730I10J0D01*
G01*
X4835Y3360D02*
G03*
X4845Y3370I0J10D01*
G01*
Y3490D02*
G03*
X4835Y3500I-10J0D01*
G01*
X4565D02*
G03*
X4555Y3490I0J-10D01*
G01*
Y3370D02*
G03*
X4565Y3360I10J0D01*
G01*
X4460Y3750D02*
G03*
X4460Y3750I-100J0D01*
G01*
X5000Y2545D02*
Y2815D01*
X4870Y2535D02*
X4990D01*
X4860Y2545D02*
Y2815D01*
X4870Y2825D02*
X4990D01*
X4930Y2620D02*
Y2667D01*
Y2692D02*
Y2740D01*
X4730Y2545D02*
Y2815D01*
X4600Y2535D02*
X4720D01*
X4590Y2545D02*
Y2815D01*
X4600Y2825D02*
X4720D01*
X4660Y2620D02*
Y2667D01*
Y2692D02*
Y2740D01*
X4490Y2545D02*
Y2815D01*
X4360Y2535D02*
X4480D01*
X4350Y2545D02*
Y2815D01*
X4360Y2825D02*
X4480D01*
X4420Y2620D02*
Y2667D01*
Y2692D02*
Y2740D01*
X2755Y2380D02*
X3025D01*
X2745Y2390D02*
Y2510D01*
X2755Y2520D02*
X3025D01*
X3035Y2390D02*
Y2510D01*
X2830Y2450D02*
X2877D01*
X2902D02*
X2950D01*
X4565Y3710D02*
X4835D01*
X4555Y3720D02*
Y3840D01*
X4565Y3850D02*
X4835D01*
X4845Y3720D02*
Y3840D01*
X4640Y3780D02*
X4687D01*
X4712D02*
X4760D01*
X2755Y2730D02*
X3025D01*
X2745Y2740D02*
Y2860D01*
X2755Y2870D02*
X3025D01*
X3035Y2740D02*
Y2860D01*
X2830Y2800D02*
X2877D01*
X2902D02*
X2950D01*
X4565Y3360D02*
X4835D01*
X4555Y3370D02*
Y3490D01*
X4565Y3500D02*
X4835D01*
X4845Y3370D02*
Y3490D01*
X4640Y3430D02*
X4687D01*
X4712D02*
X4760D01*
D27*
X2841Y3193D02*
G03*
X2829Y3181I0J-12D01*
G01*
X2967Y3177D02*
G03*
X2951Y3193I-16J0D01*
G01*
X2947Y3158D02*
G03*
X2967Y3177I-0J20D01*
G01*
X2829Y3173D02*
G03*
X2845Y3158I16J0D01*
G01*
X2841Y3193D02*
X2951D01*
X2845Y3158D02*
X2947D01*
X2829Y3173D02*
Y3181D01*
X2809Y3319D02*
X2829Y3181D01*
X2809Y3319D02*
X2817D01*
X2837Y3193D01*
X2967Y3170D02*
X2975Y3319D01*
X2959Y3193D02*
X2975Y3319D01*
X2734Y3095D02*
X3046D01*
Y3607D01*
X3022D02*
X3046D01*
X2734D02*
X2758D01*
X2734Y3095D02*
Y3607D01*
X4460Y3675D02*
Y3825D01*
D28*
X5020Y3510D02*
X5100D01*
X5020D02*
Y3750D01*
X5100D01*
Y3510D02*
Y3750D01*
X5060Y3470D02*
Y3510D01*
Y3750D02*
Y3790D01*
D29*
X4905Y2667D02*
X4930D01*
X4955D01*
X4905Y2692D02*
X4930D01*
X4955D01*
X4635Y2667D02*
X4660D01*
X4685D01*
X4635Y2692D02*
X4660D01*
X4685D01*
X4395Y2667D02*
X4420D01*
X4445D01*
X4395Y2692D02*
X4420D01*
X4445D01*
X2877Y2450D02*
Y2475D01*
Y2425D02*
Y2450D01*
X2902D02*
Y2475D01*
Y2425D02*
Y2450D01*
X4687Y3780D02*
Y3805D01*
Y3755D02*
Y3780D01*
X4712D02*
Y3805D01*
Y3755D02*
Y3780D01*
X2877Y2800D02*
Y2825D01*
Y2775D02*
Y2800D01*
X2902D02*
Y2825D01*
Y2775D02*
Y2800D01*
X4687Y3430D02*
Y3455D01*
Y3405D02*
Y3430D01*
X4712D02*
Y3455D01*
Y3405D02*
Y3430D01*
D30*
X4700Y2434D02*
X4723Y2400D01*
Y2434D02*
X4700Y2400D01*
X4734Y2434D02*
X4757D01*
Y2428D01*
X4734Y2406D01*
Y2400D01*
X5010Y2434D02*
X5033Y2400D01*
Y2434D02*
X5010Y2400D01*
X5044D02*
X5055D01*
X5050D01*
Y2434D01*
X5044Y2428D01*
D31*
X3200Y2434D02*
X3223Y2400D01*
Y2434D02*
X3200Y2400D01*
X3257D02*
X3234D01*
X3257Y2423D01*
Y2428D01*
X3251Y2434D01*
X3240D01*
X3234Y2428D01*
X3500Y2434D02*
X3523Y2400D01*
Y2434D02*
X3500Y2400D01*
X3534Y2428D02*
X3540Y2434D01*
X3551D01*
X3557Y2428D01*
Y2423D01*
X3551Y2417D01*
X3545D01*
X3551D01*
X3557Y2411D01*
Y2406D01*
X3551Y2400D01*
X3540D01*
X3534Y2406D01*
X3800Y2434D02*
X3823Y2400D01*
Y2434D02*
X3800Y2400D01*
X3851D02*
Y2434D01*
X3834Y2417D01*
X3857D01*
X4100Y2434D02*
X4123Y2400D01*
Y2434D02*
X4100Y2400D01*
X4157Y2434D02*
X4134D01*
Y2417D01*
X4145Y2423D01*
X4151D01*
X4157Y2417D01*
Y2406D01*
X4151Y2400D01*
X4140D01*
X4134Y2406D01*
X4400Y2434D02*
X4423Y2400D01*
Y2434D02*
X4400Y2400D01*
X4457Y2434D02*
X4445Y2428D01*
X4434Y2417D01*
Y2406D01*
X4440Y2400D01*
X4451D01*
X4457Y2406D01*
Y2411D01*
X4451Y2417D01*
X4434D01*
X2760Y3062D02*
Y3027D01*
X2767Y3020D01*
X2781D01*
X2788Y3027D01*
Y3062D01*
X2802Y3027D02*
X2810Y3020D01*
X2824D01*
X2831Y3027D01*
Y3034D01*
X2824Y3041D01*
X2810D01*
X2802Y3048D01*
Y3055D01*
X2810Y3062D01*
X2824D01*
X2831Y3055D01*
X2817Y3062D02*
Y3020D01*
X2845Y3055D02*
X2852Y3062D01*
X2866D01*
X2873Y3055D01*
Y3048D01*
X2866Y3041D01*
X2859D01*
X2866D01*
X2873Y3034D01*
Y3027D01*
X2866Y3020D01*
X2852D01*
X2845Y3027D01*
X3310Y3824D02*
X3267D01*
Y3803D01*
X3274Y3796D01*
X3282D01*
X3289Y3803D01*
Y3824D01*
Y3803D01*
X3296Y3796D01*
X3303D01*
X3310Y3803D01*
Y3824D01*
X3267Y3781D02*
X3296D01*
X3310Y3767D01*
X3296Y3753D01*
X3267D01*
X3289D01*
Y3781D01*
X3310Y3739D02*
Y3711D01*
Y3725D01*
X3267D01*
X3310Y3696D02*
Y3668D01*
Y3682D01*
X3267D01*
X3530Y3622D02*
Y3587D01*
X3537Y3580D01*
X3551D01*
X3558Y3587D01*
Y3622D01*
X3572Y3587D02*
X3580Y3580D01*
X3594D01*
X3601Y3587D01*
Y3594D01*
X3594Y3601D01*
X3580D01*
X3572Y3608D01*
Y3615D01*
X3580Y3622D01*
X3594D01*
X3601Y3615D01*
X3587Y3622D02*
Y3580D01*
X3615D02*
X3629D01*
X3622D01*
Y3622D01*
X3615Y3615D01*
X3650D02*
X3657Y3622D01*
X3672D01*
X3679Y3615D01*
Y3587D01*
X3672Y3580D01*
X3657D01*
X3650Y3587D01*
Y3615D01*
D32*
X4588Y3685D02*
X4581Y3692D01*
X4567D01*
X4560Y3685D01*
Y3657D01*
X4567Y3650D01*
X4581D01*
X4588Y3657D01*
X4602Y3685D02*
X4610Y3692D01*
X4624D01*
X4631Y3685D01*
Y3678D01*
X4624Y3671D01*
X4617D01*
X4624D01*
X4631Y3664D01*
Y3657D01*
X4624Y3650D01*
X4610D01*
X4602Y3657D01*
X4598Y3325D02*
X4591Y3332D01*
X4577D01*
X4570Y3325D01*
Y3297D01*
X4577Y3290D01*
X4591D01*
X4598Y3297D01*
X4612Y3290D02*
X4627D01*
X4620D01*
Y3332D01*
X4612Y3325D01*
M02*
