G04 Layer_Color=255*
%FSLAX23Y23*%
%MOIN*%
G70*
G01*
G75*
%ADD16C,0.055*%
%ADD17O,0.059X0.118*%
%ADD18P,0.052X8X292.5*%
%ADD19P,0.052X8X202.5*%
%ADD20C,0.083*%
%ADD21O,0.260X0.130*%
%ADD22C,0.053*%
%ADD23C,0.130*%
%ADD24C,0.140*%
%ADD25C,0.065*%
D16*
X5060Y3430D02*
D03*
Y3830D02*
D03*
D17*
X4780Y2250D02*
D03*
X4680D02*
D03*
X5080D02*
D03*
X4980D02*
D03*
X3280D02*
D03*
X3180D02*
D03*
X3580D02*
D03*
X3480D02*
D03*
X3880D02*
D03*
X3780D02*
D03*
X4180D02*
D03*
X4080D02*
D03*
X4480D02*
D03*
X4380D02*
D03*
D18*
X4930Y2580D02*
D03*
Y2780D02*
D03*
X4660Y2580D02*
D03*
Y2780D02*
D03*
X4420Y2580D02*
D03*
Y2780D02*
D03*
D19*
X2790Y2450D02*
D03*
X2990D02*
D03*
X4600Y3780D02*
D03*
X4800D02*
D03*
X2790Y2800D02*
D03*
X2990D02*
D03*
X4600Y3430D02*
D03*
X4800D02*
D03*
X4310Y3750D02*
D03*
X4410D02*
D03*
D20*
X3308Y2640D02*
D03*
X3710D02*
D03*
X4112D02*
D03*
X3612Y3440D02*
D03*
X3812D02*
D03*
X4112D02*
D03*
D21*
X2890Y3575D02*
D03*
Y3390D02*
D03*
D22*
X3442Y3740D02*
D03*
X3541D02*
D03*
X3639D02*
D03*
X3738D02*
D03*
D23*
X5300Y2200D02*
D03*
X2700Y3800D02*
D03*
X5300D02*
D03*
X2700Y2200D02*
D03*
D24*
X5300Y2705D02*
D03*
Y3295D02*
D03*
D25*
X4780Y2980D02*
D03*
X4880D02*
D03*
X4680D02*
D03*
M02*
